{
.formatVersion = 3;
classes = (
{
code = "one two three B D F I J P S T V W X Y Igrave Iacute Icircumflex Idieresis Eth Yacute Thorn eth Dcaron dcaron Dcroat Itilde Imacron Ibreve Iogonek Idotaccent IJ Jcircumflex lcaron Sacute Scircumflex Scaron Tcaron Tbar Wcircumflex Ycircumflex Ydieresis uni0218 uni021A uni0402 uni0405 uni0406 uni0407 uni0408 uni0409 uni040A uni040E uni0411 uni0412 uni0414 uni0417 uni0420 uni0422 uni0423 uni0424 uni0425 uni042A uni042B uni042C uni042D uni042E Wgrave Wacute Wdieresis Ygrave G_r G_s f_f f_j g_j j_j l_l q_j r.alt r.fina r.init racute.alt racute.fina racute.init rcaron.alt rcaron.fina rcaron.init s.alt s.fina s.init s_s sacute.alt sacute.fina sacute.init scaron.alt scaron.fina scaron.init scedilla.alt scedilla.fina scedilla.init scircumflex.alt scircumflex.fina scircumflex.init t_h t_t uni0157.alt uni0157.fina uni0157.init uni0219.alt uni0219.fina uni0219.init uni0412044F uni0422044F uni0433.alt uni0433.fina uni0433.init uni0436.alt uni0436.fina uni0436.init uni0436.ss02.alt uni0436.ss02.fina uni0436.ss02.init uni0437.alt uni0437.fina uni0437.init uni043B.alt uni043B.init uni043C.alt uni043C.init uni0445.alt uni0445.fina uni0445.init uni0447.alt uni0447.fina uni0447.init uni044A.alt uni044A.fina uni044A.init uni044D.alt uni044D.fina uni044D.init uni044F.alt uni044F.init uni0453.alt uni0453.fina uni0453.init uni0455.alt uni0455.fina uni0455.init uni0459.alt uni0459.init uni0491.alt uni0491.fina uni0491.init x.alt x.fina x.init y_j z.alt z.fina z.init zacute.alt zacute.fina zacute.init zcaron.alt zcaron.fina zcaron.init zdotaccent.alt zdotaccent.fina zdotaccent.init";
name = aalt;
},
{

glyphs = (
{
glyphname = .notdef;
layers = (
{
hints = (
{
horizontal = 1;
place = (-17,64);
type = Stem;
},
{
horizontal = 1;
place = (641,67);
type = Stem;
},
{
place = (94,76);
type = Stem;
},
{
place = (455,66);
type = Stem;
}
);
layerId = "8E2892BE-3887-47FD-9544-6D763EF7E81E";
shapes = (
{
closed = 1;
nodes = (
(519,677,o),
(503,708,o),
(471,708,c),
(142,709,l),
(109,709,o),
(93,678,o),
(93,647,cs),
(93,632,o),
(94,593,o),
(94,539,cs),
(94,464,o),
(92,358,o),
(84,247,cs),
(79,177,o),
(73,108,o),
(73,47,cs),
(73,4,o),
(106,-17,o),
(140,-17,c),
(435,-18,l),
(469,-18,o),
(503,4,o),
(503,48,cs),
(503,78,o),
(508,154,o),
(514,238,cs),
(520,318,o),
(521,401,o),
(521,471,cs),
(521,557,o),
(519,625,o),
(519,645,cs)
);
},
{
closed = 1;
nodes = (
(437,178,o),
(432,109,o),
(431,48,c),
(431,47,l),
(151,48,l),
(151,49,l),
(151,79,o),
(152,154,o),
(158,238,cs),
(165,333,o),
(170,440,o),
(170,530,cs),
(170,572,o),
(169,611,o),
(166,642,c),
(446,641,l),
(452,612,o),
(455,569,o),
(455,516,cs),
(455,439,o),
(449,342,o),
(442,247,cs)
);
},
{
closed = 1;
nodes = (
(362,467,o),
(356,464,o),
(349,460,cs),
(334,451,o),
(314,422,o),
(296,386,c),
(291,407,o),
(288,428,o),
(287,446,cs),
(286,460,o),
(278,468,o),
(268,468,c),
(267,468,o),
(267,468,o),
(266,468,c),
(251,467,o),
(243,460,o),
(243,448,cs),
(243,446,o),
(243,439,o),
(244,430,cs),
(247,401,o),
(256,365,o),
(271,329,c),
(247,276,o),
(240,270,o),
(236,270,cs),
(232,270,o),
(228,274,o),
(225,277,cs),
(220,282,o),
(216,282,o),
(210,282,cs),
(200,282,o),
(193,273,o),
(193,263,cs),
(193,256,o),
(196,249,o),
(202,243,cs),
(211,235,o),
(222,231,o),
(236,231,cs),
(262,231,o),
(280,252,o),
(296,282,c),
(307,264,o),
(320,247,o),
(336,231,cs),
(343,224,o),
(349,218,o),
(357,218,cs),
(372,218,o),
(379,230,o),
(379,240,cs),
(379,247,o),
(377,252,o),
(370,257,cs),
(347,273,o),
(329,298,o),
(316,327,c),
(336,375,o),
(357,411,o),
(379,430,cs),
(386,436,o),
(390,441,o),
(390,447,cs),
(390,460,o),
(380,467,o),
(369,467,cs)
);
}
);
width = 600;
}
);
},
{
glyphname = exclam;
layers = (
{
hints = (
{
horizontal = 1;
place = (-18,145);
type = Stem;
},
{
place = (40,145);
type = Stem;
},
{
place = (64,121);
type = Stem;
}
);
layerId = "8E2892BE-3887-47FD-9544-6D763EF7E81E";
shapes = (
{
closed = 1;
nodes = (
(145,166,o),
(173,186,o),
(176,228,cs),
(182,314,o),
(185,402,o),
(185,482,cs),
(185,562,o),
(182,635,o),
(178,688,cs),
(175,731,o),
(145,753,o),
(116,753,cs),
(85,753,o),
(54,727,o),
(58,677,cs),
(62,630,o),
(64,569,o),
(64,502,cs),
(64,418,o),
(61,325,o),
(56,236,cs),
(53,190,o),
(85,166,o),
(116,166,cs)
);
},
{
closed = 1;
nodes = (
(153,-18,o),
(185,14,o),
(185,55,cs),
(185,95,o),
(153,127,o),
(113,127,cs),
(72,127,o),
(40,95,o),
(40,55,cs),
(40,14,o),
(72,-18,o),
(113,-18,cs)
);
}
);
width = 225;
}
);
unicode = 33;
},
{
glyphname = quotedbl;
layers = (
{
hints = (
{
horizontal = 1;
place = (770,-20);
target = down;
type = TopGhost;
},
{
place = (20,294);
type = Stem;
}
);
layerId = "8E2892BE-3887-47FD-9544-6D763EF7E81E";
shapes = (
{
closed = 1;
nodes = (
(107,501,o),
(134,526,o),
(138,560,cs),
(154,699,ls),
(158,738,o),
(134,770,o),
(98,770,cs),
(67,770,o),
(40,745,o),
(36,711,cs),
(20,572,ls),
(16,533,o),
(40,501,o),
(76,501,cs)
);
},
{
closed = 1;
nodes = (
(267,501,o),
(294,526,o),
(298,560,cs),
(314,699,ls),
(318,738,o),
(294,770,o),
(258,770,cs),
(227,770,o),
(200,745,o),
(196,711,cs),
(180,572,ls),
(176,533,o),
(200,501,o),
(236,501,cs)
);
}
);
width = 334;
}
);
leftKerningGroup = quotedbl;
rightKerningGroup = quotedbl2;
unicode = 34;
},
{
glyphname = numbersign;
layers = (
{
hints = (
{
horizontal = 1;
place = (190,100);
type = Stem;
},
{
horizontal = 1;
place = (359,100);
type = Stem;
},
{
horizontal = 1;
place = (361,100);
type = Stem;
},
{
horizontal = 1;
place = (364,100);
type = Stem;
},
{
place = (30,513);
type = Stem;
}
);
layerId = "8E2892BE-3887-47FD-9544-6D763EF7E81E";
shapes = (
{
closed = 1;
nodes = (
(525,359,o),
(543,384,o),
(543,410,cs),
(543,434,o),
(525,459,o),
(488,459,cs),
(475,459,l),
(483,485,o),
(491,507,o),
(497,523,cs),
(500,532,o),
(502,540,o),
(502,548,cs),
(502,580,o),
(474,600,o),
(447,600,cs),
(426,600,o),
(405,589,o),
(395,562,cs),
(385,537,o),
(374,501,o),
(361,461,c),
(337,461,o),
(312,462,o),
(288,462,c),
(296,487,o),
(302,508,o),
(308,523,cs),
(311,532,o),
(313,541,o),
(313,549,cs),
(313,582,o),
(287,602,o),
(259,602,cs),
(238,602,o),
(216,590,o),
(206,562,cs),
(197,537,o),
(186,503,o),
(173,464,c),
(117,464,ls),
(79,464,o),
(59,438,o),
(59,413,cs),
(59,388,o),
(77,364,o),
(113,364,cs),
(143,364,l),
(136,339,o),
(128,314,o),
(121,290,c),
(85,290,ls),
(50,290,o),
(30,264,o),
(30,239,cs),
(30,214,o),
(49,190,o),
(87,190,cs),
(89,190,o),
(91,190,o),
(92,190,c),
(69,108,ls),
(67,101,o),
(66,95,o),
(66,89,cs),
(66,56,o),
(95,36,o),
(123,36,cs),
(144,36,o),
(165,48,o),
(172,75,cs),
(174,84,o),
(188,130,o),
(205,190,c),
(230,190,o),
(255,190,o),
(279,190,c),
(256,108,ls),
(254,100,o),
(253,93,o),
(253,87,cs),
(253,52,o),
(279,31,o),
(306,31,cs),
(327,31,o),
(349,45,o),
(359,75,cs),
(364,91,o),
(377,135,o),
(393,190,c),
(456,190,ls),
(493,190,o),
(512,215,o),
(512,240,cs),
(512,265,o),
(493,290,o),
(456,290,cs),
(445,290,o),
(434,290,o),
(423,290,c),
(444,360,l),
(462,359,o),
(477,359,o),
(488,359,cs)
);
},
{
closed = 1;
nodes = (
(309,290,l),
(235,290,l),
(242,314,o),
(249,338,o),
(257,362,c),
(281,362,o),
(306,361,o),
(330,361,c)
);
}
);
width = 573;
}
);
unicode = 35;
},
{
glyphname = dollar;
layers = (
{
hints = (
{
horizontal = 1;
place = (-17,21);
target = up;
type = BottomGhost;
},
{
horizontal = 1;
place = (-14,21);
target = up;
type = BottomGhost;
},
{
place = (25,117);
type = Stem;
},
{
place = (40,115);
type = Stem;
},
{
place = (192,99);
type = Stem;
},
{
place = (193,103);
type = Stem;
},
{
place = (339,116);
type = Stem;
}
);
layerId = "8E2892BE-3887-47FD-9544-6D763EF7E81E";
shapes = (
{
closed = 1;
nodes = (
(455,282,o),
(374,339,o),
(296,388,c),
(296,433,ls),
(296,478,o),
(296,522,o),
(295,565,c),
(304,559,o),
(312,552,o),
(318,544,cs),
(334,523,o),
(354,514,o),
(371,514,cs),
(398,514,o),
(421,535,o),
(421,564,cs),
(421,577,o),
(416,591,o),
(406,606,cs),
(378,647,o),
(337,673,o),
(292,684,c),
(291,725,o),
(265,745,o),
(240,745,cs),
(216,745,o),
(191,727,o),
(189,687,c),
(106,672,o),
(40,616,o),
(40,528,cs),
(40,432,o),
(116,374,o),
(192,325,c),
(190,234,o),
(186,159,o),
(183,102,c),
(157,118,o),
(139,147,o),
(139,188,cs),
(139,195,o),
(142,213,o),
(142,225,cs),
(142,263,o),
(117,283,o),
(89,283,cs),
(64,283,o),
(37,265,o),
(28,227,cs),
(25,214,o),
(25,201,o),
(25,185,cs),
(25,74,o),
(94,7,o),
(177,-14,c),
(177,-57,o),
(203,-81,o),
(229,-81,cs),
(253,-81,o),
(278,-61,o),
(282,-17,c),
(374,0,o),
(455,67,o),
(455,186,cs)
);
},
{
closed = 1;
nodes = (
(155,554,o),
(170,570,o),
(191,579,c),
(192,539,o),
(193,496,o),
(193,458,c),
(170,479,o),
(155,502,o),
(155,528,cs)
);
},
{
closed = 1;
nodes = (
(294,258,l),
(321,236,o),
(339,213,o),
(339,186,cs),
(339,142,o),
(317,112,o),
(288,97,c)
);
}
);
width = 480;
}
);
unicode = 36;
},
{
glyphname = percent;
layers = (
{
hints = (
{
horizontal = 1;
place = (-8,95);
type = Stem;
},
{
horizontal = 1;
place = (140,95);
type = Stem;
},
{
horizontal = 1;
place = (432,95);
type = Stem;
},
{
horizontal = 1;
place = (580,95);
type = Stem;
},
{
place = (30,100);
type = Stem;
},
{
place = (184,98);
type = Stem;
},
{
place = (320,100);
type = Stem;
},
{
place = (474,98);
type = Stem;
}
);
layerId = "8E2892BE-3887-47FD-9544-6D763EF7E81E";
shapes = (
{
closed = 1;
nodes = (
(139,-29,o),
(157,-21,o),
(172,-1,cs),
(270,130,o),
(413,468,o),
(519,601,cs),
(531,616,o),
(536,632,o),
(536,646,cs),
(536,677,o),
(512,701,o),
(484,701,cs),
(468,701,o),
(451,693,o),
(436,675,cs),
(321,537,o),
(185,198,o),
(83,68,cs),
(72,54,o),
(68,40,o),
(68,27,cs),
(68,-4,o),
(93,-29,o),
(122,-29,cs)
);
},
{
closed = 1;
nodes = (
(234,432,o),
(282,502,o),
(282,567,cs),
(282,623,o),
(246,675,o),
(168,675,cs),
(79,675,o),
(30,605,o),
(30,540,cs),
(30,484,o),
(67,432,o),
(147,432,cs)
);
},
{
closed = 1;
nodes = (
(137,527,o),
(130,537,o),
(130,549,cs),
(130,563,o),
(141,580,o),
(161,580,cs),
(177,580,o),
(184,570,o),
(184,558,cs),
(184,544,o),
(172,527,o),
(153,527,cs)
);
},
{
closed = 1;
nodes = (
(524,-8,o),
(572,62,o),
(572,127,cs),
(572,183,o),
(536,235,o),
(458,235,cs),
(369,235,o),
(320,165,o),
(320,100,cs),
(320,44,o),
(357,-8,o),
(437,-8,cs)
);
},
{
closed = 1;
nodes = (
(427,87,o),
(420,97,o),
(420,109,cs),
(420,123,o),
(431,140,o),
(451,140,cs),
(467,140,o),
(474,130,o),
(474,118,cs),
(474,104,o),
(462,87,o),
(443,87,cs)
);
}
);
width = 602;
}
);
unicode = 37;
},
{
glyphname = ampersand;
layers = (
{
hints = (
{
horizontal = 1;
place = (-18,110);
type = Stem;
},
{
horizontal = 1;
place = (430,-20);
target = down;
type = TopGhost;
},
{
horizontal = 1;
place = (605,106);
type = Stem;
},
{
place = (5,123);
type = Stem;
},
{
place = (106,103);
type = Stem;
},
{
place = (269,97);
type = Stem;
},
{
place = (390,113);
type = Stem;
}
);
layerId = "8E2892BE-3887-47FD-9544-6D763EF7E81E";
shapes = (
{
closed = 1;
nodes = (
(494,94,o),
(471,109,o),
(448,126,c),
(482,179,o),
(503,242,o),
(503,311,cs),
(503,334,o),
(503,356,o),
(502,374,cs),
(500,412,o),
(475,430,o),
(443,430,cs),
(420,430,o),
(390,407,o),
(390,363,cs),
(390,347,o),
(390,327,o),
(389,306,cs),
(387,265,o),
(377,230,o),
(363,201,c),
(314,252,o),
(274,309,o),
(247,369,c),
(307,441,o),
(366,518,o),
(366,598,cs),
(366,664,o),
(330,711,o),
(262,711,cs),
(174,711,o),
(106,646,o),
(106,538,cs),
(106,490,o),
(113,441,o),
(127,393,c),
(65,321,o),
(5,242,o),
(5,169,cs),
(5,59,o),
(81,-18,o),
(202,-18,cs),
(260,-18,o),
(317,3,o),
(365,38,c),
(397,13,o),
(431,-9,o),
(466,-26,c),
(478,-31,o),
(488,-34,o),
(498,-34,cs),
(533,-34,o),
(556,-4,o),
(556,26,cs),
(556,47,o),
(545,68,o),
(519,80,c)
);
},
{
closed = 1;
nodes = (
(209,585,o),
(233,605,o),
(247,605,cs),
(260,605,o),
(269,597,o),
(269,579,cs),
(269,557,o),
(245,525,o),
(212,488,c),
(210,504,o),
(209,520,o),
(209,536,cs)
);
},
{
closed = 1;
nodes = (
(128,203,o),
(146,238,o),
(173,276,c),
(202,217,o),
(240,163,o),
(284,114,c),
(258,99,o),
(230,92,o),
(205,92,cs),
(128,92,o),
(128,119,o),
(128,169,cs)
);
}
);
width = 560;
}
);
unicode = 38;
},
{
glyphname = quotesingle;
layers = (
{
hints = (
{
horizontal = 1;
place = (770,-20);
target = down;
type = TopGhost;
},
{
place = (20,134);
type = Stem;
}
);
layerId = "8E2892BE-3887-47FD-9544-6D763EF7E81E";
shapes = (
{
closed = 1;
nodes = (
(154,699,ls),
(158,738,o),
(134,770,o),
(98,770,cs),
(67,770,o),
(40,745,o),
(36,711,cs),
(20,572,ls),
(16,533,o),
(40,501,o),
(76,501,cs),
(107,501,o),
(134,526,o),
(138,560,cs)
);
}
);
width = 174;
}
);
leftKerningGroup = quotedbl;
rightKerningGroup = quotedbl2;
unicode = 39;
},
{
glyphname = parenleft;
layers = (
{
hints = (
{
horizontal = 1;
place = (-28,738);
type = Stem;
},
{
place = (70,120);
type = Stem;
}
);
layerId = "8E2892BE-3887-47FD-9544-6D763EF7E81E";
shapes = (
{
closed = 1;
nodes = (
(203,-21,o),
(222,-28,o),
(240,-28,cs),
(271,-28,o),
(296,-4,o),
(296,27,cs),
(296,45,o),
(288,65,o),
(268,84,cs),
(218,131,o),
(190,216,o),
(190,326,cs),
(190,431,o),
(216,532,o),
(263,606,cs),
(274,624,o),
(279,641,o),
(279,655,cs),
(279,688,o),
(255,710,o),
(226,710,cs),
(205,710,o),
(181,698,o),
(162,669,cs),
(104,578,o),
(70,451,o),
(70,321,cs),
(70,183,o),
(111,68,o),
(185,-3,cs)
);
}
);
width = 346;
}
);
unicode = 40;
},
{
glyphname = parenright;
layers = (
{
hints = (
{
horizontal = 1;
place = (-27,738);
type = Stem;
},
{
place = (156,120);
type = Stem;
}
);
layerId = "8E2892BE-3887-47FD-9544-6D763EF7E81E";
shapes = (
{
closed = 1;
nodes = (
(242,105,o),
(276,232,o),
(276,362,cs),
(276,500,o),
(235,615,o),
(161,686,cs),
(143,704,o),
(124,711,o),
(106,711,cs),
(75,711,o),
(50,687,o),
(50,656,cs),
(50,638,o),
(58,618,o),
(78,599,cs),
(128,552,o),
(156,467,o),
(156,357,cs),
(156,252,o),
(130,151,o),
(83,77,cs),
(72,59,o),
(67,42,o),
(67,28,cs),
(67,-5,o),
(91,-27,o),
(120,-27,cs),
(141,-27,o),
(165,-15,o),
(184,14,cs)
);
}
);
width = 346;
}
);
unicode = 41;
},
{
glyphname = asterisk;
layers = (
{
hints = (
{
horizontal = 1;
place = (489,297);
type = Stem;
},
{
place = (8,264);
type = Stem;
},
{
place = (89,88);
type = Stem;
},
{
place = (101,87);
type = Stem;
}
);
layerId = "8E2892BE-3887-47FD-9544-6D763EF7E81E";
shapes = (
{
closed = 1;
nodes = (
(236,625,o),
(224,633,o),
(213,640,c),
(248,669,ls),
(263,682,o),
(270,696,o),
(270,709,cs),
(270,732,o),
(251,751,o),
(227,751,cs),
(217,751,o),
(205,747,o),
(194,738,cs),
(178,725,l),
(178,730,o),
(177,735,o),
(177,740,c),
(175,771,o),
(154,786,o),
(132,786,cs),
(109,786,o),
(87,769,o),
(89,734,c),
(89,730,o),
(89,726,o),
(90,722,c),
(78,730,ls),
(68,737,o),
(58,740,o),
(49,740,cs),
(25,740,o),
(8,719,o),
(8,696,cs),
(8,682,o),
(15,666,o),
(32,655,cs),
(43,648,o),
(54,640,o),
(66,633,c),
(55,625,o),
(45,616,o),
(35,608,cs),
(21,596,o),
(15,582,o),
(15,569,cs),
(15,546,o),
(32,526,o),
(55,526,cs),
(65,526,o),
(77,530,o),
(89,540,cs),
(101,550,l),
(101,545,o),
(102,541,o),
(102,536,c),
(104,505,o),
(126,489,o),
(148,489,cs),
(170,489,o),
(191,506,o),
(189,542,c),
(189,546,o),
(189,549,o),
(188,553,c),
(193,549,o),
(198,546,o),
(203,543,cs),
(213,536,o),
(223,534,o),
(232,534,cs),
(256,534,o),
(272,553,o),
(272,576,cs),
(272,590,o),
(265,606,o),
(248,617,cs)
);
}
);
width = 280;
}
);
unicode = 42;
},
{
glyphname = plus;
layers = (
{
hints = (
{
horizontal = 1;
place = (282,110);
type = Stem;
},
{
place = (146,112);
type = Stem;
}
);
layerId = "8E2892BE-3887-47FD-9544-6D763EF7E81E";
shapes = (
{
closed = 1;
nodes = (
(258,392,l),
(258,457,ls),
(258,495,o),
(230,514,o),
(202,514,cs),
(175,514,o),
(146,496,o),
(146,458,c),
(145,393,l),
(87,393,ls),
(49,393,o),
(30,366,o),
(30,338,cs),
(30,311,o),
(49,283,o),
(87,283,cs),
(145,283,l),
(144,221,l),
(144,181,o),
(172,161,o),
(201,161,cs),
(229,161,o),
(257,181,o),
(257,221,cs),
(257,282,l),
(323,282,ls),
(363,282,o),
(383,310,o),
(383,337,cs),
(383,365,o),
(363,392,o),
(323,392,cs)
);
}
);
width = 413;
}
);
unicode = 43;
},
{
glyphname = comma;
layers = (
{
hints = (
{
horizontal = 1;
place = (-144,269);
type = Stem;
},
{
place = (34,147);
type = Stem;
}
);
layerId = "8E2892BE-3887-47FD-9544-6D763EF7E81E";
shapes = (
{
closed = 1;
nodes = (
(59,-144,o),
(72,-140,o),
(86,-132,cs),
(134,-104,o),
(181,-32,o),
(181,36,cs),
(181,99,o),
(142,125,o),
(104,125,cs),
(69,125,o),
(34,99,o),
(34,56,cs),
(34,20,o),
(60,13,o),
(60,-12,cs),
(60,-41,o),
(24,-67,o),
(11,-90,cs),
(7,-97,o),
(5,-104,o),
(5,-110,cs),
(5,-129,o),
(21,-144,o),
(46,-144,cs)
);
}
);
width = 211;
}
);
leftKerningGroup = comma;
unicode = 44;
},
{
glyphname = hyphen;
layers = (
{
hints = (
{
horizontal = 1;
place = (217,102);
type = Stem;
},
{
place = (100,295);
type = Stem;
}
);
layerId = "8E2892BE-3887-47FD-9544-6D763EF7E81E";
shapes = (
{
closed = 1;
nodes = (
(378,217,o),
(395,242,o),
(395,267,cs),
(395,291,o),
(377,317,o),
(340,317,c),
(278,318,o),
(215,319,o),
(154,319,cs),
(117,319,o),
(100,294,o),
(100,269,cs),
(100,245,o),
(118,219,o),
(155,219,c),
(217,218,o),
(280,217,o),
(341,217,cs)
);
}
);
width = 475;
}
);
unicode = 45;
},
{
glyphname = period;
layers = (
{
hints = (
{
horizontal = 1;
place = (-20,145);
type = Stem;
},
{
place = (30,145);
type = Stem;
}
);
layerId = "8E2892BE-3887-47FD-9544-6D763EF7E81E";
shapes = (
{
closed = 1;
nodes = (
(143,-20,o),
(175,12,o),
(175,53,cs),
(175,93,o),
(143,125,o),
(103,125,cs),
(62,125,o),
(30,93,o),
(30,53,cs),
(30,12,o),
(62,-20,o),
(103,-20,cs)
);
}
);
width = 205;
}
);
leftKerningGroup = comma;
unicode = 46;
},
{
glyphname = slash;
layers = (
{
hints = (
{
horizontal = 1;
place = (-10,21);
target = up;
type = BottomGhost;
},
{
place = (45,362);
type = Stem;
}
);
layerId = "8E2892BE-3887-47FD-9544-6D763EF7E81E";
shapes = (
{
closed = 1;
nodes = (
(114,-10,o),
(130,-2,o),
(142,16,cs),
(222,135,o),
(308,488,o),
(394,605,cs),
(403,617,o),
(407,629,o),
(407,640,cs),
(407,670,o),
(382,694,o),
(355,694,cs),
(340,694,o),
(325,687,o),
(312,671,cs),
(223,561,o),
(129,193,o),
(56,80,cs),
(48,68,o),
(45,55,o),
(45,43,cs),
(45,13,o),
(72,-10,o),
(99,-10,cs)
);
}
);
width = 441;
}
);
unicode = 47;
},
{
glyphname = zero;
layers = (
{
hints = (
{
horizontal = 1;
place = (-15,110);
type = Stem;
},
{
horizontal = 1;
place = (590,110);
type = Stem;
},
{
place = (30,121);
type = Stem;
},
{
place = (347,121);
type = Stem;
}
);
layerId = "8E2892BE-3887-47FD-9544-6D763EF7E81E";
shapes = (
{
closed = 1;
nodes = (
(389,-15,o),
(468,124,o),
(468,372,cs),
(468,579,o),
(392,700,o),
(259,700,cs),
(111,700,o),
(30,560,o),
(30,313,cs),
(30,95,o),
(101,-15,o),
(245,-15,cs)
);
},
{
closed = 1;
nodes = (
(179,95,o),
(151,153,o),
(151,313,cs),
(151,496,o),
(191,590,o),
(259,590,cs),
(314,590,o),
(347,515,o),
(347,372,cs),
(347,190,o),
(309,95,o),
(245,95,cs)
);
}
);
width = 498;
}
);
unicode = 48;
},
{
glyphname = one;
layers = (
{
hints = (
{
horizontal = 1;
place = (-12,21);
target = up;
type = BottomGhost;
},
{
place = (160,120);
type = Stem;
}
);
layerId = "8E2892BE-3887-47FD-9544-6D763EF7E81E";
shapes = (
{
closed = 1;
nodes = (
(274,683,o),
(246,704,o),
(217,704,cs),
(192,704,o),
(167,689,o),
(158,657,cs),
(140,594,o),
(106,547,o),
(50,505,cs),
(29,489,o),
(20,470,o),
(20,452,cs),
(20,423,o),
(44,399,o),
(76,399,cs),
(89,399,o),
(103,403,o),
(117,412,cs),
(132,422,o),
(146,435,o),
(160,451,c),
(158,322,o),
(151,168,o),
(140,61,cs),
(135,14,o),
(167,-12,o),
(200,-12,cs),
(227,-12,o),
(254,6,o),
(259,45,cs),
(274,161,o),
(280,325,o),
(280,465,cs),
(280,533,o),
(279,595,o),
(276,644,cs)
);
}
);
width = 350;
}
);
unicode = 49;
},
{
glyphname = two;
layers = (
{
hints = (
{
horizontal = 1;
place = (-11,110);
type = Stem;
},
{
horizontal = 1;
place = (-6,21);
target = up;
type = BottomGhost;
},
{
horizontal = 1;
place = (591,110);
type = Stem;
},
{
place = (40,118);
type = Stem;
},
{
place = (276,121);
type = Stem;
}
);
layerId = "8E2892BE-3887-47FD-9544-6D763EF7E81E";
shapes = (
{
closed = 1;
nodes = (
(56,119,o),
(20,107,o),
(20,59,cs),
(20,25,o),
(45,-6,o),
(80,-6,cs),
(113,-6,o),
(134,25,o),
(163,25,cs),
(182,25,o),
(243,-11,o),
(325,-11,cs),
(419,-11,o),
(489,76,o),
(489,163,cs),
(489,199,o),
(461,220,o),
(432,220,cs),
(408,220,o),
(382,204,o),
(374,169,cs),
(363,121,o),
(342,99,o),
(305,99,cs),
(286,99,o),
(259,104,o),
(234,114,c),
(332,226,o),
(397,388,o),
(397,505,cs),
(397,630,o),
(332,701,o),
(219,701,cs),
(110,701,o),
(40,620,o),
(40,493,cs),
(40,449,o),
(71,426,o),
(100,426,cs),
(116,426,o),
(132,433,o),
(143,446,cs),
(152,457,o),
(158,473,o),
(158,493,cs),
(158,557,o),
(181,591,o),
(219,591,cs),
(255,591,o),
(276,562,o),
(276,504,cs),
(276,378,o),
(179,199,o),
(118,159,cs)
);
}
);
width = 509;
}
);
unicode = 50;
},
{
glyphname = three;
layers = (
{
hints = (
{
horizontal = 1;
place = (-16,110);
type = Stem;
},
{
horizontal = 1;
place = (592,109);
type = Stem;
},
{
place = (40,114);
type = Stem;
},
{
place = (270,120);
type = Stem;
},
{
place = (317,120);
type = Stem;
}
);
layerId = "8E2892BE-3887-47FD-9544-6D763EF7E81E";
shapes = (
{
closed = 1;
nodes = (
(362,431,o),
(390,481,o),
(390,536,cs),
(390,646,o),
(305,701,o),
(219,701,cs),
(130,701,o),
(40,644,o),
(40,532,cs),
(40,482,o),
(57,433,o),
(104,433,cs),
(132,433,o),
(160,453,o),
(160,486,cs),
(160,496,o),
(154,512,o),
(154,529,cs),
(154,569,o),
(186,592,o),
(216,592,cs),
(243,592,o),
(270,573,o),
(270,531,cs),
(270,482,o),
(246,444,o),
(194,424,cs),
(165,413,o),
(152,390,o),
(152,367,cs),
(152,338,o),
(173,310,o),
(211,310,cs),
(283,310,o),
(317,276,o),
(317,211,cs),
(317,139,o),
(275,94,o),
(213,94,cs),
(170,94,o),
(140,119,o),
(119,164,cs),
(107,190,o),
(86,202,o),
(66,202,cs),
(38,202,o),
(10,180,o),
(10,144,cs),
(10,105,o),
(37,61,o),
(76,28,cs),
(112,-2,o),
(162,-16,o),
(213,-16,cs),
(343,-16,o),
(437,78,o),
(437,207,cs),
(437,293,o),
(392,360,o),
(316,393,c)
);
}
);
width = 477;
}
);
unicode = 51;
},
{
glyphname = four;
layers = (
{
hints = (
{
horizontal = 1;
place = (-14,21);
target = up;
type = BottomGhost;
},
{
horizontal = 1;
place = (237,109);
type = Stem;
},
{
place = (100,120);
type = Stem;
},
{
place = (261,120);
type = Stem;
}
);
layerId = "8E2892BE-3887-47FD-9544-6D763EF7E81E";
shapes = (
{
closed = 1;
nodes = (
(436,281,o),
(417,291,o),
(396,300,c),
(398,312,o),
(399,323,o),
(400,334,cs),
(411,435,o),
(425,515,o),
(425,536,cs),
(425,576,o),
(396,599,o),
(366,599,cs),
(339,599,o),
(311,580,o),
(305,540,cs),
(296,481,o),
(287,411,o),
(279,340,c),
(261,344,o),
(245,346,o),
(233,346,cs),
(204,346,o),
(187,345,o),
(179,343,c),
(204,410,o),
(220,497,o),
(220,588,cs),
(220,606,o),
(219,623,o),
(218,640,cs),
(215,683,o),
(186,704,o),
(158,704,cs),
(126,704,o),
(93,678,o),
(98,630,cs),
(100,611,o),
(100,592,o),
(100,573,cs),
(100,483,o),
(85,397,o),
(63,362,cs),
(41,327,o),
(10,310,o),
(10,274,cs),
(10,241,o),
(38,211,o),
(73,211,cs),
(100,211,o),
(127,237,o),
(190,237,cs),
(215,237,o),
(242,234,o),
(269,228,c),
(264,165,o),
(261,105,o),
(261,54,cs),
(261,9,o),
(291,-14,o),
(321,-14,cs),
(351,-14,o),
(381,9,o),
(381,54,cs),
(381,96,o),
(383,140,o),
(386,183,c),
(393,179,ls),
(405,172,o),
(417,169,o),
(427,169,cs),
(458,169,o),
(481,194,o),
(481,222,cs),
(481,239,o),
(473,257,o),
(453,270,cs)
);
}
);
width = 501;
}
);
unicode = 52;
},
{
glyphname = five;
layers = (
{
hints = (
{
horizontal = 1;
place = (-15,110);
type = Stem;
},
{
horizontal = 1;
place = (391,104);
type = Stem;
},
{
horizontal = 1;
place = (567,111);
type = Stem;
},
{
place = (331,120);
type = Stem;
}
);
layerId = "8E2892BE-3887-47FD-9544-6D763EF7E81E";
shapes = (
{
closed = 1;
nodes = (
(353,-15,o),
(451,101,o),
(451,272,cs),
(451,403,o),
(365,495,o),
(259,495,cs),
(238,495,o),
(204,486,o),
(192,480,c),
(198,507,o),
(203,536,o),
(206,553,cs),
(208,563,o),
(211,567,o),
(221,567,cs),
(265,567,o),
(344,572,o),
(398,610,cs),
(420,626,o),
(429,645,o),
(429,664,cs),
(429,693,o),
(406,718,o),
(375,718,cs),
(363,718,o),
(350,714,o),
(337,706,cs),
(292,678,o),
(251,678,o),
(165,678,cs),
(121,678,o),
(94,653,o),
(91,610,cs),
(89,576,o),
(83,502,o),
(62,434,cs),
(59,425,o),
(58,417,o),
(58,410,cs),
(58,381,o),
(78,362,o),
(107,362,cs),
(145,362,o),
(171,391,o),
(231,391,cs),
(296,391,o),
(331,347,o),
(331,269,cs),
(331,148,o),
(273,95,o),
(219,95,cs),
(181,95,o),
(149,121,o),
(138,182,cs),
(131,220,o),
(105,238,o),
(79,238,cs),
(49,238,o),
(20,215,o),
(20,175,cs),
(20,79,o),
(96,-15,o),
(211,-15,cs)
);
}
);
width = 491;
}
);
unicode = 53;
},
{
glyphname = six;
layers = (
{
hints = (
{
horizontal = 1;
place = (-13,110);
type = Stem;
},
{
horizontal = 1;
place = (342,110);
type = Stem;
},
{
horizontal = 1;
place = (424,-20);
target = down;
type = TopGhost;
},
{
horizontal = 1;
place = (591,110);
type = Stem;
},
{
place = (0,186);
type = Stem;
},
{
place = (378,120);
type = Stem;
}
);
layerId = "8E2892BE-3887-47FD-9544-6D763EF7E81E";
shapes = (
{
closed = 1;
nodes = (
(274,452,o),
(237,442,o),
(200,424,c),
(224,536,o),
(277,591,o),
(327,591,cs),
(353,591,o),
(371,579,o),
(389,548,cs),
(404,522,o),
(426,511,o),
(446,511,cs),
(474,511,o),
(499,533,o),
(499,565,cs),
(499,576,o),
(496,588,o),
(490,601,cs),
(461,665,o),
(399,701,o),
(327,701,cs),
(178,701,o),
(80,557,o),
(68,331,c),
(48,310,o),
(29,288,o),
(15,266,cs),
(4,249,o),
(0,232,o),
(0,218,cs),
(0,187,o),
(20,165,o),
(46,165,cs),
(56,165,o),
(66,168,o),
(76,176,c),
(100,54,o),
(168,-13,o),
(274,-13,cs),
(398,-13,o),
(498,100,o),
(498,241,cs),
(498,368,o),
(422,452,o),
(306,452,cs)
);
},
{
closed = 1;
nodes = (
(216,97,o),
(186,155,o),
(186,283,cs),
(186,299,l),
(226,329,o),
(266,342,o),
(305,342,cs),
(348,342,o),
(378,315,o),
(378,246,cs),
(378,159,o),
(333,97,o),
(275,97,cs)
);
}
);
width = 539;
}
);
unicode = 54;
},
{
glyphname = seven;
layers = (
{
hints = (
{
horizontal = 1;
place = (-14,21);
target = up;
type = BottomGhost;
},
{
horizontal = 1;
place = (226,109);
type = Stem;
},
{
horizontal = 1;
place = (234,111);
type = Stem;
},
{
horizontal = 1;
place = (565,102);
type = Stem;
},
{
horizontal = 1;
place = (586,116);
type = Stem;
},
{
place = (20,443);
type = Stem;
}
);
layerId = "8E2892BE-3887-47FD-9544-6D763EF7E81E";
shapes = (
{
closed = 1;
nodes = (
(370,684,o),
(368,667,o),
(328,667,cs),
(265,667,o),
(205,702,o),
(142,702,cs),
(71,702,o),
(20,638,o),
(20,585,cs),
(20,551,o),
(44,528,o),
(78,528,cs),
(98,528,o),
(119,538,o),
(131,563,cs),
(140,581,o),
(143,586,o),
(152,586,cs),
(170,586,o),
(234,565,o),
(266,565,c),
(232,497,o),
(206,419,o),
(187,343,c),
(171,344,o),
(154,345,o),
(136,345,cs),
(93,345,o),
(72,317,o),
(72,290,cs),
(72,262,o),
(93,234,o),
(136,234,cs),
(163,234,l),
(148,151,o),
(142,82,o),
(142,49,cs),
(142,7,o),
(170,-14,o),
(202,-14,cs),
(230,-14,o),
(259,7,o),
(262,50,cs),
(266,108,o),
(273,169,o),
(284,227,c),
(303,227,o),
(324,226,o),
(346,226,cs),
(383,226,o),
(402,253,o),
(402,281,cs),
(402,308,o),
(383,335,o),
(346,335,cs),
(332,335,o),
(319,335,o),
(307,336,c),
(328,414,o),
(354,484,o),
(385,534,cs),
(393,547,o),
(396,553,o),
(410,558,cs),
(447,571,o),
(463,599,o),
(463,625,cs),
(463,657,o),
(440,684,o),
(404,684,cs)
);
}
);
width = 472;
}
);
unicode = 55;
},
{
glyphname = eight;
layers = (
{
hints = (
{
horizontal = 1;
place = (-17,110);
type = Stem;
},
{
horizontal = 1;
place = (593,110);
type = Stem;
},
{
place = (20,120);
type = Stem;
},
{
place = (58,120);
type = Stem;
},
{
place = (275,120);
type = Stem;
},
{
place = (308,120);
type = Stem;
}
);
layerId = "8E2892BE-3887-47FD-9544-6D763EF7E81E";
shapes = (
{
closed = 1;
nodes = (
(356,422,o),
(395,471,o),
(395,541,cs),
(395,635,o),
(324,703,o),
(227,703,cs),
(129,703,o),
(58,635,o),
(58,540,cs),
(58,476,o),
(95,428,o),
(141,385,c),
(80,335,o),
(20,275,o),
(20,184,cs),
(20,68,o),
(108,-17,o),
(227,-17,cs),
(343,-17,o),
(428,67,o),
(428,183,cs),
(428,270,o),
(370,330,o),
(309,381,c)
);
},
{
closed = 1;
nodes = (
(178,575,o),
(202,593,o),
(226,593,cs),
(251,593,o),
(275,575,o),
(275,540,cs),
(275,508,o),
(254,480,o),
(225,453,c),
(197,481,o),
(178,508,o),
(178,540,cs)
);
},
{
closed = 1;
nodes = (
(182,93,o),
(140,125,o),
(140,184,cs),
(140,238,o),
(178,277,o),
(224,314,c),
(270,274,o),
(308,234,o),
(308,183,cs),
(308,122,o),
(266,93,o),
(224,93,cs)
);
}
);
width = 458;
}
);
unicode = 56;
},
{
glyphname = nine;
layers = (
{
hints = (
{
horizontal = 1;
place = (-15,21);
target = up;
type = BottomGhost;
},
{
horizontal = 1;
place = (244,110);
type = Stem;
},
{
horizontal = 1;
place = (594,110);
type = Stem;
},
{
place = (30,120);
type = Stem;
},
{
place = (333,119);
type = Stem;
}
);
layerId = "8E2892BE-3887-47FD-9544-6D763EF7E81E";
shapes = (
{
closed = 1;
nodes = (
(119,704,o),
(30,604,o),
(30,464,cs),
(30,336,o),
(110,244,o),
(215,244,cs),
(250,244,o),
(283,256,o),
(312,276,c),
(283,178,o),
(226,123,o),
(143,102,cs),
(107,93,o),
(91,67,o),
(91,41,cs),
(91,13,o),
(112,-15,o),
(147,-15,cs),
(178,-15,o),
(223,2,o),
(252,18,cs),
(377,87,o),
(452,231,o),
(452,430,cs),
(452,612,o),
(377,704,o),
(243,704,cs)
);
},
{
closed = 1;
nodes = (
(182,354,o),
(150,395,o),
(150,464,cs),
(150,546,o),
(186,594,o),
(241,594,cs),
(297,594,o),
(331,547,o),
(333,461,c),
(330,396,o),
(285,354,o),
(231,354,cs)
);
}
);
width = 472;
}
);
unicode = 57;
},
{
glyphname = colon;
layers = (
{
hints = (
{
horizontal = 1;
place = (-20,145);
type = Stem;
},
{
horizontal = 1;
place = (250,145);
type = Stem;
},
{
place = (30,145);
type = Stem;
}
);
layerId = "8E2892BE-3887-47FD-9544-6D763EF7E81E";
shapes = (
{
closed = 1;
nodes = (
(143,250,o),
(175,282,o),
(175,323,cs),
(175,363,o),
(143,395,o),
(103,395,cs),
(62,395,o),
(30,363,o),
(30,323,cs),
(30,282,o),
(62,250,o),
(103,250,cs)
);
},
{
closed = 1;
nodes = (
(143,-20,o),
(175,12,o),
(175,53,cs),
(175,93,o),
(143,125,o),
(103,125,cs),
(62,125,o),
(30,93,o),
(30,53,cs),
(30,12,o),
(62,-20,o),
(103,-20,cs)
);
}
);
width = 205;
}
);
leftKerningGroup = colon;
unicode = 58;
},
{
glyphname = semicolon;
layers = (
{
hints = (
{
horizontal = 1;
place = (250,145);
type = Stem;
},
{
place = (34,147);
type = Stem;
}
);
layerId = "8E2892BE-3887-47FD-9544-6D763EF7E81E";
shapes = (
{
closed = 1;
nodes = (
(147,250,o),
(179,282,o),
(179,323,cs),
(179,363,o),
(147,395,o),
(107,395,cs),
(66,395,o),
(34,363,o),
(34,323,cs),
(34,282,o),
(66,250,o),
(107,250,cs)
);
},
{
closed = 1;
nodes = (
(59,-144,o),
(72,-140,o),
(86,-132,cs),
(134,-104,o),
(181,-32,o),
(181,36,cs),
(181,99,o),
(142,125,o),
(104,125,cs),
(69,125,o),
(34,99,o),
(34,56,cs),
(34,20,o),
(60,13,o),
(60,-12,cs),
(60,-41,o),
(24,-67,o),
(11,-90,cs),
(7,-97,o),
(5,-104,o),
(5,-110,cs),
(5,-129,o),
(21,-144,o),
(46,-144,cs)
);
}
);
width = 211;
}
);
leftKerningGroup = colon;
unicode = 59;
},
{
glyphname = less;
layers = (
{
hints = (
{
horizontal = 1;
place = (156,363);
type = Stem;
},
{
place = (30,256);
type = Stem;
}
);
layerId = "8E2892BE-3887-47FD-9544-6D763EF7E81E";
shapes = (
{
closed = 1;
nodes = (
(188,172,ls),
(201,160,o),
(215,156,o),
(228,156,cs),
(259,156,o),
(286,183,o),
(286,213,cs),
(286,228,o),
(280,243,o),
(265,257,cs),
(193,322,ls),
(188,327,o),
(186,332,o),
(186,337,cs),
(186,342,o),
(188,348,o),
(193,352,cs),
(266,417,ls),
(280,430,o),
(286,446,o),
(286,460,cs),
(286,491,o),
(260,519,o),
(229,519,cs),
(215,519,o),
(201,514,o),
(188,502,cs),
(56,383,ls),
(39,368,o),
(30,352,o),
(30,336,cs),
(30,322,o),
(38,307,o),
(54,292,cs)
);
}
);
width = 316;
}
);
unicode = 60;
},
{
glyphname = equal;
layers = (
{
hints = (
{
horizontal = 1;
place = (201,108);
type = Stem;
},
{
horizontal = 1;
place = (351,108);
type = Stem;
},
{
place = (104,357);
type = Stem;
}
);
layerId = "8E2892BE-3887-47FD-9544-6D763EF7E81E";
shapes = (
{
closed = 1;
nodes = (
(401,351,l),
(441,351,o),
(461,378,o),
(461,405,cs),
(461,432,o),
(441,459,o),
(401,459,c),
(161,460,l),
(123,460,o),
(104,433,o),
(104,406,cs),
(104,379,o),
(123,352,o),
(161,352,c)
);
},
{
closed = 1;
nodes = (
(401,201,l),
(441,201,o),
(461,228,o),
(461,255,cs),
(461,282,o),
(441,309,o),
(401,309,c),
(161,310,l),
(123,310,o),
(104,283,o),
(104,256,cs),
(104,229,o),
(123,202,o),
(161,202,c)
);
}
);
width = 523;
}
);
unicode = 61;
},
{
glyphname = greater;
layers = (
{
hints = (
{
horizontal = 1;
place = (156,363);
type = Stem;
},
{
place = (30,256);
type = Stem;
}
);
layerId = "8E2892BE-3887-47FD-9544-6D763EF7E81E";
shapes = (
{
closed = 1;
nodes = (
(262,292,ls),
(278,307,o),
(286,322,o),
(286,336,cs),
(286,352,o),
(277,368,o),
(260,383,cs),
(128,502,ls),
(115,514,o),
(101,519,o),
(88,519,cs),
(57,519,o),
(30,491,o),
(30,460,cs),
(30,446,o),
(36,430,o),
(50,417,cs),
(123,352,ls),
(128,348,o),
(131,342,o),
(131,337,cs),
(131,332,o),
(128,327,o),
(123,322,cs),
(51,257,ls),
(36,243,o),
(30,228,o),
(30,213,cs),
(30,183,o),
(57,156,o),
(88,156,cs),
(101,156,o),
(115,160,o),
(128,172,cs)
);
}
);
width = 316;
}
);
unicode = 62;
},
{
glyphname = question;
layers = (
{
hints = (
{
horizontal = 1;
place = (-18,145);
type = Stem;
},
{
horizontal = 1;
place = (630,110);
type = Stem;
},
{
place = (40,120);
type = Stem;
},
{
place = (124,145);
type = Stem;
},
{
place = (138,118);
type = Stem;
},
{
place = (293,121);
type = Stem;
}
);
layerId = "8E2892BE-3887-47FD-9544-6D763EF7E81E";
shapes = (
{
closed = 1;
nodes = (
(227,165,o),
(256,188,o),
(256,232,cs),
(256,307,o),
(286,332,o),
(321,369,cs),
(371,421,o),
(414,469,o),
(414,563,cs),
(414,665,o),
(333,740,o),
(225,740,cs),
(117,740,o),
(40,668,o),
(40,565,cs),
(40,517,o),
(56,470,o),
(106,470,cs),
(136,470,o),
(165,490,o),
(165,526,cs),
(165,533,o),
(160,553,o),
(160,565,cs),
(160,608,o),
(192,630,o),
(225,630,cs),
(259,630,o),
(293,606,o),
(293,557,cs),
(293,519,o),
(276,486,o),
(237,450,cs),
(199,415,o),
(138,362,o),
(138,232,cs),
(138,188,o),
(168,165,o),
(197,165,cs)
);
},
{
closed = 1;
nodes = (
(237,-18,o),
(269,14,o),
(269,55,cs),
(269,95,o),
(237,127,o),
(197,127,cs),
(156,127,o),
(124,95,o),
(124,55,cs),
(124,14,o),
(156,-18,o),
(197,-18,cs)
);
}
);
width = 454;
}
);
unicode = 63;
},
{
glyphname = at;
layers = (
{
hints = (
{
horizontal = 1;
place = (-181,108);
type = Stem;
},
{
horizontal = 1;
place = (-13,105);
type = Stem;
},
{
horizontal = 1;
place = (-9,105);
type = Stem;
},
{
horizontal = 1;
place = (292,105);
type = Stem;
},
{
horizontal = 1;
place = (462,108);
type = Stem;
},
{
place = (30,120);
type = Stem;
},
{
place = (222,120);
type = Stem;
},
{
place = (460,122);
type = Stem;
},
{
place = (649,119);
type = Stem;
}
);
layerId = "8E2892BE-3887-47FD-9544-6D763EF7E81E";
shapes = (
{
closed = 1;
nodes = (
(201,570,o),
(30,399,o),
(30,148,cs),
(30,-51,o),
(158,-181,o),
(358,-181,cs),
(419,-181,o),
(479,-171,o),
(530,-152,cs),
(558,-141,o),
(570,-121,o),
(570,-100,cs),
(570,-73,o),
(548,-46,o),
(515,-46,cs),
(494,-46,o),
(447,-73,o),
(358,-73,cs),
(222,-73,o),
(150,13,o),
(150,162,cs),
(150,343,o),
(273,462,o),
(454,462,cs),
(580,462,o),
(649,397,o),
(649,279,cs),
(649,179,o),
(610,96,o),
(586,96,cs),
(577,96,o),
(571,102,o),
(571,141,c),
(570,238,o),
(582,329,o),
(582,341,cs),
(582,379,o),
(553,400,o),
(523,400,cs),
(507,400,o),
(490,393,o),
(479,379,c),
(461,390,o),
(441,397,o),
(418,397,cs),
(309,397,o),
(222,289,o),
(222,156,cs),
(222,54,o),
(279,-13,o),
(367,-13,cs),
(415,-13,o),
(453,11,o),
(480,51,c),
(501,12,o),
(534,-9,o),
(574,-9,cs),
(679,-9,o),
(768,115,o),
(768,279,cs),
(768,454,o),
(644,570,o),
(454,570,cs)
);
},
{
closed = 1;
nodes = (
(354,92,o),
(342,112,o),
(342,157,cs),
(342,225,o),
(381,292,o),
(425,292,cs),
(448,292,o),
(458,279,o),
(462,268,c),
(461,256,o),
(460,244,o),
(460,232,c),
(455,155,o),
(414,92,o),
(373,92,cs)
);
}
);
width = 798;
}
);
unicode = 64;
},
{
glyphname = A;
layers = (
{
anchors = (
{
name = t.uni0302_2;
position = "{650, 710}";
}
);
hints = (
{
horizontal = 1;
place = (-16,107);
type = Stem;
},
{
horizontal = 1;
place = (-12,105);
type = Stem;
},
{
horizontal = 1;
place = (247,106);
type = Stem;
},
{
horizontal = 1;
place = (623,117);
type = Stem;
},
{
place = (548,123);
type = Stem;
}
);
layerId = "8E2892BE-3887-47FD-9544-6D763EF7E81E";
shapes = (
{
closed = 1;
nodes = (
(798,175,o),
(747,93,o),
(710,93,cs),
(689,93,o),
(671,111,o),
(671,150,cs),
(671,347,o),
(733,598,o),
(733,671,cs),
(733,714,o),
(708,740,o),
(654,740,cs),
(543,740,o),
(493,656,o),
(374,374,cs),
(365,354,l),
(338,353,o),
(310,353,o),
(282,353,cs),
(240,353,o),
(218,327,o),
(218,301,cs),
(218,274,o),
(241,247,o),
(289,247,cs),
(314,247,l),
(258,146,o),
(207,91,o),
(171,91,cs),
(134,91,o),
(118,130,o),
(83,130,cs),
(52,130,o),
(28,106,o),
(28,73,cs),
(28,28,o),
(87,-16,o),
(171,-16,cs),
(277,-16,o),
(362,59,o),
(451,253,c),
(485,255,o),
(519,258,o),
(551,262,c),
(549,237,o),
(548,212,o),
(548,188,cs),
(548,49,o),
(610,-12,o),
(699,-12,cs),
(793,-12,o),
(861,65,o),
(919,236,cs),
(922,245,o),
(924,254,o),
(924,261,cs),
(924,292,o),
(901,309,o),
(878,309,cs),
(859,309,o),
(839,297,o),
(830,271,cs)
);
},
{
closed = 1;
nodes = (
(552,502,o),
(597,623,o),
(610,623,cs),
(621,623,o),
(587,506,o),
(565,371,c),
(543,367,o),
(520,364,o),
(497,362,c)
);
}
);
width = 841;
}
);
leftKerningGroup = A2;
rightKerningGroup = A;
unicode = 65;
},
{
glyphname = B;
layers = (
{
hints = (
{
horizontal = 1;
place = (-15,90);
type = Stem;
},
{
horizontal = 1;
place = (-15,105);
type = Stem;
},
{
horizontal = 1;
place = (121,89);
type = Stem;
},
{
horizontal = 1;
place = (424,-20);
target = down;
type = TopGhost;
},
{
horizontal = 1;
place = (656,103);
type = Stem;
},
{
place = (18,97);
type = Stem;
},
{
place = (70,124);
type = Stem;
},
{
place = (258,122);
type = Stem;
},
{
place = (495,124);
type = Stem;
},
{
place = (558,124);
type = Stem;
}
);
layerId = "8E2892BE-3887-47FD-9544-6D763EF7E81E";
shapes = (
{
closed = 1;
nodes = (
(592,432,o),
(619,487,o),
(619,545,cs),
(619,648,o),
(534,759,o),
(370,759,cs),
(196,759,o),
(70,649,o),
(70,495,cs),
(70,417,o),
(117,339,o),
(170,339,cs),
(203,339,o),
(229,364,o),
(229,397,cs),
(229,426,o),
(194,460,o),
(194,495,cs),
(194,602,o),
(285,656,o),
(366,656,cs),
(453,656,o),
(495,600,o),
(495,535,cs),
(495,492,o),
(467,450,o),
(411,439,cs),
(399,437,o),
(388,432,o),
(380,424,c),
(379,475,o),
(376,515,o),
(369,549,cs),
(362,583,o),
(340,605,o),
(310,605,cs),
(275,605,o),
(248,577,o),
(248,541,cs),
(248,520,o),
(258,436,o),
(258,400,cs),
(258,313,o),
(250,242,o),
(236,189,c),
(208,201,o),
(180,210,o),
(152,210,cs),
(63,210,o),
(18,154,o),
(18,98,cs),
(18,42,o),
(63,-15,o),
(158,-15,cs),
(215,-15,o),
(260,4,o),
(295,43,c),
(345,12,o),
(401,-15,o),
(461,-15,cs),
(595,-15,o),
(682,99,o),
(682,210,cs),
(682,288,o),
(639,367,o),
(536,401,c)
);
},
{
closed = 1;
nodes = (
(419,90,o),
(382,108,o),
(344,129,c),
(364,184,o),
(375,254,o),
(379,339,c),
(388,331,o),
(401,326,o),
(416,326,cs),
(519,326,o),
(558,269,o),
(558,212,cs),
(558,146,o),
(519,90,o),
(452,90,cs)
);
},
{
closed = 1;
nodes = (
(124,75,o),
(115,84,o),
(115,98,cs),
(115,111,o),
(124,121,o),
(145,121,cs),
(160,121,o),
(178,114,o),
(198,103,c),
(182,85,o),
(165,75,o),
(145,75,cs)
);
}
);
width = 692;
}
);
leftKerningGroup = B2;
rightKerningGroup = B;
unicode = 66;
},
{
glyphname = C;
layers = (
{
anchors = (
{
name = t.uni0302_2;
position = "{425, 710}";
},
{
name = b.uni0326_1_2;
position = "{349, 10}";
}
);
hints = (
{
horizontal = 1;
place = (-17,104);
type = Stem;
},
{
horizontal = 1;
place = (636,103);
type = Stem;
},
{
place = (73,124);
type = Stem;
},
{
place = (453,123);
type = Stem;
}
);
layerId = "8E2892BE-3887-47FD-9544-6D763EF7E81E";
shapes = (
{
closed = 1;
nodes = (
(488,-17,o),
(609,62,o),
(669,236,cs),
(672,245,o),
(674,254,o),
(674,261,cs),
(674,291,o),
(651,308,o),
(628,308,cs),
(609,308,o),
(589,297,o),
(580,271,cs),
(538,148,o),
(455,87,o),
(361,87,cs),
(274,87,o),
(197,152,o),
(197,279,cs),
(197,461,o),
(307,636,o),
(411,636,cs),
(438,636,o),
(453,621,o),
(453,589,cs),
(453,553,o),
(431,527,o),
(431,497,cs),
(431,461,o),
(459,437,o),
(489,437,cs),
(512,437,o),
(536,450,o),
(551,481,cs),
(567,514,o),
(576,554,o),
(576,591,cs),
(576,675,o),
(511,739,o),
(420,739,cs),
(235,739,o),
(73,526,o),
(73,279,cs),
(73,90,o),
(208,-17,o),
(353,-17,cs)
);
}
);
width = 591;
}
);
leftKerningGroup = C;
rightKerningGroup = A;
unicode = 67;
},
{
glyphname = D;
layers = (
{
anchors = (
{
name = t.uni0302_2;
position = "{460, 710}";
}
);
hints = (
{
horizontal = 1;
place = (-18,115);
type = Stem;
},
{
horizontal = 1;
place = (-15,99);
type = Stem;
},
{
horizontal = 1;
place = (124,94);
type = Stem;
},
{
horizontal = 1;
place = (372,104);
type = Stem;
},
{
horizontal = 1;
place = (629,115);
type = Stem;
},
{
place = (64,110);
type = Stem;
},
{
place = (141,124);
type = Stem;
},
{
place = (327,122);
type = Stem;
},
{
place = (328,124);
type = Stem;
},
{
place = (690,124);
type = Stem;
}
);
layerId = "8E2892BE-3887-47FD-9544-6D763EF7E81E";
shapes = (
{
closed = 1;
nodes = (
(267,744,o),
(141,657,o),
(141,526,cs),
(141,432,o),
(214,372,o),
(326,372,cs),
(328,372,l),
(325,302,o),
(314,241,o),
(298,194,c),
(269,208,o),
(239,218,o),
(206,218,cs),
(111,218,o),
(64,159,o),
(64,100,cs),
(64,42,o),
(110,-15,o),
(201,-15,cs),
(258,-15,o),
(306,5,o),
(345,43,c),
(396,12,o),
(457,-18,o),
(524,-18,cs),
(672,-18,o),
(814,121,o),
(814,372,cs),
(814,605,o),
(675,744,o),
(447,744,cs)
);
},
{
closed = 1;
nodes = (
(466,97,o),
(435,112,o),
(403,131,c),
(432,198,o),
(449,286,o),
(452,392,c),
(469,398,o),
(485,404,o),
(500,412,cs),
(525,425,o),
(537,446,o),
(537,464,cs),
(537,489,o),
(517,510,o),
(482,510,cs),
(473,510,o),
(463,508,o),
(451,504,c),
(448,535,l),
(443,572,o),
(415,591,o),
(387,591,cs),
(357,591,o),
(327,569,o),
(327,527,cs),
(327,510,o),
(329,494,o),
(329,476,c),
(326,476,ls),
(285,476,o),
(265,495,o),
(265,527,cs),
(265,586,o),
(333,629,o),
(447,629,cs),
(607,629,o),
(690,544,o),
(690,372,cs),
(690,200,o),
(616,97,o),
(498,97,cs)
);
},
{
closed = 1;
nodes = (
(174,114,o),
(184,124,o),
(202,124,cs),
(215,124,o),
(232,117,o),
(250,106,c),
(236,92,o),
(219,84,o),
(202,84,cs),
(184,84,o),
(174,94,o),
(174,104,cs)
);
}
);
width = 812;
}
);
leftKerningGroup = D2;
rightKerningGroup = D;
unicode = 68;
},
{
glyphname = E;
layers = (
{
anchors = (
{
name = t.uni0302_2;
position = "{323, 710}";
}
);
hints = (
{
horizontal = 1;
place = (-25,105);
type = Stem;
},
{
horizontal = 1;
place = (346,104);
type = Stem;
},
{
horizontal = 1;
place = (641,103);
type = Stem;
},
{
place = (79,124);
type = Stem;
},
{
place = (131,124);
type = Stem;
},
{
place = (393,120);
type = Stem;
}
);
layerId = "8E2892BE-3887-47FD-9544-6D763EF7E81E";
shapes = (
{
closed = 1;
nodes = (
(490,152,o),
(414,80,o),
(326,80,cs),
(244,80,o),
(203,140,o),
(203,203,cs),
(203,272,o),
(253,346,o),
(356,346,cs),
(396,346,o),
(415,372,o),
(415,398,cs),
(415,424,o),
(395,450,o),
(356,450,cs),
(286,450,o),
(255,494,o),
(255,553,cs),
(255,608,o),
(288,641,o),
(333,641,cs),
(369,641,o),
(393,618,o),
(393,580,cs),
(393,563,o),
(391,551,o),
(391,535,cs),
(391,508,o),
(414,487,o),
(448,487,cs),
(480,487,o),
(513,513,o),
(513,580,cs),
(513,690,o),
(426,744,o),
(332,744,cs),
(214,744,o),
(131,670,o),
(131,560,cs),
(131,494,o),
(167,446,o),
(221,408,c),
(141,374,o),
(79,290,o),
(79,201,cs),
(79,67,o),
(171,-25,o),
(318,-25,cs),
(447,-25,o),
(561,63,o),
(619,236,cs),
(622,246,o),
(624,255,o),
(624,263,cs),
(624,295,o),
(602,315,o),
(579,315,cs),
(560,315,o),
(540,302,o),
(530,271,cs)
);
}
);
width = 541;
}
);
leftKerningGroup = E;
rightKerningGroup = A;
unicode = 69;
},
{
glyphname = F;
layers = (
{
hints = (
{
horizontal = 1;
place = (-11,105);
type = Stem;
},
{
horizontal = 1;
place = (314,107);
type = Stem;
},
{
horizontal = 1;
place = (606,112);
type = Stem;
},
{
horizontal = 1;
place = (633,112);
type = Stem;
},
{
place = (55,124);
type = Stem;
},
{
place = (290,119);
type = Stem;
},
{
place = (315,110);
type = Stem;
}
);
layerId = "8E2892BE-3887-47FD-9544-6D763EF7E81E";
shapes = (
{
closed = 1;
nodes = (
(615,606,o),
(676,638,o),
(676,685,cs),
(676,716,o),
(653,735,o),
(622,735,cs),
(585,735,o),
(567,718,o),
(522,718,cs),
(448,718,o),
(343,745,o),
(256,745,cs),
(134,745,o),
(55,671,o),
(55,573,cs),
(55,483,o),
(132,428,o),
(191,428,cs),
(232,428,o),
(253,449,o),
(253,477,cs),
(253,496,o),
(243,507,o),
(230,516,cs),
(208,531,o),
(179,541,o),
(179,574,cs),
(179,607,o),
(205,633,o),
(258,633,cs),
(274,633,o),
(294,631,o),
(315,629,c),
(309,534,o),
(304,462,o),
(300,411,c),
(267,404,o),
(243,395,o),
(225,383,cs),
(202,368,o),
(192,349,o),
(192,330,cs),
(192,307,o),
(212,287,o),
(245,287,cs),
(259,287,o),
(274,290,o),
(290,295,c),
(276,150,o),
(255,94,o),
(215,94,cs),
(190,94,o),
(172,113,o),
(160,140,cs),
(151,160,o),
(132,171,o),
(114,171,cs),
(88,171,o),
(63,150,o),
(63,103,cs),
(63,46,o),
(120,-11,o),
(211,-11,cs),
(334,-11,o),
(395,90,o),
(409,234,cs),
(412,261,o),
(414,288,o),
(416,314,c),
(421,314,ls),
(442,314,o),
(495,307,o),
(506,307,cs),
(546,307,o),
(569,331,o),
(569,356,cs),
(569,379,o),
(552,402,o),
(516,410,cs),
(485,417,o),
(454,420,o),
(425,421,c),
(431,494,o),
(435,558,o),
(439,613,c),
(472,609,o),
(504,606,o),
(535,606,cs)
);
}
);
width = 566;
}
);
unicode = 70;
},
{
glyphname = G;
layers = (
{
anchors = (
{
name = t.uni0302_2;
position = "{409, 710}";
},
{
name = b.uni0326_1_2;
position = "{323, 10}";
}
);
hints = (
{
horizontal = 1;
place = (-24,105);
type = Stem;
},
{
horizontal = 1;
place = (238,107);
type = Stem;
},
{
horizontal = 1;
place = (423,-20);
target = down;
type = TopGhost;
},
{
horizontal = 1;
place = (636,103);
type = Stem;
},
{
place = (56,124);
type = Stem;
},
{
place = (435,124);
type = Stem;
},
{
place = (447,117);
type = Stem;
}
);
layerId = "8E2892BE-3887-47FD-9544-6D763EF7E81E";
shapes = (
{
closed = 1;
nodes = (
(564,423,o),
(549,416,o),
(538,404,cs),
(494,356,o),
(460,345,o),
(401,345,cs),
(357,345,o),
(335,322,o),
(335,295,cs),
(335,255,o),
(367,238,o),
(418,238,cs),
(427,238,o),
(436,239,o),
(445,240,c),
(446,232,o),
(447,223,o),
(447,214,cs),
(447,127,o),
(401,81,o),
(327,81,cs),
(242,81,o),
(180,143,o),
(180,283,cs),
(180,448,o),
(277,636,o),
(392,636,cs),
(420,636,o),
(435,621,o),
(435,595,cs),
(435,577,o),
(429,559,o),
(424,542,cs),
(420,528,o),
(416,515,o),
(416,502,cs),
(416,466,o),
(439,443,o),
(473,443,cs),
(497,443,o),
(520,461,o),
(536,491,cs),
(550,517,o),
(559,552,o),
(559,591,cs),
(559,677,o),
(495,739,o),
(403,739,cs),
(214,739,o),
(56,526,o),
(56,269,cs),
(56,90,o),
(170,-24,o),
(325,-24,cs),
(466,-24,o),
(564,74,o),
(564,219,cs),
(564,242,o),
(562,262,o),
(559,281,c),
(583,296,o),
(604,315,o),
(616,334,cs),
(625,348,o),
(630,362,o),
(630,376,cs),
(630,399,o),
(607,423,o),
(578,423,cs)
);
}
);
width = 620;
}
);
leftKerningGroup = C;
rightKerningGroup = G;
unicode = 71;
},
{
glyphname = H;
layers = (
{
anchors = (
{
name = t.uni0302_2;
position = "{462, 700}";
},
{
name = b.uni0326_1_2;
position = "{392, 0}";
}
);
hints = (
{
horizontal = 1;
place = (-8,105);
type = Stem;
},
{
horizontal = 1;
place = (-7,105);
type = Stem;
},
{
horizontal = 1;
place = (342,98);
type = Stem;
},
{
horizontal = 1;
place = (349,100);
type = Stem;
},
{
horizontal = 1;
place = (440,-20);
target = down;
type = TopGhost;
},
{
horizontal = 1;
place = (635,106);
type = Stem;
},
{
place = (63,112);
type = Stem;
},
{
place = (294,123);
type = Stem;
},
{
place = (516,124);
type = Stem;
}
);
layerId = "8E2892BE-3887-47FD-9544-6D763EF7E81E";
shapes = (
{
closed = 1;
nodes = (
(739,150,o),
(705,97,o),
(676,97,cs),
(657,97,o),
(640,114,o),
(640,165,cs),
(640,214,o),
(644,278,o),
(649,344,c),
(672,342,l),
(712,342,o),
(735,367,o),
(735,391,cs),
(735,413,o),
(717,435,o),
(679,440,cs),
(657,443,l),
(668,561,o),
(680,666,o),
(680,683,cs),
(680,718,o),
(653,744,o),
(618,744,cs),
(584,744,o),
(559,720,o),
(556,687,cs),
(550,620,o),
(541,533,o),
(534,449,c),
(492,449,o),
(452,446,o),
(413,440,c),
(416,482,o),
(417,526,o),
(417,572,cs),
(417,673,o),
(372,741,o),
(283,741,cs),
(195,741,o),
(118,680,o),
(118,621,cs),
(118,595,o),
(138,575,o),
(166,575,cs),
(205,575,o),
(233,635,o),
(265,635,cs),
(282,635,o),
(294,624,o),
(294,584,cs),
(294,519,o),
(290,461,o),
(286,410,c),
(154,364,o),
(63,276,o),
(63,139,cs),
(63,53,o),
(117,-7,o),
(197,-7,cs),
(309,-7,o),
(378,123,o),
(404,339,c),
(442,345,o),
(483,348,o),
(525,349,c),
(520,281,o),
(516,221,o),
(516,185,cs),
(516,55,o),
(580,-8,o),
(665,-8,cs),
(748,-8,o),
(809,56,o),
(870,236,cs),
(873,246,o),
(875,255,o),
(875,262,cs),
(875,292,o),
(853,308,o),
(831,308,cs),
(811,308,o),
(790,296,o),
(781,271,cs)
);
},
{
closed = 1;
nodes = (
(189,98,o),
(175,114,o),
(175,157,cs),
(175,227,o),
(214,273,o),
(275,303,c),
(257,162,o),
(228,98,o),
(201,98,cs)
);
}
);
width = 792;
}
);
leftKerningGroup = H;
rightKerningGroup = A;
unicode = 72;
},
{
glyphname = I;
layers = (
{
anchors = (
{
name = t.uni0302_2;
position = "{276, 720}";
},
{
name = b.uni0326_1_2;
position = "{224, 0}";
}
);
hints = (
{
horizontal = 1;
place = (-2,105);
type = Stem;
},
{
horizontal = 1;
place = (651,105);
type = Stem;
},
{
place = (56,121);
type = Stem;
},
{
place = (308,124);
type = Stem;
}
);
layerId = "8E2892BE-3887-47FD-9544-6D763EF7E81E";
shapes = (
{
closed = 1;
nodes = (
(308,629,o),
(308,610,o),
(308,592,cs),
(308,251,o),
(274,103,o),
(212,103,cs),
(176,103,o),
(168,135,o),
(129,135,cs),
(99,135,o),
(79,115,o),
(79,81,cs),
(79,40,o),
(122,-2,o),
(217,-2,cs),
(367,-2,o),
(432,147,o),
(432,578,cs),
(432,613,o),
(431,653,o),
(430,694,cs),
(429,724,o),
(410,743,o),
(378,748,cs),
(341,754,o),
(298,756,o),
(254,756,cs),
(134,756,o),
(56,685,o),
(56,593,cs),
(56,513,o),
(128,450,o),
(194,450,cs),
(228,450,o),
(248,470,o),
(248,499,cs),
(248,519,o),
(236,531,o),
(223,541,cs),
(203,556,o),
(177,566,o),
(177,594,cs),
(177,626,o),
(203,651,o),
(256,651,cs),
(275,651,o),
(293,650,o),
(308,649,c)
);
}
);
width = 447;
}
);
leftKerningGroup = I2;
rightKerningGroup = I;
unicode = 73;
},
{
glyphname = J;
layers = (
{
anchors = (
{
name = t.uni0302_2;
position = "{386, 720}";
},
{
name = b.uni0326_1_2;
position = "{296, 0}";
}
);
hints = (
{
horizontal = 1;
place = (-15,105);
type = Stem;
},
{
horizontal = 1;
place = (600,105);
type = Stem;
},
{
horizontal = 1;
place = (641,105);
type = Stem;
},
{
place = (76,124);
type = Stem;
},
{
place = (127,119);
type = Stem;
},
{
place = (379,124);
type = Stem;
}
);
layerId = "8E2892BE-3887-47FD-9544-6D763EF7E81E";
shapes = (
{
closed = 1;
nodes = (
(591,686,o),
(569,709,o),
(540,709,cs),
(528,709,o),
(513,705,o),
(499,705,cs),
(449,705,o),
(368,746,o),
(310,746,cs),
(206,746,o),
(127,670,o),
(127,590,cs),
(127,536,o),
(160,510,o),
(192,510,cs),
(220,510,o),
(246,531,o),
(246,570,cs),
(246,610,o),
(272,641,o),
(321,641,cs),
(341,641,o),
(358,638,o),
(374,633,c),
(377,601,o),
(379,558,o),
(379,507,cs),
(379,213,o),
(341,90,o),
(267,90,cs),
(227,90,o),
(200,130,o),
(200,194,cs),
(200,222,o),
(207,268,o),
(207,295,cs),
(207,336,o),
(184,359,o),
(154,359,cs),
(116,359,o),
(95,330,o),
(85,286,cs),
(79,259,o),
(76,227,o),
(76,192,cs),
(76,68,o),
(151,-15,o),
(262,-15,cs),
(433,-15,o),
(503,120,o),
(503,507,cs),
(503,530,o),
(503,565,o),
(501,600,c),
(554,601,o),
(591,622,o),
(591,657,cs)
);
}
);
width = 591;
}
);
leftKerningGroup = J2;
rightKerningGroup = J;
unicode = 74;
},
{
glyphname = K;
layers = (
{
anchors = (
{
name = t.uni0302_2;
position = "{416, 712}";
},
{
name = b.uni0326_1_2;
position = "{377, 10}";
}
);
hints = (
{
horizontal = 1;
place = (-11,105);
type = Stem;
},
{
horizontal = 1;
place = (-16,21);
target = up;
type = BottomGhost;
},
{
horizontal = 1;
place = (636,106);
type = Stem;
},
{
place = (240,124);
type = Stem;
}
);
layerId = "8E2892BE-3887-47FD-9544-6D763EF7E81E";
shapes = (
{
closed = 1;
nodes = (
(658,165,o),
(620,94,o),
(596,94,cs),
(578,94,o),
(566,115,o),
(543,219,cs),
(530,279,o),
(515,327,o),
(472,364,c),
(579,430,o),
(634,541,o),
(655,624,cs),
(659,640,o),
(661,654,o),
(663,668,cs),
(664,672,o),
(664,676,o),
(664,680,cs),
(664,716,o),
(639,742,o),
(606,742,cs),
(573,742,o),
(546,716,o),
(539,679,cs),
(516,558,o),
(441,447,o),
(353,420,c),
(360,477,o),
(364,531,o),
(364,582,cs),
(364,682,o),
(304,742,o),
(213,742,cs),
(125,742,o),
(39,659,o),
(39,608,cs),
(39,580,o),
(61,558,o),
(89,558,cs),
(138,558,o),
(163,636,o),
(211,636,cs),
(228,636,o),
(240,624,o),
(240,599,cs),
(240,535,o),
(236,473,o),
(229,416,c),
(190,411,o),
(169,389,o),
(169,366,cs),
(169,346,o),
(184,326,o),
(214,315,c),
(189,174,o),
(155,71,o),
(155,45,cs),
(155,10,o),
(183,-16,o),
(221,-16,cs),
(248,-16,o),
(269,1,o),
(276,28,cs),
(299,118,o),
(322,217,o),
(338,314,c),
(344,315,o),
(350,317,o),
(356,318,c),
(386,314,o),
(401,285,o),
(421,195,cs),
(445,85,o),
(473,-11,o),
(593,-11,cs),
(670,-11,o),
(727,62,o),
(787,236,cs),
(790,245,o),
(792,254,o),
(792,262,cs),
(792,292,o),
(770,310,o),
(747,310,cs),
(728,310,o),
(708,298,o),
(698,271,cs)
);
}
);
width = 709;
}
);
leftKerningGroup = K;
rightKerningGroup = A;
unicode = 75;
},
{
glyphname = L;
layers = (
{
anchors = (
{
name = t.uni0302_2;
position = "{393, 710}";
},
{
name = b.uni0326_1_2;
position = "{320, 10}";
}
);
hints = (
{
horizontal = 1;
place = (-10,106);
type = Stem;
},
{
horizontal = 1;
place = (-13,21);
target = up;
type = BottomGhost;
},
{
horizontal = 1;
place = (23,104);
type = Stem;
},
{
horizontal = 1;
place = (636,103);
type = Stem;
},
{
place = (408,109);
type = Stem;
}
);
layerId = "8E2892BE-3887-47FD-9544-6D763EF7E81E";
shapes = (
{
closed = 1;
nodes = (
(517,163,o),
(478,96,o),
(431,96,cs),
(376,96,o),
(317,127,o),
(272,127,cs),
(252,127,o),
(233,125,o),
(218,122,c),
(268,181,o),
(299,294,o),
(317,445,c),
(432,449,o),
(517,525,o),
(517,623,cs),
(517,688,o),
(466,739,o),
(393,739,cs),
(307,739,o),
(247,683,o),
(216,577,c),
(194,596,o),
(178,622,o),
(171,658,cs),
(164,692,o),
(140,707,o),
(116,707,cs),
(89,707,o),
(62,686,o),
(62,647,cs),
(62,572,o),
(114,500,o),
(196,466,c),
(174,251,o),
(145,174,o),
(62,101,cs),
(47,88,o),
(37,68,o),
(37,48,cs),
(37,16,o),
(65,-13,o),
(100,-13,cs),
(110,-13,o),
(121,-10,o),
(134,-4,cs),
(176,15,o),
(205,23,o),
(246,23,cs),
(287,23,o),
(379,-10,o),
(441,-10,cs),
(525,-10,o),
(583,57,o),
(643,236,cs),
(646,246,o),
(648,255,o),
(648,263,cs),
(648,293,o),
(626,311,o),
(603,311,cs),
(584,311,o),
(564,299,o),
(554,271,cs)
);
},
{
closed = 1;
nodes = (
(400,636,o),
(408,627,o),
(408,615,cs),
(408,593,o),
(383,559,o),
(333,550,c),
(345,605,o),
(363,636,o),
(386,636,cs)
);
}
);
width = 565;
}
);
leftKerningGroup = L;
rightKerningGroup = A;
unicode = 76;
},
{
glyphname = M;
layers = (
{
hints = (
{
horizontal = 1;
place = (-9,105);
type = Stem;
},
{
horizontal = 1;
place = (-16,21);
target = up;
type = BottomGhost;
},
{
horizontal = 1;
place = (529,105);
type = Stem;
},
{
horizontal = 1;
place = (640,105);
type = Stem;
},
{
horizontal = 1;
place = (649,105);
type = Stem;
},
{
place = (620,123);
type = Stem;
},
{
place = (941,122);
type = Stem;
},
{
place = (957,124);
type = Stem;
}
);
layerId = "8E2892BE-3887-47FD-9544-6D763EF7E81E";
shapes = (
{
closed = 1;
nodes = (
(1159,170,o),
(1118,96,o),
(1087,96,cs),
(1072,96,o),
(1063,105,o),
(1063,129,cs),
(1063,159,o),
(1081,389,o),
(1081,461,cs),
(1081,561,o),
(1017,634,o),
(930,634,cs),
(853,634,o),
(793,590,o),
(743,509,c),
(737,671,o),
(683,745,o),
(566,745,cs),
(469,745,o),
(394,662,o),
(339,510,c),
(322,679,o),
(268,754,o),
(162,754,cs),
(107,754,o),
(63,729,o),
(30,682,cs),
(18,665,o),
(13,647,o),
(13,630,cs),
(13,599,o),
(34,579,o),
(61,579,cs),
(82,579,o),
(100,593,o),
(114,613,cs),
(133,641,o),
(142,649,o),
(157,649,cs),
(206,649,o),
(233,547,o),
(233,316,cs),
(233,225,o),
(212,98,o),
(212,50,cs),
(212,11,o),
(236,-16,o),
(271,-16,cs),
(304,-16,o),
(329,8,o),
(334,44,cs),
(336,61,o),
(342,109,o),
(347,164,cs),
(374,432,o),
(471,640,o),
(563,640,cs),
(596,640,o),
(620,611,o),
(620,499,cs),
(620,395,o),
(593,230,o),
(579,117,cs),
(578,109,o),
(577,103,o),
(577,99,cs),
(577,64,o),
(604,36,o),
(636,36,cs),
(666,36,o),
(691,58,o),
(698,91,cs),
(707,133,o),
(714,176,o),
(721,219,c),
(760,405,o),
(835,529,o),
(908,529,cs),
(936,529,o),
(957,510,o),
(957,449,cs),
(957,380,o),
(941,210,o),
(941,157,cs),
(941,42,o),
(993,-9,o),
(1073,-9,cs),
(1165,-9,o),
(1222,55,o),
(1282,236,cs),
(1285,246,o),
(1287,255,o),
(1287,263,cs),
(1287,295,o),
(1265,315,o),
(1242,315,cs),
(1223,315,o),
(1203,302,o),
(1193,271,cs)
);
}
);
width = 1204;
}
);
leftKerningGroup = M;
rightKerningGroup = A;
unicode = 77;
},
{
glyphname = N;
layers = (
{
anchors = (
{
name = t.uni0302_2;
position = "{561, 710}";
},
{
name = b.uni0326_1_2;
position = "{491, 10}";
}
);
hints = (
{
horizontal = 1;
place = (-11,105);
type = Stem;
},
{
horizontal = 1;
place = (636,103);
type = Stem;
},
{
horizontal = 1;
place = (646,105);
type = Stem;
},
{
place = (605,124);
type = Stem;
},
{
place = (621,124);
type = Stem;
}
);
layerId = "8E2892BE-3887-47FD-9544-6D763EF7E81E";
shapes = (
{
closed = 1;
nodes = (
(824,178,o),
(784,94,o),
(752,94,cs),
(739,94,o),
(729,104,o),
(729,131,cs),
(729,207,o),
(745,413,o),
(745,501,cs),
(745,666,o),
(680,739,o),
(568,739,cs),
(468,739,o),
(400,660,o),
(347,522,c),
(327,675,o),
(270,751,o),
(165,751,cs),
(111,751,o),
(66,726,o),
(30,674,cs),
(19,658,o),
(13,641,o),
(13,626,cs),
(13,596,o),
(35,579,o),
(59,579,cs),
(75,579,o),
(92,587,o),
(104,603,cs),
(130,638,o),
(142,646,o),
(157,646,cs),
(207,646,o),
(234,551,o),
(234,324,cs),
(234,240,o),
(219,110,o),
(210,59,cs),
(209,55,o),
(209,50,o),
(209,46,cs),
(209,10,o),
(234,-18,o),
(269,-18,cs),
(304,-18,o),
(330,8,o),
(335,47,cs),
(340,85,o),
(346,140,o),
(352,201,cs),
(374,426,o),
(476,636,o),
(562,636,cs),
(606,636,o),
(621,604,o),
(621,532,cs),
(621,449,o),
(605,198,o),
(605,160,cs),
(605,44,o),
(660,-11,o),
(741,-11,cs),
(830,-11,o),
(888,67,o),
(944,236,cs),
(947,246,o),
(949,255,o),
(949,263,cs),
(949,294,o),
(927,312,o),
(904,312,cs),
(885,312,o),
(865,300,o),
(855,271,cs)
);
}
);
width = 866;
}
);
leftKerningGroup = M;
rightKerningGroup = A;
unicode = 78;
},
{
glyphname = O;
layers = (
{
anchors = (
{
name = t.uni0302_2;
position = "{477, 710}";
}
);
hints = (
{
horizontal = 1;
place = (-20,105);
type = Stem;
},
{
horizontal = 1;
place = (71,94);
type = Stem;
},
{
horizontal = 1;
place = (637,103);
type = Stem;
},
{
place = (88,124);
type = Stem;
},
{
place = (262,108);
type = Stem;
},
{
place = (565,124);
type = Stem;
}
);
layerId = "8E2892BE-3887-47FD-9544-6D763EF7E81E";
shapes = (
{
closed = 1;
nodes = (
(729,211,o),
(690,173,o),
(634,165,c),
(669,238,o),
(689,328,o),
(689,430,cs),
(689,618,o),
(602,740,o),
(475,740,cs),
(438,740,o),
(400,724,o),
(367,695,c),
(358,710,o),
(343,718,o),
(327,718,cs),
(314,718,o),
(300,715,o),
(286,710,cs),
(174,670,o),
(88,496,o),
(88,322,cs),
(88,116,o),
(203,-20,o),
(376,-20,cs),
(453,-20,o),
(521,14,o),
(573,73,c),
(584,72,o),
(595,71,o),
(605,71,cs),
(711,71,o),
(802,126,o),
(839,236,cs),
(842,245,o),
(844,254,o),
(844,262,cs),
(844,292,o),
(822,309,o),
(799,309,cs),
(779,309,o),
(759,297,o),
(750,271,cs)
);
},
{
closed = 1;
nodes = (
(524,637,o),
(565,562,o),
(565,433,cs),
(565,329,o),
(547,246,o),
(517,187,c),
(438,227,o),
(370,317,o),
(370,439,cs),
(370,562,o),
(414,637,o),
(464,637,cs)
);
},
{
closed = 1;
nodes = (
(275,85,o),
(212,169,o),
(212,320,cs),
(212,423,o),
(239,530,o),
(289,582,c),
(272,539,o),
(262,490,o),
(262,436,cs),
(262,271,o),
(347,161,o),
(451,108,c),
(429,93,o),
(404,85,o),
(377,85,cs)
);
}
);
width = 761;
}
);
leftKerningGroup = O;
rightKerningGroup = A;
unicode = 79;
},
{
glyphname = P;
layers = (
{
hints = (
{
horizontal = 1;
place = (188,105);
type = Stem;
},
{
horizontal = 1;
place = (636,103);
type = Stem;
},
{
place = (2,118);
type = Stem;
},
{
place = (128,124);
type = Stem;
},
{
place = (172,124);
type = Stem;
},
{
place = (495,124);
type = Stem;
}
);
layerId = "8E2892BE-3887-47FD-9544-6D763EF7E81E";
shapes = (
{
closed = 1;
nodes = (
(124,739,o),
(2,618,o),
(2,475,cs),
(2,425,o),
(32,400,o),
(61,400,cs),
(91,400,o),
(120,425,o),
(120,475,cs),
(120,567,o),
(192,636,o),
(315,636,cs),
(427,636,o),
(495,570,o),
(495,461,cs),
(495,358,o),
(433,293,o),
(344,293,cs),
(327,293,o),
(308,295,o),
(290,299,c),
(294,332,o),
(296,366,o),
(296,401,cs),
(296,471,o),
(280,547,o),
(217,547,cs),
(188,547,o),
(161,526,o),
(161,486,cs),
(161,467,o),
(172,434,o),
(172,401,cs),
(172,263,o),
(128,139,o),
(128,43,cs),
(128,6,o),
(154,-20,o),
(189,-20,cs),
(225,-20,o),
(252,7,o),
(252,44,cs),
(252,83,o),
(264,137,o),
(276,201,c),
(303,193,o),
(332,188,o),
(362,188,cs),
(504,188,o),
(619,303,o),
(619,461,cs),
(619,623,o),
(497,739,o),
(315,739,cs)
);
}
);
width = 617;
}
);
leftKerningGroup = P2;
rightKerningGroup = P;
unicode = 80;
},
{
glyphname = Q;
layers = (
{
hints = (
{
horizontal = 1;
place = (-26,105);
type = Stem;
},
{
horizontal = 1;
place = (-23,92);
type = Stem;
},
{
horizontal = 1;
place = (138,90);
type = Stem;
},
{
horizontal = 1;
place = (639,103);
type = Stem;
},
{
place = (104,123);
type = Stem;
},
{
place = (158,99);
type = Stem;
},
{
place = (542,124);
type = Stem;
}
);
layerId = "8E2892BE-3887-47FD-9544-6D763EF7E81E";
shapes = (
{
closed = 1;
nodes = (
(722,153,o),
(660,79,o),
(620,79,cs),
(599,79,o),
(574,92,o),
(547,111,c),
(617,193,o),
(666,308,o),
(666,436,cs),
(666,631,o),
(554,742,o),
(400,742,cs),
(225,742,o),
(104,620,o),
(104,426,cs),
(104,372,o),
(111,327,o),
(125,288,cs),
(134,262,o),
(157,245,o),
(183,245,cs),
(216,245,o),
(242,273,o),
(242,308,cs),
(242,324,o),
(227,372,o),
(227,417,cs),
(227,565,o),
(302,639,o),
(394,639,cs),
(479,639,o),
(542,571,o),
(542,441,cs),
(542,347,o),
(508,246,o),
(458,173,c),
(412,203,o),
(360,228,o),
(302,228,cs),
(207,228,o),
(158,164,o),
(158,101,cs),
(158,39,o),
(205,-23,o),
(303,-23,cs),
(358,-23,o),
(416,-1,o),
(470,39,c),
(516,4,o),
(567,-26,o),
(620,-26,cs),
(713,-26,o),
(796,71,o),
(851,236,cs),
(854,246,o),
(856,255,o),
(856,263,cs),
(856,293,o),
(834,311,o),
(811,311,cs),
(792,311,o),
(772,299,o),
(762,271,cs)
);
},
{
closed = 1;
nodes = (
(257,121,o),
(273,138,o),
(305,138,cs),
(331,138,o),
(359,122,o),
(390,100,c),
(363,80,o),
(334,69,o),
(305,69,cs),
(273,69,o),
(257,86,o),
(257,103,cs)
);
}
);
width = 773;
}
);
leftKerningGroup = Q;
rightKerningGroup = A;
unicode = 81;
},
{
glyphname = R;
layers = (
{
anchors = (
{
name = t.uni0302_2;
position = "{330, 710}";
},
{
name = b.uni0326_1_2;
position = "{344, 10}";
}
);
hints = (
{
horizontal = 1;
place = (-9,105);
type = Stem;
},
{
horizontal = 1;
place = (-16,21);
target = up;
type = BottomGhost;
},
{
horizontal = 1;
place = (282,97);
type = Stem;
},
{
horizontal = 1;
place = (642,103);
type = Stem;
},
{
place = (9,124);
type = Stem;
},
{
place = (127,123);
type = Stem;
},
{
place = (172,122);
type = Stem;
},
{
place = (466,124);
type = Stem;
}
);
layerId = "8E2892BE-3887-47FD-9544-6D763EF7E81E";
shapes = (
{
closed = 1;
nodes = (
(629,172,o),
(590,96,o),
(564,96,cs),
(543,96,o),
(523,126,o),
(488,210,cs),
(467,261,o),
(453,282,o),
(432,298,c),
(537,334,o),
(590,423,o),
(590,512,cs),
(590,628,o),
(498,745,o),
(308,745,cs),
(139,745,o),
(9,636,o),
(9,488,cs),
(9,442,o),
(35,411,o),
(71,411,cs),
(107,411,o),
(133,442,o),
(133,488,cs),
(133,582,o),
(208,642,o),
(308,642,cs),
(414,642,o),
(466,572,o),
(466,504,cs),
(466,440,o),
(419,379,o),
(326,379,cs),
(293,379,l),
(293,396,o),
(294,412,o),
(294,430,cs),
(294,509,o),
(279,556,o),
(224,556,cs),
(191,556,o),
(165,528,o),
(165,492,cs),
(165,478,o),
(172,447,o),
(172,430,cs),
(172,413,o),
(172,397,o),
(171,382,c),
(149,375,o),
(137,357,o),
(137,339,cs),
(137,324,o),
(145,308,o),
(162,297,c),
(157,257,o),
(149,219,o),
(142,184,cs),
(133,138,o),
(124,80,o),
(127,38,cs),
(129,5,o),
(154,-16,o),
(191,-16,cs),
(227,-16,o),
(250,9,o),
(250,47,cs),
(250,91,o),
(258,138,o),
(267,191,cs),
(272,220,o),
(277,249,o),
(282,282,c),
(312,282,l),
(334,278,o),
(342,236,o),
(371,168,cs),
(415,65,o),
(457,-9,o),
(551,-9,cs),
(643,-9,o),
(692,61,o),
(752,236,cs),
(755,246,o),
(757,255,o),
(757,262,cs),
(757,293,o),
(735,310,o),
(712,310,cs),
(693,310,o),
(672,298,o),
(663,271,cs)
);
}
);
width = 674;
}
);
leftKerningGroup = R;
rightKerningGroup = A;
unicode = 82;
},
{
glyphname = S;
layers = (
{
anchors = (
{
name = t.uni0302_2;
position = "{318, 710}";
},
{
name = b.uni0326_1_2;
position = "{294, 10}";
}
);
hints = (
{
horizontal = 1;
place = (-28,105);
type = Stem;
},
{
horizontal = 1;
place = (637,103);
type = Stem;
},
{
place = (52,124);
type = Stem;
},
{
place = (127,124);
type = Stem;
},
{
place = (374,119);
type = Stem;
},
{
place = (407,124);
type = Stem;
}
);
layerId = "8E2892BE-3887-47FD-9544-6D763EF7E81E";
shapes = (
{
closed = 1;
nodes = (
(426,-28,o),
(531,70,o),
(531,197,cs),
(531,315,o),
(442,380,o),
(367,435,cs),
(303,481,o),
(251,524,o),
(251,571,cs),
(251,611,o),
(277,637,o),
(316,637,cs),
(353,637,o),
(374,616,o),
(374,582,cs),
(374,569,o),
(372,560,o),
(372,548,cs),
(372,518,o),
(397,493,o),
(430,493,cs),
(471,493,o),
(493,531,o),
(493,582,cs),
(493,674,o),
(416,740,o),
(312,740,cs),
(206,740,o),
(127,660,o),
(127,565,cs),
(127,470,o),
(208,395,o),
(291,337,cs),
(356,291,o),
(407,253,o),
(407,197,cs),
(407,122,o),
(359,77,o),
(289,77,cs),
(220,77,o),
(176,117,o),
(176,177,cs),
(176,222,o),
(193,250,o),
(193,278,cs),
(193,312,o),
(169,337,o),
(136,337,cs),
(108,337,o),
(84,318,o),
(72,288,cs),
(58,253,o),
(52,215,o),
(52,185,cs),
(52,60,o),
(150,-28,o),
(289,-28,cs)
);
}
);
width = 519;
}
);
leftKerningGroup = S2;
rightKerningGroup = S;
unicode = 83;
},
{
glyphname = T;
layers = (
{
anchors = (
{
name = t.uni0302_2;
position = "{416, 706}";
},
{
name = b.uni0326_1_2;
position = "{252, 10}";
}
);
hints = (
{
horizontal = 1;
place = (-9,107);
type = Stem;
},
{
horizontal = 1;
place = (592,107);
type = Stem;
},
{
horizontal = 1;
place = (633,108);
type = Stem;
},
{
horizontal = 1;
place = (772,-20);
target = down;
type = TopGhost;
},
{
place = (62,120);
type = Stem;
},
{
place = (329,123);
type = Stem;
}
);
layerId = "8E2892BE-3887-47FD-9544-6D763EF7E81E";
shapes = (
{
closed = 1;
nodes = (
(598,772,o),
(614,699,o),
(530,699,cs),
(451,699,o),
(342,741,o),
(246,741,cs),
(134,741,o),
(62,677,o),
(62,581,cs),
(62,525,o),
(97,468,o),
(146,438,cs),
(164,427,o),
(181,422,o),
(196,422,cs),
(231,422,o),
(256,446,o),
(256,474,cs),
(256,490,o),
(248,507,o),
(228,522,cs),
(206,539,o),
(182,553,o),
(182,584,cs),
(182,610,o),
(205,633,o),
(246,633,cs),
(268,633,o),
(297,629,o),
(329,623,c),
(323,517,o),
(310,346,o),
(307,311,cs),
(294,148,o),
(275,98,o),
(237,98,cs),
(211,98,o),
(195,119,o),
(181,140,cs),
(164,165,o),
(144,175,o),
(125,175,cs),
(95,175,o),
(69,150,o),
(69,116,cs),
(69,103,o),
(73,89,o),
(81,74,cs),
(105,28,o),
(158,-9,o),
(227,-9,cs),
(354,-9,o),
(411,82,o),
(428,273,cs),
(434,346,o),
(443,470,o),
(452,601,c),
(488,596,o),
(523,592,o),
(555,592,cs),
(647,592,o),
(707,652,o),
(707,715,cs),
(707,749,o),
(684,772,o),
(654,772,cs)
);
}
);
width = 653;
}
);
leftKerningGroup = T2;
rightKerningGroup = T;
unicode = 84;
},
{
glyphname = U;
layers = (
{
anchors = (
{
name = t.uni0302_2;
position = "{410, 710}";
}
);
hints = (
{
horizontal = 1;
place = (-9,105);
type = Stem;
},
{
horizontal = 1;
place = (-7,105);
type = Stem;
},
{
horizontal = 1;
place = (637,103);
type = Stem;
},
{
place = (131,124);
type = Stem;
},
{
place = (196,123);
type = Stem;
},
{
place = (512,109);
type = Stem;
}
);
layerId = "8E2892BE-3887-47FD-9544-6D763EF7E81E";
shapes = (
{
closed = 1;
nodes = (
(755,169,o),
(714,98,o),
(671,98,cs),
(643,98,o),
(621,133,o),
(621,240,cs),
(621,341,o),
(626,429,o),
(643,542,cs),
(647,571,o),
(650,583,o),
(650,592,cs),
(650,630,o),
(625,661,o),
(588,661,cs),
(556,661,o),
(531,635,o),
(526,598,cs),
(486,315,o),
(386,96,o),
(298,96,cs),
(270,96,o),
(255,111,o),
(255,149,cs),
(255,237,o),
(319,529,o),
(319,606,cs),
(319,687,o),
(267,740,o),
(190,740,cs),
(125,740,o),
(80,706,o),
(54,658,cs),
(39,630,o),
(36,616,o),
(36,599,cs),
(36,571,o),
(59,555,o),
(83,555,cs),
(101,555,o),
(117,564,o),
(128,584,cs),
(152,628,o),
(164,637,o),
(177,637,cs),
(189,637,o),
(196,630,o),
(196,608,cs),
(196,562,o),
(131,250,o),
(131,160,cs),
(131,57,o),
(191,-9,o),
(288,-9,cs),
(387,-9,o),
(458,73,o),
(512,219,c),
(512,59,o),
(575,-7,o),
(665,-7,cs),
(755,-7,o),
(826,75,o),
(879,236,cs),
(882,246,o),
(884,255,o),
(884,263,cs),
(884,293,o),
(862,311,o),
(839,311,cs),
(820,311,o),
(800,299,o),
(790,271,cs)
);
}
);
width = 801;
}
);
leftKerningGroup = U;
rightKerningGroup = A;
unicode = 85;
},
{
glyphname = V;
layers = (
{
hints = (
{
horizontal = 1;
place = (-12,21);
target = up;
type = BottomGhost;
},
{
horizontal = 1;
place = (638,106);
type = Stem;
},
{
place = (23,710);
type = Stem;
}
);
layerId = "8E2892BE-3887-47FD-9544-6D763EF7E81E";
shapes = (
{
closed = 1;
nodes = (
(656,742,o),
(637,734,o),
(622,721,cs),
(493,609,o),
(421,436,o),
(366,211,c),
(365,288,o),
(360,396,o),
(342,576,cs),
(331,684,o),
(271,744,o),
(182,744,cs),
(117,744,o),
(66,713,o),
(39,671,cs),
(28,654,o),
(23,637,o),
(23,622,cs),
(23,592,o),
(43,571,o),
(69,571,cs),
(85,571,o),
(103,579,o),
(119,599,cs),
(141,626,o),
(155,638,o),
(176,638,cs),
(197,638,o),
(212,621,o),
(217,575,cs),
(243,336,o),
(253,179,o),
(283,56,cs),
(296,3,o),
(322,-12,o),
(357,-12,cs),
(385,-12,o),
(410,8,o),
(418,36,cs),
(485,269,o),
(562,502,o),
(705,629,cs),
(723,645,o),
(733,665,o),
(733,683,cs),
(733,716,o),
(707,742,o),
(673,742,cs)
);
}
);
width = 633;
}
);
unicode = 86;
},
{
glyphname = W;
layers = (
{
anchors = (
{
name = t.uni0302_2;
position = "{593, 710}";
}
);
hints = (
{
horizontal = 1;
place = (-12,105);
type = Stem;
},
{
horizontal = 1;
place = (633,105);
type = Stem;
},
{
place = (152,124);
type = Stem;
},
{
place = (199,124);
type = Stem;
},
{
place = (847,124);
type = Stem;
}
);
layerId = "8E2892BE-3887-47FD-9544-6D763EF7E81E";
shapes = (
{
closed = 1;
nodes = (
(908,728,o),
(886,743,o),
(863,743,cs),
(829,743,o),
(802,717,o),
(802,683,cs),
(802,670,o),
(806,656,o),
(813,642,c),
(834,605,o),
(847,536,o),
(847,467,cs),
(847,266,o),
(780,93,o),
(701,93,cs),
(654,93,o),
(624,185,o),
(624,328,cs),
(624,408,o),
(638,485,o),
(640,501,cs),
(643,523,o),
(645,537,o),
(645,541,cs),
(645,577,o),
(619,605,o),
(584,605,cs),
(552,605,o),
(526,580,o),
(521,544,c),
(476,269,o),
(396,93,o),
(322,93,cs),
(296,93,o),
(276,113,o),
(276,169,cs),
(276,277,o),
(323,526,o),
(323,597,cs),
(323,681,o),
(270,738,o),
(192,738,cs),
(133,738,o),
(85,709,o),
(58,669,cs),
(45,650,o),
(40,633,o),
(40,618,cs),
(40,588,o),
(62,569,o),
(86,569,cs),
(101,569,o),
(117,576,o),
(129,592,cs),
(153,624,o),
(168,633,o),
(181,633,cs),
(192,633,o),
(199,624,o),
(199,606,cs),
(199,554,o),
(152,277,o),
(152,187,cs),
(152,58,o),
(222,-12,o),
(321,-12,cs),
(405,-12,o),
(471,41,o),
(523,154,c),
(551,44,o),
(609,-12,o),
(700,-12,cs),
(859,-12,o),
(971,181,o),
(971,455,cs),
(971,545,o),
(952,636,o),
(920,703,cs)
);
}
);
width = 960;
}
);
leftKerningGroup = W2;
rightKerningGroup = W;
unicode = 87;
},
{
glyphname = X;
layers = (
{
hints = (
{
horizontal = 1;
place = (-10,114);
type = Stem;
},
{
place = (37,616);
type = Stem;
}
);
layerId = "8E2892BE-3887-47FD-9544-6D763EF7E81E";
shapes = (
{
closed = 1;
nodes = (
(581,738,o),
(566,732,o),
(550,720,cs),
(497,681,o),
(430,585,o),
(370,466,c),
(346,542,o),
(330,617,o),
(326,686,cs),
(324,719,o),
(298,743,o),
(263,743,cs),
(228,743,o),
(202,715,o),
(202,680,cs),
(202,670,o),
(203,650,o),
(207,621,cs),
(219,530,o),
(248,419,o),
(297,306,c),
(219,131,o),
(193,104,o),
(168,104,cs),
(151,104,o),
(141,116,o),
(129,126,cs),
(115,138,o),
(101,143,o),
(89,143,cs),
(59,143,o),
(37,115,o),
(37,83,cs),
(37,63,o),
(46,41,o),
(67,24,cs),
(90,5,o),
(123,-10,o),
(160,-10,cs),
(263,-10,o),
(317,67,o),
(366,169,c),
(406,99,o),
(455,31,o),
(514,-32,cs),
(527,-46,o),
(544,-55,o),
(561,-55,cs),
(594,-55,o),
(623,-27,o),
(623,6,cs),
(623,24,o),
(615,39,o),
(603,52,cs),
(536,125,o),
(476,217,o),
(429,316,c),
(496,468,o),
(560,572,o),
(630,632,cs),
(644,644,o),
(653,663,o),
(653,680,cs),
(653,713,o),
(628,738,o),
(594,738,cs)
);
}
);
width = 672;
}
);
leftKerningGroup = X2;
rightKerningGroup = X;
unicode = 88;
},
{
glyphname = Y;
layers = (
{
anchors = (
{
name = t.uni0302_2;
position = "{388, 710}";
}
);
hints = (
{
horizontal = 1;
place = (-11,105);
type = Stem;
},
{
horizontal = 1;
place = (232,105);
type = Stem;
},
{
horizontal = 1;
place = (632,103);
type = Stem;
},
{
place = (188,124);
type = Stem;
},
{
place = (202,124);
type = Stem;
},
{
place = (520,123);
type = Stem;
}
);
layerId = "8E2892BE-3887-47FD-9544-6D763EF7E81E";
shapes = (
{
closed = 1;
nodes = (
(637,714,o),
(606,734,o),
(576,734,cs),
(544,734,o),
(514,710,o),
(517,669,cs),
(519,650,o),
(520,622,o),
(521,589,c),
(520,589,l),
(521,450,o),
(450,337,o),
(365,337,cs),
(332,337,o),
(312,361,o),
(312,408,cs),
(312,441,o),
(326,576,o),
(326,604,cs),
(326,680,o),
(271,735,o),
(193,735,cs),
(127,735,o),
(77,698,o),
(44,660,cs),
(33,647,o),
(28,632,o),
(28,619,cs),
(28,590,o),
(50,566,o),
(78,566,cs),
(92,566,o),
(107,572,o),
(122,587,cs),
(143,608,o),
(164,632,o),
(183,632,cs),
(194,632,o),
(202,624,o),
(202,605,cs),
(202,582,o),
(188,482,o),
(188,425,cs),
(188,296,o),
(256,232,o),
(351,232,cs),
(419,232,o),
(467,270,o),
(501,327,c),
(474,190,o),
(409,94,o),
(338,94,cs),
(312,94,o),
(290,104,o),
(267,133,cs),
(254,149,o),
(238,157,o),
(222,157,cs),
(198,157,o),
(176,137,o),
(176,103,cs),
(176,88,o),
(181,72,o),
(191,58,cs),
(220,18,o),
(280,-11,o),
(340,-11,cs),
(562,-11,o),
(643,270,o),
(643,583,cs),
(643,614,o),
(642,644,o),
(640,674,cs)
);
}
);
width = 671;
}
);
leftKerningGroup = Y2;
rightKerningGroup = Y;
unicode = 89;
},
{
glyphname = Z;
layers = (
{
anchors = (
{
name = t.uni0302_2;
position = "{411, 710}";
}
);
hints = (
{
horizontal = 1;
place = (-15,105);
type = Stem;
},
{
horizontal = 1;
place = (-12,89);
type = Stem;
},
{
horizontal = 1;
place = (123,88);
type = Stem;
},
{
horizontal = 1;
place = (602,104);
type = Stem;
},
{
horizontal = 1;
place = (632,105);
type = Stem;
},
{
place = (47,96);
type = Stem;
},
{
place = (112,117);
type = Stem;
}
);
layerId = "8E2892BE-3887-47FD-9544-6D763EF7E81E";
shapes = (
{
closed = 1;
nodes = (
(575,154,o),
(533,90,o),
(483,90,cs),
(455,90,o),
(421,108,o),
(384,130,c),
(388,136,o),
(392,143,o),
(396,150,cs),
(500,333,o),
(622,611,o),
(622,674,cs),
(622,709,o),
(597,734,o),
(562,734,cs),
(522,734,o),
(498,706,o),
(454,706,cs),
(391,706,o),
(317,737,o),
(249,737,cs),
(169,737,o),
(112,688,o),
(112,606,cs),
(112,539,o),
(142,490,o),
(188,490,cs),
(219,490,o),
(244,515,o),
(244,546,cs),
(244,563,o),
(229,581,o),
(229,602,cs),
(229,621,o),
(244,632,o),
(268,632,cs),
(321,632,o),
(371,602,o),
(440,602,cs),
(452,602,o),
(466,603,o),
(479,605,c),
(420,452,o),
(363,340,o),
(279,187,c),
(248,201,o),
(215,211,o),
(181,211,cs),
(92,211,o),
(47,156,o),
(47,101,cs),
(47,45,o),
(92,-12,o),
(185,-12,cs),
(233,-12,o),
(277,8,o),
(318,47,c),
(369,15,o),
(424,-15,o),
(478,-15,cs),
(577,-15,o),
(649,69,o),
(705,236,cs),
(708,246,o),
(710,256,o),
(710,264,cs),
(710,295,o),
(689,314,o),
(667,314,cs),
(647,314,o),
(626,301,o),
(616,271,cs)
);
},
{
closed = 1;
nodes = (
(153,77,o),
(143,89,o),
(143,100,cs),
(143,112,o),
(153,123,o),
(173,123,cs),
(188,123,o),
(206,116,o),
(226,104,c),
(211,87,o),
(195,77,o),
(174,77,cs)
);
}
);
width = 627;
}
);
leftKerningGroup = Z;
rightKerningGroup = A;
unicode = 90;
},
{
glyphname = bracketleft;
layers = (
{
hints = (
{
horizontal = 1;
place = (-34,109);
type = Stem;
},
{
horizontal = 1;
place = (596,108);
type = Stem;
},
{
place = (80,118);
type = Stem;
}
);
layerId = "8E2892BE-3887-47FD-9544-6D763EF7E81E";
shapes = (
{
closed = 1;
nodes = (
(301,-30,o),
(322,-2,o),
(322,25,cs),
(322,51,o),
(303,75,o),
(265,75,cs),
(250,75,o),
(238,74,o),
(230,74,cs),
(218,74,o),
(211,75,o),
(207,78,cs),
(199,84,o),
(198,191,o),
(198,335,cs),
(198,464,o),
(203,577,o),
(210,589,cs),
(214,596,o),
(239,596,o),
(264,596,cs),
(304,596,o),
(324,622,o),
(324,649,cs),
(324,676,o),
(302,704,o),
(260,704,cs),
(183,704,o),
(137,696,o),
(116,677,cs),
(93,657,o),
(80,505,o),
(80,336,cs),
(80,141,o),
(90,10,o),
(114,-12,cs),
(130,-27,o),
(170,-34,o),
(222,-34,cs),
(233,-34,o),
(245,-34,o),
(258,-33,cs)
);
}
);
width = 354;
}
);
unicode = 91;
},
{
glyphname = backslash;
layers = (
{
hints = (
{
horizontal = 1;
place = (-10,21);
target = up;
type = BottomGhost;
},
{
place = (31,362);
type = Stem;
}
);
layerId = "8E2892BE-3887-47FD-9544-6D763EF7E81E";
shapes = (
{
closed = 1;
nodes = (
(366,-10,o),
(393,13,o),
(393,43,cs),
(393,55,o),
(390,68,o),
(382,80,cs),
(309,193,o),
(215,561,o),
(126,671,cs),
(113,687,o),
(98,694,o),
(83,694,cs),
(56,694,o),
(31,670,o),
(31,640,cs),
(31,629,o),
(35,617,o),
(44,605,cs),
(130,488,o),
(216,135,o),
(296,16,cs),
(308,-2,o),
(324,-10,o),
(339,-10,cs)
);
}
);
width = 411;
}
);
unicode = 92;
},
{
glyphname = bracketright;
layers = (
{
hints = (
{
horizontal = 1;
place = (-34,108);
type = Stem;
},
{
horizontal = 1;
place = (596,108);
type = Stem;
},
{
place = (156,118);
type = Stem;
}
);
layerId = "8E2892BE-3887-47FD-9544-6D763EF7E81E";
shapes = (
{
closed = 1;
nodes = (
(109,-34,o),
(121,-34,o),
(132,-34,cs),
(184,-34,o),
(224,-27,o),
(240,-12,cs),
(264,10,o),
(274,141,o),
(274,336,cs),
(274,505,o),
(261,657,o),
(238,677,cs),
(217,696,o),
(171,704,o),
(94,704,cs),
(52,704,o),
(30,676,o),
(30,649,cs),
(30,622,o),
(50,596,o),
(90,596,cs),
(115,596,o),
(140,596,o),
(144,589,cs),
(151,577,o),
(156,464,o),
(156,335,cs),
(156,191,o),
(155,84,o),
(147,78,cs),
(143,75,o),
(136,74,o),
(124,74,cs),
(117,74,o),
(107,74,o),
(95,75,cs),
(53,78,o),
(32,52,o),
(32,25,cs),
(32,-2,o),
(53,-31,o),
(96,-33,cs)
);
}
);
width = 354;
}
);
unicode = 93;
},
{
glyphname = asciicircum;
layers = (
{
hints = (
{
horizontal = 1;
place = (357,343);
type = Stem;
},
{
place = (30,344);
type = Stem;
}
);
layerId = "8E2892BE-3887-47FD-9544-6D763EF7E81E";
shapes = (
{
closed = 1;
nodes = (
(108,359,o),
(128,369,o),
(140,393,cs),
(187,492,ls),
(191,500,o),
(196,504,o),
(202,504,cs),
(207,504,o),
(212,500,o),
(216,492,cs),
(265,390,ls),
(277,366,o),
(296,357,o),
(315,357,cs),
(345,357,o),
(374,380,o),
(374,413,cs),
(374,422,o),
(372,432,o),
(367,442,cs),
(261,657,ls),
(246,686,o),
(222,700,o),
(200,700,cs),
(177,700,o),
(155,685,o),
(142,657,cs),
(38,444,ls),
(33,434,o),
(30,424,o),
(30,415,cs),
(30,382,o),
(59,359,o),
(89,359,cs)
);
}
);
width = 404;
}
);
unicode = 94;
},
{
glyphname = underscore;
layers = (
{
hints = (
{
horizontal = 1;
place = (-27,102);
type = Stem;
},
{
place = (30,385);
type = Stem;
}
);
layerId = "8E2892BE-3887-47FD-9544-6D763EF7E81E";
shapes = (
{
closed = 1;
nodes = (
(398,-27,o),
(415,-2,o),
(415,23,cs),
(415,47,o),
(397,73,o),
(360,73,c),
(268,74,o),
(176,75,o),
(84,75,cs),
(47,75,o),
(30,50,o),
(30,25,cs),
(30,1,o),
(48,-25,o),
(85,-25,c),
(177,-26,o),
(269,-27,o),
(361,-27,cs)
);
}
);
width = 435;
}
);
unicode = 95;
},
{
glyphname = grave;
layers = (
{
hints = (
{
horizontal = 1;
place = (751,187);
type = Stem;
},
{
place = (31,182);
type = Stem;
}
);
layerId = "8E2892BE-3887-47FD-9544-6D763EF7E81E";
shapes = (
{
closed = 1;
nodes = (
(131,915,ls),
(115,931,o),
(98,938,o),
(83,938,cs),
(54,938,o),
(31,915,o),
(31,886,cs),
(31,871,o),
(37,854,o),
(52,838,cs),
(114,773,ls),
(129,757,o),
(146,751,o),
(161,751,cs),
(189,751,o),
(213,774,o),
(213,804,cs),
(213,819,o),
(207,835,o),
(192,851,cs)
);
}
);
width = 243;
}
);
unicode = 96;
},
{
glyphname = a;
layers = (
{
anchors = (
{
name = t.uni0302_2;
position = "{222, 410}";
}
);
hints = (
{
horizontal = 1;
place = (-9,105);
type = Stem;
},
{
horizontal = 1;
place = (332,104);
type = Stem;
},
{
place = (-4,120);
type = Stem;
},
{
place = (280,106);
type = Stem;
}
);
layerId = "8E2892BE-3887-47FD-9544-6D763EF7E81E";
shapes = (
{
closed = 1;
nodes = (
(468,173,o),
(434,97,o),
(408,97,cs),
(396,97,o),
(386,107,o),
(386,144,cs),
(386,238,o),
(402,351,o),
(402,391,cs),
(402,424,o),
(375,445,o),
(346,445,cs),
(314,445,o),
(296,428,o),
(287,405,c),
(263,424,o),
(234,436,o),
(201,436,cs),
(99,436,o),
(-4,328,o),
(-4,174,cs),
(-4,52,o),
(66,-9,o),
(154,-9,cs),
(210,-9,o),
(254,17,o),
(291,74,c),
(311,20,o),
(352,-9,o),
(397,-9,cs),
(471,-9,o),
(527,45,o),
(591,236,cs),
(594,246,o),
(596,255,o),
(596,263,cs),
(596,293,o),
(574,311,o),
(551,311,cs),
(532,311,o),
(512,299,o),
(502,271,cs)
);
},
{
closed = 1;
nodes = (
(130,96,o),
(116,132,o),
(116,176,cs),
(116,258,o),
(157,332,o),
(228,332,cs),
(256,332,o),
(271,319,o),
(280,307,c),
(278,206,o),
(245,96,o),
(173,96,cs)
);
}
);
width = 513;
}
);
leftKerningGroup = a;
rightKerningGroup = A;
unicode = 97;
},
{
glyphname = b;
layers = (
{
hints = (
{
horizontal = 1;
place = (-16,105);
type = Stem;
},
{
horizontal = 1;
place = (324,95);
type = Stem;
},
{
horizontal = 1;
place = (436,100);
type = Stem;
},
{
horizontal = 1;
place = (641,103);
type = Stem;
},
{
place = (10,115);
type = Stem;
},
{
place = (294,110);
type = Stem;
},
{
place = (297,111);
type = Stem;
}
);
layerId = "8E2892BE-3887-47FD-9544-6D763EF7E81E";
shapes = (
{
closed = 1;
nodes = (
(463,231,o),
(438,205,o),
(404,192,c),
(407,207,o),
(408,223,o),
(408,238,cs),
(408,365,o),
(332,419,o),
(259,419,cs),
(204,419,o),
(148,387,o),
(127,334,c),
(130,371,o),
(134,405,o),
(139,436,c),
(272,437,o),
(404,499,o),
(404,615,cs),
(404,688,o),
(352,744,o),
(269,744,cs),
(173,744,o),
(95,672,o),
(51,548,c),
(47,549,o),
(45,549,o),
(43,549,cs),
(9,549,o),
(-11,526,o),
(-11,501,cs),
(-11,482,o),
(1,462,o),
(25,452,c),
(15,399,o),
(10,339,o),
(10,276,cs),
(10,83,o),
(75,-16,o),
(201,-16,cs),
(277,-16,o),
(334,28,o),
(368,89,c),
(453,94,o),
(533,140,o),
(566,236,cs),
(570,247,o),
(571,257,o),
(571,265,cs),
(571,296,o),
(551,314,o),
(528,314,cs),
(508,314,o),
(487,301,o),
(477,271,cs)
);
},
{
closed = 1;
nodes = (
(285,641,o),
(294,630,o),
(294,616,cs),
(294,586,o),
(254,539,o),
(167,536,c),
(193,603,o),
(229,641,o),
(268,641,cs)
);
},
{
closed = 1;
nodes = (
(275,324,o),
(297,302,o),
(297,252,cs),
(297,230,o),
(295,210,o),
(291,192,c),
(241,208,o),
(212,244,o),
(212,280,cs),
(212,308,o),
(227,324,o),
(251,324,cs)
);
},
{
closed = 1;
nodes = (
(142,191,o),
(189,139,o),
(250,111,c),
(235,97,o),
(218,89,o),
(202,89,cs),
(160,89,o),
(128,143,o),
(125,247,c)
);
}
);
width = 488;
}
);
leftKerningGroup = b;
rightKerningGroup = A;
unicode = 98;
},
{
glyphname = c;
layers = (
{
anchors = (
{
name = t.uni0302_2;
position = "{208, 410}";
},
{
name = b.uni0326_1_2;
position = "{190, 10}";
}
);
hints = (
{
horizontal = 1;
place = (-16,105);
type = Stem;
},
{
horizontal = 1;
place = (338,103);
type = Stem;
},
{
place = (0,120);
type = Stem;
},
{
place = (234,115);
type = Stem;
}
);
layerId = "8E2892BE-3887-47FD-9544-6D763EF7E81E";
shapes = (
{
closed = 1;
nodes = (
(347,-16,o),
(445,74,o),
(501,236,cs),
(504,246,o),
(506,255,o),
(506,263,cs),
(506,294,o),
(484,313,o),
(461,313,cs),
(442,313,o),
(422,300,o),
(412,271,cs),
(386,195,o),
(319,89,o),
(221,89,cs),
(157,89,o),
(120,126,o),
(120,196,cs),
(120,281,o),
(166,338,o),
(208,338,cs),
(226,338,o),
(234,330,o),
(234,310,cs),
(234,270,o),
(260,249,o),
(288,249,cs),
(318,249,o),
(349,274,o),
(349,326,cs),
(349,386,o),
(294,441,o),
(208,441,cs),
(97,441,o),
(0,344,o),
(0,195,cs),
(0,65,o),
(82,-16,o),
(208,-16,cs)
);
}
);
width = 423;
}
);
leftKerningGroup = c;
rightKerningGroup = A;
unicode = 99;
},
{
glyphname = d;
layers = (
{
hints = (
{
horizontal = 1;
place = (-10,105);
type = Stem;
},
{
horizontal = 1;
place = (-7,104);
type = Stem;
},
{
horizontal = 1;
place = (343,103);
type = Stem;
},
{
horizontal = 1;
place = (441,-20);
target = down;
type = TopGhost;
},
{
horizontal = 1;
place = (638,103);
type = Stem;
},
{
place = (-4,120);
type = Stem;
},
{
place = (259,99);
type = Stem;
},
{
place = (269,95);
type = Stem;
},
{
place = (416,105);
type = Stem;
}
);
layerId = "8E2892BE-3887-47FD-9544-6D763EF7E81E";
shapes = (
{
closed = 1;
nodes = (
(481,182,o),
(433,97,o),
(407,97,cs),
(388,97,o),
(372,134,o),
(364,210,c),
(418,295,o),
(521,472,o),
(521,605,cs),
(521,688,o),
(476,741,o),
(408,741,cs),
(311,741,o),
(263,640,o),
(259,441,c),
(248,444,o),
(236,446,o),
(223,446,cs),
(100,446,o),
(-4,327,o),
(-4,181,cs),
(-4,61,o),
(58,-10,o),
(154,-10,cs),
(206,-10,o),
(254,20,o),
(290,65,c),
(314,21,o),
(352,-7,o),
(402,-7,cs),
(482,-7,o),
(551,88,o),
(601,236,cs),
(604,245,o),
(606,254,o),
(606,262,cs),
(606,293,o),
(584,311,o),
(561,311,cs),
(542,311,o),
(522,299,o),
(512,271,cs)
);
},
{
closed = 1;
nodes = (
(410,638,o),
(416,632,o),
(416,607,cs),
(416,561,o),
(394,464,o),
(358,375,c),
(359,551,o),
(381,638,o),
(402,638,cs)
);
},
{
closed = 1;
nodes = (
(132,95,o),
(116,133,o),
(116,179,cs),
(116,251,o),
(157,343,o),
(217,343,cs),
(248,343,o),
(269,321,o),
(269,266,cs),
(269,193,o),
(228,95,o),
(164,95,cs)
);
}
);
width = 523;
}
);
leftKerningGroup = a;
rightKerningGroup = A;
unicode = 100;
},
{
glyphname = e;
layers = (
{
anchors = (
{
name = t.uni0302_2;
position = "{206, 410}";
}
);
hints = (
{
horizontal = 1;
place = (-16,105);
type = Stem;
},
{
horizontal = 1;
place = (158,82);
type = Stem;
},
{
horizontal = 1;
place = (339,103);
type = Stem;
},
{
place = (3,118);
type = Stem;
},
{
place = (258,112);
type = Stem;
}
);
layerId = "8E2892BE-3887-47FD-9544-6D763EF7E81E";
shapes = (
{
closed = 1;
nodes = (
(405,187,o),
(339,89,o),
(235,89,cs),
(167,89,o),
(129,119,o),
(121,178,c),
(149,165,o),
(177,158,o),
(209,158,cs),
(304,158,o),
(370,221,o),
(370,302,cs),
(370,373,o),
(314,442,o),
(206,442,cs),
(79,442,o),
(3,326,o),
(3,202,cs),
(3,73,o),
(89,-16,o),
(221,-16,cs),
(353,-16,o),
(464,65,o),
(523,236,cs),
(526,245,o),
(528,254,o),
(528,261,cs),
(528,292,o),
(505,309,o),
(482,309,cs),
(463,309,o),
(443,297,o),
(434,271,cs)
);
},
{
closed = 1;
nodes = (
(239,339,o),
(258,320,o),
(258,294,cs),
(258,267,o),
(235,240,o),
(190,240,cs),
(167,240,o),
(146,243,o),
(125,249,c),
(137,305,o),
(170,339,o),
(208,339,cs)
);
}
);
width = 445;
}
);
leftKerningGroup = c;
rightKerningGroup = A;
unicode = 101;
},
{
glyphname = f;
layers = (
{
hints = (
{
horizontal = 1;
place = (-266,105);
type = Stem;
},
{
horizontal = 1;
place = (628,103);
type = Stem;
},
{
place = (4,121);
type = Stem;
},
{
place = (210,110);
type = Stem;
},
{
place = (228,110);
type = Stem;
}
);
layerId = "8E2892BE-3887-47FD-9544-6D763EF7E81E";
shapes = (
{
closed = 1;
nodes = (
(331,214,o),
(301,176,o),
(255,176,c),
(254,176,l),
(230,213,o),
(203,236,o),
(176,239,c),
(176,239,o),
(176,239,o),
(176,239,c),
(175,239,o),
(174,239,o),
(173,239,c),
(173,239,o),
(173,239,o),
(172,239,c),
(150,239,o),
(134,231,o),
(124,219,c),
(124,233,o),
(125,246,o),
(125,260,c),
(289,403,o),
(338,534,o),
(338,604,cs),
(338,681,o),
(293,731,o),
(222,731,cs),
(100,731,o),
(4,624,o),
(4,163,cs),
(4,-198,o),
(72,-266,o),
(175,-266,cs),
(250,-266,o),
(320,-196,o),
(320,-67,cs),
(320,-16,o),
(311,35,o),
(297,81,c),
(363,100,o),
(415,159,o),
(440,236,cs),
(443,246,o),
(445,255,o),
(445,264,cs),
(445,295,o),
(424,314,o),
(401,314,cs),
(382,314,o),
(362,301,o),
(351,271,cs)
);
},
{
closed = 1;
nodes = (
(221,628,o),
(228,623,o),
(228,609,cs),
(228,566,o),
(189,469,o),
(135,396,c),
(152,534,o),
(185,628,o),
(214,628,cs)
);
},
{
closed = 1;
nodes = (
(148,-161,o),
(128,-77,o),
(125,134,c),
(136,115,o),
(156,97,o),
(184,86,c),
(201,44,o),
(210,-14,o),
(210,-63,cs),
(210,-121,o),
(196,-161,o),
(178,-161,cs)
);
}
);
width = 362;
}
);
leftKerningGroup = f;
rightKerningGroup = A;
unicode = 102;
},
{
glyphname = g;
layers = (
{
anchors = (
{
name = t.uni0302_2;
position = "{219, 410}";
}
);
hints = (
{
horizontal = 1;
place = (-264,103);
type = Stem;
},
{
horizontal = 1;
place = (11,105);
type = Stem;
},
{
horizontal = 1;
place = (336,103);
type = Stem;
},
{
place = (-4,120);
type = Stem;
},
{
place = (84,105);
type = Stem;
},
{
place = (271,117);
type = Stem;
}
);
layerId = "8E2892BE-3887-47FD-9544-6D763EF7E81E";
shapes = (
{
closed = 1;
nodes = (
(459,211,o),
(424,146,o),
(376,96,c),
(383,202,o),
(388,282,o),
(388,313,cs),
(388,389,o),
(314,439,o),
(220,439,cs),
(93,439,o),
(-4,325,o),
(-4,177,cs),
(-4,79,o),
(63,11,o),
(150,11,cs),
(186,11,o),
(223,26,o),
(257,57,c),
(256,43,o),
(256,28,o),
(255,16,c),
(171,-34,o),
(84,-71,o),
(84,-162,cs),
(84,-219,o),
(133,-264,o),
(199,-264,cs),
(303,-264,o),
(353,-163,o),
(366,-36,c),
(459,28,o),
(530,123,o),
(568,236,cs),
(571,246,o),
(573,255,o),
(573,263,cs),
(573,294,o),
(551,314,o),
(528,314,cs),
(509,314,o),
(489,301,o),
(479,271,cs)
);
},
{
closed = 1;
nodes = (
(135,116,o),
(116,138,o),
(116,181,cs),
(116,272,o),
(167,336,o),
(217,336,cs),
(249,336,o),
(266,320,o),
(271,299,c),
(271,210,o),
(246,116,o),
(170,116,cs)
);
},
{
closed = 1;
nodes = (
(195,-161,o),
(189,-155,o),
(189,-146,cs),
(189,-131,o),
(212,-114,o),
(246,-93,c),
(238,-140,o),
(226,-161,o),
(207,-161,cs)
);
}
);
width = 490;
}
);
leftKerningGroup = a;
rightKerningGroup = A;
unicode = 103;
},
{
glyphname = h;
layers = (
{
anchors = (
{
name = t.uni0302_2;
position = "{240, 721}";
}
);
hints = (
{
horizontal = 1;
place = (-12,105);
type = Stem;
},
{
horizontal = 1;
place = (335,100);
type = Stem;
},
{
horizontal = 1;
place = (445,95);
type = Stem;
},
{
horizontal = 1;
place = (643,102);
type = Stem;
},
{
place = (8,121);
type = Stem;
},
{
place = (226,117);
type = Stem;
},
{
place = (269,109);
type = Stem;
},
{
place = (273,118);
type = Stem;
}
);
layerId = "8E2892BE-3887-47FD-9544-6D763EF7E81E";
shapes = (
{
closed = 1;
nodes = (
(435,154,o),
(388,93,o),
(362,93,cs),
(350,93,o),
(343,100,o),
(343,114,cs),
(343,143,o),
(391,259,o),
(391,331,cs),
(391,391,o),
(345,435,o),
(282,435,cs),
(224,435,o),
(170,404,o),
(128,351,c),
(130,385,o),
(133,417,o),
(136,445,c),
(281,449,o),
(378,522,o),
(378,623,cs),
(378,691,o),
(324,745,o),
(247,745,cs),
(160,745,o),
(81,694,o),
(39,549,c),
(36,550,o),
(33,550,o),
(30,550,cs),
(-3,550,o),
(-21,528,o),
(-21,505,cs),
(-21,487,o),
(-9,467,o),
(20,457,c),
(12,406,o),
(8,346,o),
(8,277,cs),
(8,204,o),
(8,128,o),
(13,55,cs),
(16,11,o),
(38,-14,o),
(74,-14,cs),
(111,-14,o),
(133,12,o),
(133,53,cs),
(133,79,o),
(130,104,o),
(129,127,c),
(131,266,o),
(218,335,o),
(253,335,cs),
(267,335,o),
(273,329,o),
(273,316,cs),
(273,276,o),
(226,167,o),
(226,104,cs),
(226,37,o),
(275,-12,o),
(349,-12,cs),
(422,-12,o),
(501,53,o),
(563,236,cs),
(566,246,o),
(568,255,o),
(568,263,cs),
(568,294,o),
(546,314,o),
(523,314,cs),
(504,314,o),
(484,301,o),
(474,271,cs)
);
},
{
closed = 1;
nodes = (
(257,643,o),
(269,629,o),
(269,610,cs),
(269,582,o),
(237,545,o),
(155,540,c),
(174,609,o),
(203,643,o),
(238,643,cs)
);
}
);
width = 485;
}
);
leftKerningGroup = h;
rightKerningGroup = A;
unicode = 104;
},
{
glyphname = i;
layers = (
{
hints = (
{
horizontal = 1;
place = (-15,105);
type = Stem;
},
{
horizontal = 1;
place = (437,-20);
target = down;
type = TopGhost;
},
{
horizontal = 1;
place = (465,140);
type = Stem;
},
{
place = (3,120);
type = Stem;
},
{
place = (33,140);
type = Stem;
}
);
layerId = "8E2892BE-3887-47FD-9544-6D763EF7E81E";
shapes = (
{
closed = 1;
nodes = (
(142,465,o),
(173,496,o),
(173,535,cs),
(173,574,o),
(142,605,o),
(103,605,cs),
(64,605,o),
(33,574,o),
(33,535,cs),
(33,496,o),
(64,465,o),
(103,465,cs)
);
},
{
closed = 1;
nodes = (
(248,-15,o),
(309,93,o),
(357,236,cs),
(360,246,o),
(362,255,o),
(362,263,cs),
(362,294,o),
(340,312,o),
(317,312,cs),
(298,312,o),
(278,300,o),
(268,271,cs),
(225,143,o),
(183,90,o),
(156,90,cs),
(136,90,o),
(123,104,o),
(123,167,cs),
(123,216,o),
(141,341,o),
(143,362,cs),
(147,405,o),
(124,437,o),
(87,437,cs),
(56,437,o),
(30,412,o),
(24,376,cs),
(15,320,o),
(3,226,o),
(3,173,cs),
(3,53,o),
(51,-15,o),
(141,-15,cs)
);
}
);
width = 279;
}
);
leftKerningGroup = i;
rightKerningGroup = A;
unicode = 105;
},
{
glyphname = j;
layers = (
{
hints = (
{
horizontal = 1;
place = (-264,103);
type = Stem;
},
{
horizontal = 1;
place = (437,-20);
target = down;
type = TopGhost;
},
{
horizontal = 1;
place = (466,140);
type = Stem;
},
{
place = (-181,103);
type = Stem;
},
{
place = (12,140);
type = Stem;
}
);
layerId = "8E2892BE-3887-47FD-9544-6D763EF7E81E";
shapes = (
{
closed = 1;
nodes = (
(121,466,o),
(152,497,o),
(152,536,cs),
(152,575,o),
(121,606,o),
(82,606,cs),
(43,606,o),
(12,575,o),
(12,536,cs),
(12,497,o),
(43,466,o),
(82,466,cs)
);
},
{
closed = 1;
nodes = (
(194,212,o),
(157,150,o),
(113,103,c),
(114,110,o),
(114,116,o),
(115,123,cs),
(134,371,ls),
(138,415,o),
(107,437,o),
(75,437,cs),
(47,437,o),
(17,418,o),
(14,382,cs),
(3,268,o),
(-7,114,o),
(-12,16,c),
(-95,-33,o),
(-181,-68,o),
(-181,-162,cs),
(-181,-219,o),
(-132,-264,o),
(-72,-264,cs),
(20,-264,o),
(93,-170,o),
(102,-41,c),
(102,-39,o),
(102,-36,o),
(103,-33,c),
(196,31,o),
(266,126,o),
(303,236,cs),
(306,246,o),
(308,256,o),
(308,264,cs),
(308,296,o),
(287,315,o),
(265,315,cs),
(245,315,o),
(224,302,o),
(214,271,cs)
);
},
{
closed = 1;
nodes = (
(-72,-161,o),
(-78,-155,o),
(-78,-145,cs),
(-78,-130,o),
(-54,-113,o),
(-20,-94,c),
(-29,-141,o),
(-44,-161,o),
(-59,-161,cs)
);
}
);
width = 225;
}
);
leftKerningGroup = j;
rightKerningGroup = A;
unicode = 106;
},
{
glyphname = k;
layers = (
{
anchors = (
{
name = b.uni0326_1_2;
position = "{178, 10}";
}
);
hints = (
{
horizontal = 1;
place = (-15,105);
type = Stem;
},
{
horizontal = 1;
place = (318,104);
type = Stem;
},
{
horizontal = 1;
place = (445,95);
type = Stem;
},
{
horizontal = 1;
place = (643,102);
type = Stem;
},
{
place = (10,120);
type = Stem;
},
{
place = (157,117);
type = Stem;
},
{
place = (271,109);
type = Stem;
},
{
place = (271,117);
type = Stem;
}
);
layerId = "8E2892BE-3887-47FD-9544-6D763EF7E81E";
shapes = (
{
closed = 1;
nodes = (
(406,161,o),
(361,90,o),
(318,90,cs),
(296,90,o),
(274,112,o),
(274,136,cs),
(274,154,o),
(300,166,o),
(327,188,cs),
(356,212,o),
(388,245,o),
(388,306,cs),
(388,368,o),
(334,422,o),
(264,422,cs),
(212,422,o),
(166,394,o),
(130,351,c),
(132,386,o),
(135,417,o),
(138,445,c),
(283,449,o),
(380,522,o),
(380,623,cs),
(380,691,o),
(326,745,o),
(249,745,cs),
(162,745,o),
(83,694,o),
(41,549,c),
(38,550,o),
(35,550,o),
(32,550,cs),
(-1,550,o),
(-19,528,o),
(-19,505,cs),
(-19,487,o),
(-7,467,o),
(22,457,c),
(14,406,o),
(10,346,o),
(10,277,cs),
(10,204,o),
(10,128,o),
(15,55,cs),
(18,11,o),
(40,-14,o),
(76,-14,cs),
(115,-14,o),
(138,16,o),
(135,61,cs),
(133,87,o),
(132,112,o),
(130,136,c),
(129,250,o),
(180,318,o),
(239,318,cs),
(260,318,o),
(271,307,o),
(271,292,cs),
(271,271,o),
(244,253,o),
(216,232,cs),
(187,210,o),
(157,184,o),
(157,147,cs),
(157,60,o),
(229,-15,o),
(316,-15,cs),
(409,-15,o),
(486,96,o),
(533,236,cs),
(536,246,o),
(538,255,o),
(538,264,cs),
(538,295,o),
(517,312,o),
(494,312,cs),
(474,312,o),
(454,299,o),
(444,271,cs)
);
},
{
closed = 1;
nodes = (
(259,643,o),
(271,629,o),
(271,610,cs),
(271,582,o),
(239,545,o),
(157,540,c),
(176,609,o),
(205,643,o),
(240,643,cs)
);
}
);
width = 455;
}
);
leftKerningGroup = k;
rightKerningGroup = A;
unicode = 107;
},
{
glyphname = l;
layers = (
{
anchors = (
{
name = t.uni0302_2;
position = "{197, 710}";
},
{
name = b.uni0326_1_2;
position = "{187, 10}";
}
);
hints = (
{
horizontal = 1;
place = (-14,105);
type = Stem;
},
{
horizontal = 1;
place = (636,103);
type = Stem;
},
{
place = (10,118);
type = Stem;
},
{
place = (218,100);
type = Stem;
}
);
layerId = "8E2892BE-3887-47FD-9544-6D763EF7E81E";
shapes = (
{
closed = 1;
nodes = (
(285,152,o),
(236,91,o),
(196,91,cs),
(157,91,o),
(133,130,o),
(126,215,c),
(242,354,o),
(318,505,o),
(318,617,cs),
(318,692,o),
(271,739,o),
(207,739,cs),
(74,739,o),
(10,576,o),
(10,269,cs),
(10,78,o),
(68,-14,o),
(189,-14,cs),
(284,-14,o),
(356,63,o),
(417,236,cs),
(421,247,o),
(422,256,o),
(422,265,cs),
(422,296,o),
(402,314,o),
(379,314,cs),
(359,314,o),
(339,301,o),
(328,271,cs)
);
},
{
closed = 1;
nodes = (
(211,636,o),
(218,629,o),
(218,610,cs),
(218,569,o),
(182,455,o),
(128,354,c),
(137,505,o),
(168,636,o),
(202,636,cs)
);
}
);
width = 339;
}
);
leftKerningGroup = l;
rightKerningGroup = A;
unicode = 108;
},
{
glyphname = m;
layers = (
{
hints = (
{
horizontal = 1;
place = (-11,105);
type = Stem;
},
{
horizontal = 1;
place = (-16,21);
target = up;
type = BottomGhost;
},
{
horizontal = 1;
place = (306,103);
type = Stem;
},
{
horizontal = 1;
place = (331,103);
type = Stem;
},
{
horizontal = 1;
place = (439,-20);
target = down;
type = TopGhost;
},
{
place = (5,120);
type = Stem;
},
{
place = (225,120);
type = Stem;
},
{
place = (449,120);
type = Stem;
},
{
place = (466,121);
type = Stem;
}
);
layerId = "8E2892BE-3887-47FD-9544-6D763EF7E81E";
shapes = (
{
closed = 1;
nodes = (
(664,195,o),
(614,94,o),
(585,94,cs),
(576,94,o),
(569,101,o),
(569,117,cs),
(569,168,o),
(587,282,o),
(587,325,cs),
(587,390,o),
(543,434,o),
(474,434,cs),
(421,434,o),
(379,407,o),
(346,350,c),
(330,385,o),
(296,409,o),
(255,409,cs),
(205,409,o),
(167,382,o),
(135,329,c),
(138,360,o),
(140,377,o),
(140,381,cs),
(140,419,o),
(120,439,o),
(83,439,cs),
(48,439,o),
(25,419,o),
(20,387,cs),
(10,311,o),
(5,196,o),
(5,46,cs),
(5,7,o),
(28,-16,o),
(67,-16,cs),
(103,-16,o),
(125,8,o),
(125,46,cs),
(125,81,l),
(129,208,o),
(184,306,o),
(234,306,cs),
(246,306,o),
(252,300,o),
(252,286,cs),
(252,259,o),
(225,176,o),
(225,109,cs),
(225,15,o),
(248,-10,o),
(295,-10,cs),
(328,-10,o),
(349,11,o),
(349,43,c),
(349,42,o),
(345,103,o),
(345,113,cs),
(345,128,l),
(350,246,o),
(395,331,o),
(443,331,cs),
(458,331,o),
(466,323,o),
(466,305,cs),
(466,279,o),
(449,185,o),
(449,126,cs),
(449,34,o),
(495,-11,o),
(566,-11,cs),
(661,-11,o),
(728,83,o),
(778,236,cs),
(781,246,o),
(783,255,o),
(783,263,cs),
(783,295,o),
(761,314,o),
(738,314,cs),
(719,314,o),
(699,301,o),
(689,271,cs)
);
}
);
width = 700;
}
);
leftKerningGroup = m;
rightKerningGroup = A;
unicode = 109;
},
{
glyphname = n;
layers = (
{
anchors = (
{
name = t.uni0302_2;
position = "{251, 410}";
},
{
name = b.uni0326_1_2;
position = "{195, 10}";
}
);
hints = (
{
horizontal = 1;
place = (-11,105);
type = Stem;
},
{
horizontal = 1;
place = (-16,21);
target = up;
type = BottomGhost;
},
{
horizontal = 1;
place = (331,103);
type = Stem;
},
{
horizontal = 1;
place = (439,-20);
target = down;
type = TopGhost;
},
{
place = (5,119);
type = Stem;
},
{
place = (234,120);
type = Stem;
},
{
place = (251,121);
type = Stem;
}
);
layerId = "8E2892BE-3887-47FD-9544-6D763EF7E81E";
shapes = (
{
closed = 1;
nodes = (
(451,198,o),
(401,94,o),
(372,94,cs),
(361,94,o),
(354,101,o),
(354,123,cs),
(354,168,o),
(372,282,o),
(372,325,cs),
(372,390,o),
(328,434,o),
(262,434,cs),
(207,434,o),
(165,405,o),
(136,346,c),
(139,370,ls),
(140,374,o),
(140,378,o),
(140,382,cs),
(140,416,o),
(117,439,o),
(82,439,cs),
(47,439,o),
(22,419,o),
(19,387,cs),
(10,304,o),
(5,179,o),
(5,46,cs),
(5,7,o),
(28,-16,o),
(66,-16,cs),
(102,-16,o),
(124,8,o),
(124,46,cs),
(124,103,l),
(127,216,o),
(178,331,o),
(229,331,cs),
(244,331,o),
(251,324,o),
(251,305,cs),
(251,266,o),
(234,185,o),
(234,112,cs),
(234,37,o),
(282,-11,o),
(353,-11,cs),
(448,-11,o),
(513,82,o),
(565,236,cs),
(568,246,o),
(570,255,o),
(570,264,cs),
(570,295,o),
(549,314,o),
(526,314,cs),
(507,314,o),
(486,301,o),
(476,271,cs)
);
}
);
width = 487;
}
);
leftKerningGroup = m;
rightKerningGroup = A;
unicode = 110;
},
{
glyphname = o;
layers = (
{
anchors = (
{
name = t.uni0302_2;
position = "{213, 410}";
},
{
name = b.uni0326_1_2;
position = "{157, 10}";
}
);
hints = (
{
horizontal = 1;
place = (-13,103);
type = Stem;
},
{
horizontal = 1;
place = (330,112);
type = Stem;
},
{
place = (-3,111);
type = Stem;
},
{
place = (146,80);
type = Stem;
},
{
place = (282,108);
type = Stem;
}
);
layerId = "8E2892BE-3887-47FD-9544-6D763EF7E81E";
shapes = (
{
closed = 1;
nodes = (
(436,232,o),
(417,202,o),
(385,188,c),
(388,205,o),
(390,224,o),
(390,243,cs),
(390,357,o),
(328,413,o),
(280,430,c),
(260,438,o),
(235,442,o),
(211,442,cs),
(92,442,o),
(-3,326,o),
(-3,180,cs),
(-3,64,o),
(67,-13,o),
(172,-13,cs),
(246,-13,o),
(308,25,o),
(347,86,c),
(423,91,o),
(505,136,o),
(539,236,cs),
(542,246,o),
(544,255,o),
(544,263,cs),
(544,293,o),
(523,309,o),
(500,309,cs),
(480,309,o),
(459,297,o),
(450,271,cs)
);
},
{
closed = 1;
nodes = (
(226,316,o),
(234,330,o),
(244,330,cs),
(268,330,o),
(282,281,o),
(282,242,cs),
(282,224,o),
(281,207,o),
(278,192,c),
(248,209,o),
(226,240,o),
(226,286,cs)
);
},
{
closed = 1;
nodes = (
(108,234,o),
(125,285,o),
(154,317,c),
(148,294,o),
(146,272,o),
(146,257,cs),
(146,187,o),
(185,137,o),
(237,109,c),
(222,96,o),
(204,90,o),
(185,90,cs),
(130,90,o),
(108,135,o),
(108,188,cs)
);
}
);
width = 461;
}
);
leftKerningGroup = c;
rightKerningGroup = A;
unicode = 111;
},
{
glyphname = p;
layers = (
{
hints = (
{
horizontal = 1;
place = (-261,21);
target = up;
type = BottomGhost;
},
{
horizontal = 1;
place = (-22,133);
type = Stem;
},
{
horizontal = 1;
place = (336,103);
type = Stem;
},
{
place = (285,119);
type = Stem;
}
);
layerId = "8E2892BE-3887-47FD-9544-6D763EF7E81E";
shapes = (
{
closed = 1;
nodes = (
(452,211,o),
(426,167,o),
(375,140,c),
(393,183,o),
(404,229,o),
(404,271,cs),
(404,371,o),
(345,439,o),
(255,439,cs),
(202,439,o),
(155,407,o),
(119,359,c),
(117,374,o),
(114,388,o),
(111,401,cs),
(105,426,o),
(87,440,o),
(61,440,cs),
(22,440,o),
(-5,418,o),
(-5,384,cs),
(-5,371,o),
(9,265,o),
(9,199,cs),
(9,20,o),
(-27,-182,o),
(-27,-205,cs),
(-27,-238,o),
(0,-261,o),
(36,-261,cs),
(67,-261,o),
(89,-242,o),
(93,-211,cs),
(112,-61,o),
(127,67,o),
(129,176,c),
(137,269,o),
(200,336,o),
(248,336,cs),
(271,336,o),
(285,318,o),
(285,283,cs),
(285,222,o),
(261,148,o),
(234,111,c),
(216,111,ls),
(170,111,o),
(145,75,o),
(145,40,cs),
(145,9,o),
(166,-22,o),
(211,-22,cs),
(235,-22,o),
(260,-10,o),
(284,10,c),
(427,28,o),
(514,97,o),
(562,236,cs),
(565,246,o),
(567,255,o),
(567,264,cs),
(567,295,o),
(546,315,o),
(522,315,cs),
(504,315,o),
(484,302,o),
(473,271,cs)
);
}
);
width = 484;
}
);
leftKerningGroup = p;
rightKerningGroup = A;
unicode = 112;
},
{
glyphname = q;
layers = (
{
anchors = (
{
name = t.uni0302_2;
position = "{251, 424}";
},
{
name = b.uni0326_1_2;
position = "{251, 0}";
}
);
hints = (
{
horizontal = 1;
place = (-259,105);
type = Stem;
},
{
horizontal = 1;
place = (-259,21);
target = up;
type = BottomGhost;
},
{
horizontal = 1;
place = (4,105);
type = Stem;
},
{
horizontal = 1;
place = (336,101);
type = Stem;
},
{
place = (-4,120);
type = Stem;
},
{
place = (214,116);
type = Stem;
},
{
place = (277,119);
type = Stem;
},
{
place = (363,106);
type = Stem;
}
);
layerId = "8E2892BE-3887-47FD-9544-6D763EF7E81E";
shapes = (
{
closed = 1;
nodes = (
(416,-259,o),
(469,-194,o),
(469,-102,cs),
(469,-38,o),
(458,-22,o),
(432,60,c),
(494,81,o),
(553,155,o),
(580,236,cs),
(583,246,o),
(585,255,o),
(585,263,cs),
(585,294,o),
(563,314,o),
(540,314,cs),
(521,314,o),
(501,301,o),
(491,271,cs),
(469,206,o),
(428,162,o),
(365,128,c),
(380,213,o),
(396,290,o),
(396,320,cs),
(396,382,o),
(327,437,o),
(219,437,cs),
(103,437,o),
(-4,332,o),
(-4,177,cs),
(-4,75,o),
(63,4,o),
(149,4,cs),
(177,4,o),
(203,13,o),
(226,27,c),
(219,-19,o),
(214,-66,o),
(214,-111,cs),
(214,-207,o),
(271,-259,o),
(340,-259,cs)
);
},
{
closed = 1;
nodes = (
(138,109,o),
(116,131,o),
(116,181,cs),
(116,262,o),
(167,336,o),
(228,336,cs),
(250,336,o),
(267,330,o),
(277,322,c),
(272,224,o),
(251,109,o),
(175,109,cs)
);
},
{
closed = 1;
nodes = (
(336,-154,o),
(330,-148,o),
(330,-134,cs),
(330,-91,o),
(337,-33,o),
(347,27,c),
(355,-5,o),
(363,-50,o),
(363,-106,cs),
(363,-143,o),
(354,-154,o),
(344,-154,cs)
);
}
);
width = 502;
}
);
leftKerningGroup = a;
rightKerningGroup = A;
unicode = 113;
},
{
glyphname = r;
layers = (
{
anchors = (
{
name = t.uni0302_2;
position = "{190, 410}";
},
{
name = b.uni0326_1_2;
position = "{241, 10}";
}
);
hints = (
{
horizontal = 1;
place = (-15,105);
type = Stem;
},
{
horizontal = 1;
place = (430,-20);
target = down;
type = TopGhost;
},
{
place = (101,120);
type = Stem;
}
);
layerId = "8E2892BE-3887-47FD-9544-6D763EF7E81E";
shapes = (
{
closed = 1;
nodes = (
(379,153,o),
(327,90,o),
(272,90,cs),
(239,90,o),
(221,108,o),
(221,142,cs),
(221,193,o),
(266,275,o),
(290,329,cs),
(298,347,o),
(303,363,o),
(303,373,cs),
(303,405,o),
(278,430,o),
(246,430,cs),
(229,430,o),
(206,422,o),
(189,422,cs),
(144,422,o),
(133,446,o),
(117,464,cs),
(106,477,o),
(93,487,o),
(67,487,cs),
(33,487,o),
(7,459,o),
(7,421,cs),
(7,406,o),
(16,390,o),
(24,381,c),
(14,343,o),
(3,312,o),
(-11,271,cs),
(-14,263,o),
(-15,255,o),
(-15,248,cs),
(-15,218,o),
(8,199,o),
(32,199,cs),
(50,199,o),
(68,210,o),
(78,236,cs),
(91,273,o),
(103,310,o),
(113,340,c),
(128,333,o),
(142,329,o),
(162,324,c),
(129,265,o),
(101,194,o),
(101,135,cs),
(101,47,o),
(164,-15,o),
(256,-15,cs),
(364,-15,o),
(453,71,o),
(510,236,cs),
(513,246,o),
(515,255,o),
(515,263,cs),
(515,294,o),
(494,311,o),
(471,311,cs),
(451,311,o),
(431,299,o),
(421,271,cs)
);
}
);
width = 432;
}
);
leftKerningGroup = r;
rightKerningGroup = A;
unicode = 114;
},
{
glyphname = s;
layers = (
{
anchors = (
{
name = t.uni0302_2;
position = "{125, 460}";
},
{
name = b.uni0326_1_2;
position = "{134, 10}";
}
);
hints = (
{
horizontal = 1;
place = (-9,120);
type = Stem;
},
{
horizontal = 1;
place = (-9,21);
target = up;
type = BottomGhost;
},
{
place = (-15,461);
type = Stem;
},
{
place = (28,161);
type = Stem;
}
);
layerId = "8E2892BE-3887-47FD-9544-6D763EF7E81E";
shapes = (
{
closed = 1;
nodes = (
(335,223,o),
(312,186,o),
(283,159,c),
(269,262,o),
(168,337,o),
(168,374,cs),
(168,389,o),
(189,402,o),
(189,431,cs),
(189,468,o),
(156,488,o),
(119,488,cs),
(76,488,o),
(28,459,o),
(28,397,cs),
(28,391,l),
(12,339,o),
(4,316,o),
(-11,271,cs),
(-14,263,o),
(-15,256,o),
(-15,249,cs),
(-15,219,o),
(9,200,o),
(33,200,cs),
(52,200,o),
(70,211,o),
(78,236,cs),
(91,277,l),
(127,230,o),
(165,182,o),
(165,138,cs),
(165,126,o),
(162,117,o),
(156,111,c),
(152,111,ls),
(111,111,o),
(101,123,o),
(76,123,cs),
(44,123,o),
(20,96,o),
(20,66,cs),
(20,47,o),
(30,26,o),
(54,11,cs),
(76,-3,o),
(101,-9,o),
(126,-9,cs),
(163,-9,o),
(200,3,o),
(230,25,c),
(329,54,o),
(401,124,o),
(441,236,cs),
(444,245,o),
(446,254,o),
(446,261,cs),
(446,292,o),
(423,310,o),
(400,310,cs),
(381,310,o),
(362,298,o),
(352,271,cs)
);
}
);
width = 363;
}
);
leftKerningGroup = r;
rightKerningGroup = A;
unicode = 115;
},
{
glyphname = t;
layers = (
{
anchors = (
{
name = b.uni0326_1_2;
position = "{156, 10}";
}
);
hints = (
{
horizontal = 1;
place = (-14,105);
type = Stem;
},
{
horizontal = 1;
place = (417,100);
type = Stem;
},
{
place = (-1,121);
type = Stem;
},
{
place = (52,121);
type = Stem;
}
);
layerId = "8E2892BE-3887-47FD-9544-6D763EF7E81E";
shapes = (
{
closed = 1;
nodes = (
(270,186,o),
(215,91,o),
(167,91,cs),
(137,91,o),
(120,108,o),
(120,171,cs),
(120,206,o),
(127,269,o),
(139,345,cs),
(142,361,o),
(145,383,o),
(148,407,c),
(180,403,o),
(205,398,o),
(218,398,cs),
(248,398,o),
(268,420,o),
(268,445,cs),
(268,468,o),
(253,493,o),
(214,500,cs),
(197,503,o),
(179,506,o),
(162,508,c),
(168,560,o),
(173,608,o),
(173,628,cs),
(173,665,o),
(144,684,o),
(115,684,cs),
(85,684,o),
(54,665,o),
(52,626,cs),
(51,599,o),
(46,560,o),
(41,517,c),
(-4,516,o),
(-25,494,o),
(-25,466,cs),
(-25,441,o),
(-7,421,o),
(27,417,c),
(24,398,o),
(22,380,o),
(19,363,cs),
(8,293,o),
(-1,222,o),
(-1,176,cs),
(-1,55,o),
(55,-14,o),
(156,-14,cs),
(249,-14,o),
(330,63,o),
(389,236,cs),
(393,247,o),
(394,257,o),
(394,265,cs),
(394,296,o),
(374,313,o),
(351,313,cs),
(331,313,o),
(310,300,o),
(300,271,cs)
);
}
);
width = 311;
}
);
leftKerningGroup = t;
rightKerningGroup = A;
unicode = 116;
},
{
glyphname = u;
layers = (
{
anchors = (
{
name = t.uni0302_2;
position = "{186, 410}";
}
);
hints = (
{
horizontal = 1;
place = (-10,105);
type = Stem;
},
{
horizontal = 1;
place = (440,-20);
target = down;
type = TopGhost;
},
{
place = (-6,120);
type = Stem;
},
{
place = (17,121);
type = Stem;
}
);
layerId = "8E2892BE-3887-47FD-9544-6D763EF7E81E";
shapes = (
{
closed = 1;
nodes = (
(441,163,o),
(404,95,o),
(379,95,cs),
(368,95,o),
(360,103,o),
(360,146,cs),
(360,233,o),
(367,299,o),
(376,375,cs),
(381,418,o),
(350,440,o),
(318,440,cs),
(290,440,o),
(262,423,o),
(258,387,cs),
(256,365,o),
(253,340,o),
(250,315,cs),
(231,172,o),
(186,95,o),
(142,95,cs),
(125,95,o),
(114,106,o),
(114,140,cs),
(114,192,o),
(138,287,o),
(138,352,cs),
(138,404,o),
(97,448,o),
(47,448,cs),
(15,448,o),
(-12,423,o),
(-12,391,cs),
(-12,360,o),
(17,348,o),
(17,332,cs),
(17,302,o),
(-6,203,o),
(-6,120,cs),
(-6,43,o),
(48,-10,o),
(123,-10,cs),
(178,-10,o),
(223,24,o),
(257,85,c),
(276,23,o),
(311,-10,o),
(364,-10,cs),
(450,-10,o),
(519,77,o),
(572,236,cs),
(575,246,o),
(577,255,o),
(577,264,cs),
(577,295,o),
(556,314,o),
(534,314,cs),
(515,314,o),
(494,301,o),
(483,271,cs)
);
}
);
width = 494;
}
);
leftKerningGroup = u;
rightKerningGroup = A;
unicode = 117;
},
{
glyphname = v;
layers = (
{
hints = (
{
horizontal = 1;
place = (-14,105);
type = Stem;
},
{
horizontal = 1;
place = (126,98);
type = Stem;
},
{
place = (0,120);
type = Stem;
},
{
place = (18,120);
type = Stem;
},
{
place = (220,151);
type = Stem;
}
);
layerId = "8E2892BE-3887-47FD-9544-6D763EF7E81E";
shapes = (
{
closed = 1;
nodes = (
(436,241,o),
(413,224,o),
(389,224,cs),
(379,224,o),
(368,227,o),
(359,232,c),
(367,262,o),
(371,293,o),
(371,324,cs),
(371,407,o),
(336,445,o),
(300,445,cs),
(261,445,o),
(220,404,o),
(220,310,cs),
(220,277,o),
(227,248,o),
(238,224,c),
(215,140,o),
(161,91,o),
(138,91,cs),
(126,91,o),
(120,99,o),
(120,128,cs),
(120,201,o),
(138,273,o),
(138,379,cs),
(138,418,o),
(115,442,o),
(79,442,cs),
(43,442,o),
(18,415,o),
(18,377,cs),
(18,270,o),
(0,229,o),
(0,139,cs),
(0,36,o),
(41,-14,o),
(123,-14,cs),
(197,-14,o),
(274,52,o),
(323,141,c),
(345,131,o),
(368,126,o),
(392,126,cs),
(452,126,o),
(511,162,o),
(535,236,cs),
(538,246,o),
(540,255,o),
(540,263,cs),
(540,293,o),
(518,311,o),
(495,311,cs),
(476,311,o),
(455,298,o),
(446,271,cs)
);
}
);
width = 457;
}
);
leftKerningGroup = v;
rightKerningGroup = A;
unicode = 118;
},
{
glyphname = w;
layers = (
{
anchors = (
{
name = t.uni0302_2;
position = "{295, 410}";
}
);
hints = (
{
horizontal = 1;
place = (-19,106);
type = Stem;
},
{
horizontal = 1;
place = (-10,105);
type = Stem;
},
{
horizontal = 1;
place = (125,99);
type = Stem;
},
{
place = (-6,120);
type = Stem;
},
{
place = (17,120);
type = Stem;
},
{
place = (232,120);
type = Stem;
},
{
place = (428,151);
type = Stem;
}
);
layerId = "8E2892BE-3887-47FD-9544-6D763EF7E81E";
shapes = (
{
closed = 1;
nodes = (
(650,240,o),
(628,224,o),
(605,224,cs),
(592,224,o),
(579,228,o),
(568,236,c),
(575,263,o),
(579,292,o),
(579,321,cs),
(579,405,o),
(543,444,o),
(506,444,cs),
(468,444,o),
(428,401,o),
(428,321,cs),
(428,287,o),
(435,257,o),
(447,231,c),
(427,158,o),
(386,95,o),
(353,95,cs),
(340,95,o),
(334,103,o),
(334,125,cs),
(334,166,o),
(352,245,o),
(352,342,cs),
(352,381,o),
(329,405,o),
(293,405,cs),
(257,405,o),
(232,378,o),
(232,340,cs),
(232,302,o),
(230,273,o),
(227,248,c),
(214,163,o),
(180,87,o),
(141,87,cs),
(121,87,o),
(114,98,o),
(114,135,cs),
(114,204,o),
(137,299,o),
(137,369,cs),
(137,416,o),
(117,442,o),
(79,442,cs),
(40,442,o),
(17,415,o),
(17,369,cs),
(17,315,o),
(-6,194,o),
(-6,141,cs),
(-6,41,o),
(47,-19,o),
(113,-19,cs),
(157,-19,o),
(202,7,o),
(239,49,c),
(261,11,o),
(299,-10,o),
(337,-10,cs),
(403,-10,o),
(482,52,o),
(532,142,c),
(555,131,o),
(579,125,o),
(604,125,cs),
(665,125,o),
(723,159,o),
(749,236,cs),
(752,245,o),
(754,254,o),
(754,262,cs),
(754,293,o),
(731,313,o),
(708,313,cs),
(689,313,o),
(669,300,o),
(660,271,cs)
);
}
);
width = 671;
}
);
leftKerningGroup = v;
rightKerningGroup = A;
unicode = 119;
},
{
glyphname = x;
layers = (
{
hints = (
{
horizontal = 1;
place = (-16,105);
type = Stem;
},
{
horizontal = 1;
place = (336,103);
type = Stem;
},
{
horizontal = 1;
place = (431,-20);
target = down;
type = TopGhost;
},
{
place = (-15,595);
type = Stem;
}
);
layerId = "8E2892BE-3887-47FD-9544-6D763EF7E81E";
shapes = (
{
closed = 1;
nodes = (
(448,167,o),
(411,89,o),
(382,89,cs),
(363,89,o),
(348,112,o),
(333,150,cs),
(329,159,o),
(325,170,o),
(321,181,c),
(358,230,o),
(392,283,o),
(417,335,cs),
(424,350,o),
(428,364,o),
(428,377,cs),
(428,409,o),
(402,431,o),
(371,431,cs),
(347,431,o),
(326,414,o),
(312,384,cs),
(301,360,o),
(287,335,o),
(273,311,c),
(258,350,ls),
(236,409,o),
(195,439,o),
(138,439,cs),
(83,439,o),
(41,410,o),
(19,351,cs),
(-11,271,ls),
(-14,264,o),
(-15,257,o),
(-15,250,cs),
(-15,221,o),
(10,200,o),
(34,200,cs),
(51,200,o),
(69,211,o),
(78,236,cs),
(97,290,ls),
(106,316,o),
(116,336,o),
(127,336,cs),
(143,336,o),
(150,310,o),
(169,259,cs),
(176,241,o),
(182,225,o),
(187,210,c),
(150,163,o),
(112,120,o),
(79,84,cs),
(65,69,o),
(58,52,o),
(58,37,cs),
(58,6,o),
(83,-19,o),
(112,-19,cs),
(131,-19,o),
(151,-7,o),
(171,15,cs),
(192,38,o),
(214,63,o),
(236,90,c),
(241,79,ls),
(267,20,o),
(312,-16,o),
(373,-16,cs),
(452,-16,o),
(510,41,o),
(575,236,cs),
(578,246,o),
(580,255,o),
(580,263,cs),
(580,294,o),
(559,312,o),
(536,312,cs),
(517,312,o),
(496,300,o),
(486,271,cs)
);
}
);
width = 497;
}
);
leftKerningGroup = r;
rightKerningGroup = A;
unicode = 120;
},
{
glyphname = y;
layers = (
{
anchors = (
{
name = t.uni0302_2;
position = "{192, 410}";
}
);
hints = (
{
horizontal = 1;
place = (-264,103);
type = Stem;
},
{
horizontal = 1;
place = (10,106);
type = Stem;
},
{
horizontal = 1;
place = (439,-20);
target = down;
type = TopGhost;
},
{
place = (-7,120);
type = Stem;
},
{
place = (17,121);
type = Stem;
},
{
place = (65,104);
type = Stem;
},
{
place = (236,122);
type = Stem;
}
);
layerId = "8E2892BE-3887-47FD-9544-6D763EF7E81E";
shapes = (
{
closed = 1;
nodes = (
(437,204,o),
(404,143,o),
(359,95,c),
(359,102,o),
(359,109,o),
(360,116,cs),
(366,197,o),
(374,295,o),
(380,373,cs),
(384,417,o),
(353,439,o),
(322,439,cs),
(293,439,o),
(264,421,o),
(261,384,cs),
(259,359,o),
(256,332,o),
(254,304,cs),
(242,178,o),
(196,116,o),
(147,116,cs),
(124,116,o),
(113,127,o),
(113,155,cs),
(113,203,o),
(138,295,o),
(138,359,cs),
(138,411,o),
(97,455,o),
(47,455,cs),
(13,455,o),
(-12,433,o),
(-12,401,cs),
(-12,367,o),
(17,361,o),
(17,340,cs),
(17,310,o),
(-7,216,o),
(-7,137,cs),
(-7,61,o),
(45,10,o),
(117,10,cs),
(163,10,o),
(203,32,o),
(238,71,c),
(235,14,l),
(151,-33,o),
(65,-67,o),
(65,-162,cs),
(65,-219,o),
(114,-264,o),
(174,-264,cs),
(266,-264,o),
(330,-174,o),
(348,-47,c),
(348,-45,o),
(349,-41,o),
(349,-35,c),
(441,26,o),
(509,115,o),
(549,236,cs),
(552,246,o),
(554,255,o),
(554,263,cs),
(554,294,o),
(532,313,o),
(509,313,cs),
(490,313,o),
(470,300,o),
(460,271,cs)
);
},
{
closed = 1;
nodes = (
(175,-161,o),
(169,-155,o),
(169,-145,cs),
(169,-130,o),
(192,-113,o),
(225,-94,c),
(218,-138,o),
(207,-161,o),
(187,-161,cs)
);
}
);
width = 471;
}
);
leftKerningGroup = u;
rightKerningGroup = A;
unicode = 121;
},
{
glyphname = z;
layers = (
{
anchors = (
{
name = t.uni0302_2;
position = "{207, 410}";
}
);
hints = (
{
horizontal = 1;
place = (-22,104);
type = Stem;
},
{
horizontal = 1;
place = (-15,21);
target = up;
type = BottomGhost;
},
{
horizontal = 1;
place = (-6,21);
target = up;
type = BottomGhost;
},
{
place = (-15,530);
type = Stem;
}
);
layerId = "8E2892BE-3887-47FD-9544-6D763EF7E81E";
shapes = (
{
closed = 1;
nodes = (
(389,179,o),
(324,82,o),
(279,82,cs),
(260,82,o),
(241,88,o),
(220,92,cs),
(216,93,o),
(212,93,o),
(208,94,c),
(269,157,o),
(334,251,o),
(351,337,cs),
(352,342,o),
(353,349,o),
(353,359,cs),
(353,392,o),
(334,412,o),
(302,412,cs),
(284,412,o),
(265,405,o),
(242,405,cs),
(182,405,o),
(155,429,o),
(134,451,cs),
(116,470,o),
(102,487,o),
(76,487,cs),
(44,487,o),
(17,462,o),
(17,428,cs),
(17,419,o),
(21,399,o),
(24,389,c),
(15,349,o),
(6,320,o),
(-11,271,cs),
(-13,264,o),
(-15,257,o),
(-15,250,cs),
(-15,220,o),
(9,198,o),
(34,198,cs),
(52,198,o),
(69,209,o),
(78,236,cs),
(88,266,o),
(99,302,o),
(108,335,c),
(136,321,o),
(181,308,o),
(215,301,c),
(171,202,o),
(105,139,o),
(58,98,cs),
(41,83,o),
(32,61,o),
(32,40,cs),
(32,10,o),
(59,-15,o),
(96,-15,cs),
(109,-15,o),
(147,-6,o),
(176,-6,cs),
(220,-6,o),
(246,-22,o),
(293,-22,cs),
(369,-22,o),
(458,79,o),
(510,236,cs),
(513,246,o),
(515,255,o),
(515,263,cs),
(515,294,o),
(493,313,o),
(470,313,cs),
(451,313,o),
(431,300,o),
(421,271,cs)
);
}
);
width = 432;
}
);
leftKerningGroup = r;
rightKerningGroup = A;
unicode = 122;
},
{
glyphname = braceleft;
layers = (
{
hints = (
{
horizontal = 1;
place = (-27,105);
type = Stem;
},
{
horizontal = 1;
place = (602,103);
type = Stem;
},
{
place = (130,111);
type = Stem;
},
{
place = (135,111);
type = Stem;
}
);
layerId = "8E2892BE-3887-47FD-9544-6D763EF7E81E";
shapes = (
{
closed = 1;
nodes = (
(278,81,o),
(269,78,o),
(263,78,cs),
(247,78,o),
(238,95,o),
(238,127,cs),
(238,152,o),
(246,226,o),
(246,261,cs),
(246,298,o),
(223,323,o),
(203,340,c),
(221,354,o),
(241,378,o),
(241,421,cs),
(241,449,o),
(236,543,o),
(236,557,cs),
(236,586,o),
(244,602,o),
(261,602,cs),
(268,602,o),
(277,599,o),
(288,592,cs),
(300,585,o),
(312,582,o),
(322,582,cs),
(351,582,o),
(371,604,o),
(371,630,cs),
(371,647,o),
(362,666,o),
(340,680,cs),
(316,695,o),
(285,705,o),
(258,705,cs),
(175,705,o),
(124,646,o),
(124,551,cs),
(124,532,o),
(130,472,o),
(130,432,cs),
(130,406,o),
(122,402,o),
(111,396,cs),
(74,377,o),
(60,366,o),
(60,342,cs),
(60,316,o),
(76,304,o),
(111,288,cs),
(123,283,o),
(135,276,o),
(135,252,cs),
(135,214,o),
(126,157,o),
(126,133,cs),
(126,28,o),
(171,-27,o),
(259,-27,cs),
(288,-27,o),
(317,-17,o),
(339,1,cs),
(358,17,o),
(366,37,o),
(366,54,cs),
(366,80,o),
(349,102,o),
(323,102,cs),
(312,102,o),
(300,97,o),
(287,88,cs)
);
}
);
width = 411;
}
);
unicode = 123;
},
{
glyphname = bar;
layers = (
{
hints = (
{
horizontal = 1;
place = (-274,1003);
type = Stem;
},
{
place = (66,120);
type = Stem;
}
);
layerId = "8E2892BE-3887-47FD-9544-6D763EF7E81E";
shapes = (
{
closed = 1;
nodes = (
(144,-274,o),
(173,-254,o),
(174,-214,cs),
(178,-72,o),
(186,112,o),
(186,283,cs),
(186,415,o),
(182,551,o),
(171,668,cs),
(167,710,o),
(139,729,o),
(111,729,cs),
(81,729,o),
(50,706,o),
(50,667,cs),
(50,633,o),
(66,532,o),
(66,294,cs),
(66,123,o),
(54,-129,o),
(54,-210,cs),
(54,-252,o),
(85,-274,o),
(115,-274,cs)
);
}
);
width = 236;
}
);
unicode = 124;
},
{
glyphname = braceright;
layers = (
{
hints = (
{
horizontal = 1;
place = (-27,105);
type = Stem;
},
{
horizontal = 1;
place = (602,103);
type = Stem;
},
{
place = (165,120);
type = Stem;
},
{
place = (170,117);
type = Stem;
}
);
layerId = "8E2892BE-3887-47FD-9544-6D763EF7E81E";
shapes = (
{
closed = 1;
nodes = (
(290,401,o),
(282,405,o),
(281,424,cs),
(279,463,o),
(287,531,o),
(287,551,cs),
(287,646,o),
(236,705,o),
(153,705,cs),
(126,705,o),
(95,695,o),
(71,680,cs),
(49,666,o),
(40,648,o),
(40,631,cs),
(40,605,o),
(60,582,o),
(89,582,cs),
(99,582,o),
(111,585,o),
(123,592,cs),
(134,599,o),
(143,602,o),
(150,602,cs),
(167,602,o),
(175,586,o),
(175,557,cs),
(175,543,o),
(170,449,o),
(170,421,cs),
(170,378,o),
(190,354,o),
(208,340,c),
(188,323,o),
(165,298,o),
(165,261,cs),
(165,226,o),
(173,152,o),
(173,127,cs),
(173,95,o),
(164,78,o),
(148,78,cs),
(142,78,o),
(133,81,o),
(124,88,cs),
(111,97,o),
(99,101,o),
(88,101,cs),
(62,101,o),
(44,80,o),
(44,54,cs),
(44,36,o),
(52,17,o),
(72,1,cs),
(94,-17,o),
(123,-27,o),
(152,-27,cs),
(240,-27,o),
(285,28,o),
(285,133,cs),
(285,158,o),
(274,220,o),
(276,258,cs),
(277,277,o),
(289,283,o),
(300,288,cs),
(335,304,o),
(351,316,o),
(351,342,cs),
(351,366,o),
(337,377,o),
(300,396,cs)
);
}
);
width = 411;
}
);
unicode = 125;
},
{
glyphname = asciitilde;
layers = (
{
hints = (
{
horizontal = 1;
place = (268,111);
type = Stem;
},
{
horizontal = 1;
place = (268,149);
type = Stem;
},
{
horizontal = 1;
place = (302,112);
type = Stem;
},
{
place = (30,340);
type = Stem;
}
);
layerId = "8E2892BE-3887-47FD-9544-6D763EF7E81E";
shapes = (
{
closed = 1;
nodes = (
(264,385,o),
(258,379,o),
(249,379,cs),
(225,379,o),
(174,414,o),
(137,414,cs),
(106,414,o),
(72,396,o),
(44,362,cs),
(34,350,o),
(30,337,o),
(30,324,cs),
(30,295,o),
(55,270,o),
(83,270,cs),
(95,270,o),
(107,274,o),
(118,284,cs),
(131,296,o),
(139,302,o),
(150,302,cs),
(168,302,o),
(222,268,o),
(262,268,cs),
(297,268,o),
(332,289,o),
(358,331,cs),
(366,344,o),
(370,356,o),
(370,367,cs),
(370,396,o),
(345,417,o),
(317,417,cs),
(303,417,o),
(288,411,o),
(275,397,cs)
);
}
);
width = 400;
}
);
unicode = 126;
},
{
glyphname = exclamdown;
layers = (
{
hints = (
{
horizontal = 1;
place = (-258,21);
target = up;
type = BottomGhost;
},
{
horizontal = 1;
place = (368,145);
type = Stem;
},
{
place = (30,145);
type = Stem;
},
{
place = (54,121);
type = Stem;
}
);
layerId = "8E2892BE-3887-47FD-9544-6D763EF7E81E";
shapes = (
{
closed = 1;
nodes = (
(62,513,o),
(30,481,o),
(30,440,cs),
(30,400,o),
(62,368,o),
(103,368,cs),
(143,368,o),
(175,400,o),
(175,440,cs),
(175,481,o),
(143,513,o),
(103,513,cs)
);
},
{
closed = 1;
nodes = (
(75,329,o),
(43,305,o),
(46,259,cs),
(51,170,o),
(54,77,o),
(54,-7,cs),
(54,-74,o),
(52,-135,o),
(48,-182,cs),
(44,-232,o),
(75,-258,o),
(106,-258,cs),
(135,-258,o),
(165,-236,o),
(168,-193,cs),
(172,-140,o),
(175,-67,o),
(175,13,cs),
(175,93,o),
(172,181,o),
(166,267,cs),
(163,309,o),
(135,329,o),
(106,329,cs)
);
}
);
width = 205;
}
);
leftKerningGroup = colon;
unicode = 161;
},
{
glyphname = cent;
layers = (
{
hints = (
{
horizontal = 1;
place = (-17,21);
target = up;
type = BottomGhost;
},
{
horizontal = 1;
place = (-14,21);
target = up;
type = BottomGhost;
},
{
place = (23,120);
type = Stem;
},
{
place = (194,109);
type = Stem;
},
{
place = (199,110);
type = Stem;
},
{
place = (203,114);
type = Stem;
},
{
place = (351,115);
type = Stem;
}
);
layerId = "8E2892BE-3887-47FD-9544-6D763EF7E81E";
shapes = (
{
closed = 1;
nodes = (
(485,282,o),
(463,269,o),
(449,240,cs),
(412,164,o),
(368,114,o),
(312,95,c),
(316,167,o),
(318,243,o),
(318,314,cs),
(318,351,o),
(317,386,o),
(316,420,c),
(337,411,o),
(351,394,o),
(351,370,cs),
(351,328,o),
(379,307,o),
(408,307,cs),
(438,307,o),
(466,329,o),
(466,374,cs),
(466,458,o),
(403,517,o),
(311,529,c),
(308,567,ls),
(304,606,o),
(278,625,o),
(252,625,cs),
(225,625,o),
(199,604,o),
(199,564,cs),
(199,560,o),
(201,545,o),
(203,520,c),
(94,485,o),
(23,372,o),
(23,234,cs),
(23,106,o),
(87,13,o),
(195,-14,c),
(194,-27,o),
(194,-39,o),
(194,-50,cs),
(194,-91,o),
(220,-113,o),
(247,-113,cs),
(272,-113,o),
(297,-94,o),
(302,-53,c),
(305,-17,l),
(409,-1,o),
(496,72,o),
(548,198,cs),
(553,210,o),
(555,220,o),
(555,230,cs),
(555,262,o),
(532,282,o),
(506,282,cs)
);
},
{
closed = 1;
nodes = (
(143,322,o),
(172,374,o),
(209,402,c),
(209,381,o),
(209,358,o),
(208,334,cs),
(199,101,l),
(162,122,o),
(143,168,o),
(143,240,cs)
);
}
);
width = 578;
}
);
unicode = 162;
},
{
glyphname = sterling;
layers = (
{
hints = (
{
horizontal = 1;
place = (-20,109);
type = Stem;
},
{
horizontal = 1;
place = (-12,21);
target = up;
type = BottomGhost;
},
{
horizontal = 1;
place = (306,102);
type = Stem;
},
{
horizontal = 1;
place = (613,108);
type = Stem;
},
{
place = (92,118);
type = Stem;
},
{
place = (112,118);
type = Stem;
},
{
place = (360,115);
type = Stem;
}
);
layerId = "8E2892BE-3887-47FD-9544-6D763EF7E81E";
shapes = (
{
closed = 1;
nodes = (
(397,214,o),
(371,198,o),
(365,162,cs),
(357,114,o),
(337,89,o),
(310,89,cs),
(289,89,o),
(233,109,o),
(211,116,c),
(222,141,o),
(230,173,o),
(230,208,cs),
(230,232,o),
(226,268,o),
(222,306,c),
(249,306,ls),
(290,306,o),
(310,331,o),
(310,356,cs),
(310,382,o),
(290,408,o),
(249,408,cs),
(212,408,l),
(211,425,o),
(210,441,o),
(210,454,cs),
(210,547,o),
(246,613,o),
(302,613,cs),
(336,613,o),
(360,592,o),
(360,564,cs),
(360,542,o),
(348,537,o),
(348,509,cs),
(348,476,o),
(375,454,o),
(403,454,cs),
(424,454,o),
(446,465,o),
(458,493,cs),
(468,516,o),
(475,546,o),
(475,572,cs),
(475,659,o),
(402,721,o),
(297,721,cs),
(173,721,o),
(92,613,o),
(92,454,cs),
(92,440,o),
(93,424,o),
(94,409,c),
(60,406,o),
(42,382,o),
(42,359,cs),
(42,333,o),
(62,307,o),
(101,307,cs),
(104,307,l),
(108,269,o),
(112,234,o),
(112,208,cs),
(112,158,o),
(102,144,o),
(45,109,cs),
(22,95,o),
(13,74,o),
(13,54,cs),
(13,21,o),
(38,-12,o),
(73,-12,cs),
(84,-12,o),
(96,-8,o),
(109,-1,cs),
(121,6,o),
(143,21,o),
(152,21,cs),
(179,21,o),
(252,-20,o),
(310,-20,cs),
(417,-20,o),
(480,72,o),
(480,156,cs),
(480,193,o),
(452,214,o),
(423,214,cs)
);
}
);
width = 492;
}
);
unicode = 163;
},
{
glyphname = currency;
layers = (
{
hints = (
{
horizontal = 1;
place = (-16,21);
target = up;
type = BottomGhost;
},
{
horizontal = 1;
place = (-12,21);
target = up;
type = BottomGhost;
},
{
horizontal = 1;
place = (36,108);
type = Stem;
},
{
horizontal = 1;
place = (452,108);
type = Stem;
},
{
place = (16,117);
type = Stem;
},
{
place = (335,117);
type = Stem;
}
);
layerId = "8E2892BE-3887-47FD-9544-6D763EF7E81E";
shapes = (
{
closed = 1;
nodes = (
(404,131,l),
(434,178,o),
(452,238,o),
(452,307,cs),
(452,372,o),
(435,428,o),
(406,471,c),
(426,495,ls),
(438,510,o),
(443,525,o),
(443,539,cs),
(443,570,o),
(417,594,o),
(388,594,cs),
(371,594,o),
(353,587,o),
(337,568,cs),
(318,545,l),
(294,555,o),
(267,560,o),
(238,560,cs),
(208,560,o),
(179,554,o),
(154,542,c),
(131,567,ls),
(115,584,o),
(98,591,o),
(82,591,cs),
(52,591,o),
(26,565,o),
(26,534,cs),
(26,519,o),
(31,503,o),
(45,488,cs),
(65,466,l),
(34,420,o),
(16,360,o),
(16,292,cs),
(16,227,o),
(32,171,o),
(61,127,c),
(30,86,ls),
(19,71,o),
(14,57,o),
(14,43,cs),
(14,12,o),
(40,-12,o),
(70,-12,cs),
(87,-12,o),
(106,-4,o),
(122,17,cs),
(149,53,l),
(175,42,o),
(203,36,o),
(233,36,cs),
(263,36,o),
(291,42,o),
(316,54,c),
(345,14,ls),
(360,-7,o),
(379,-16,o),
(396,-16,cs),
(427,-16,o),
(454,10,o),
(454,43,cs),
(454,56,o),
(450,70,o),
(439,84,cs)
);
},
{
closed = 1;
nodes = (
(133,386,o),
(178,452,o),
(238,452,cs),
(296,452,o),
(335,395,o),
(335,305,cs),
(335,210,o),
(291,144,o),
(233,144,cs),
(174,144,o),
(133,201,o),
(133,291,cs)
);
}
);
width = 470;
}
);
unicode = 164;
},
{
glyphname = yen;
layers = (
{
hints = (
{
horizontal = 1;
place = (108,100);
type = Stem;
},
{
horizontal = 1;
place = (242,100);
type = Stem;
},
{
place = (12,437);
type = Stem;
},
{
place = (121,124);
type = Stem;
},
{
place = (145,119);
type = Stem;
}
);
layerId = "8E2892BE-3887-47FD-9544-6D763EF7E81E";
shapes = (
{
closed = 1;
nodes = (
(449,675,o),
(421,699,o),
(392,699,cs),
(371,699,o),
(350,687,o),
(336,658,cs),
(302,587,o),
(255,488,o),
(217,411,c),
(189,472,o),
(156,569,o),
(132,651,cs),
(121,688,o),
(95,704,o),
(70,704,cs),
(39,704,o),
(12,682,o),
(12,645,cs),
(12,600,o),
(66,452,o),
(123,344,c),
(109,344,ls),
(68,344,o),
(47,319,o),
(47,294,cs),
(47,269,o),
(68,244,o),
(109,244,cs),
(145,244,l),
(144,232,o),
(142,220,o),
(141,210,c),
(107,210,ls),
(66,210,o),
(45,185,o),
(45,160,cs),
(45,135,o),
(66,110,o),
(107,110,cs),
(128,110,l),
(123,72,o),
(121,53,o),
(121,41,cs),
(121,3,o),
(150,-19,o),
(180,-19,cs),
(208,-19,o),
(236,-1,o),
(241,37,cs),
(250,109,l),
(298,108,l),
(338,108,o),
(359,133,o),
(359,158,cs),
(359,183,o),
(339,208,o),
(299,208,cs),
(262,208,l),
(266,242,l),
(317,242,ls),
(357,242,o),
(377,267,o),
(377,292,cs),
(377,317,o),
(357,342,o),
(318,342,cs),
(303,342,l),
(351,433,o),
(398,526,o),
(439,603,cs),
(446,616,o),
(449,628,o),
(449,640,cs)
);
}
);
width = 467;
}
);
unicode = 165;
},
{
glyphname = brokenbar;
layers = (
{
hints = (
{
horizontal = 1;
place = (-276,1007);
type = Stem;
},
{
place = (54,132);
type = Stem;
}
);
layerId = "8E2892BE-3887-47FD-9544-6D763EF7E81E";
shapes = (
{
closed = 1;
nodes = (
(156,265,o),
(186,287,o),
(186,331,cs),
(186,450,o),
(181,566,o),
(171,670,cs),
(167,712,o),
(138,731,o),
(110,731,cs),
(80,731,o),
(50,709,o),
(50,669,cs),
(50,635,o),
(66,570,o),
(66,330,cs),
(66,287,o),
(97,265,o),
(127,265,cs)
);
},
{
closed = 1;
nodes = (
(144,-276,o),
(173,-256,o),
(174,-215,cs),
(176,-136,o),
(186,28,o),
(186,119,cs),
(186,164,o),
(156,186,o),
(126,186,cs),
(97,186,o),
(67,165,o),
(66,122,cs),
(65,65,o),
(54,-172,o),
(54,-213,cs),
(54,-255,o),
(84,-276,o),
(114,-276,cs)
);
}
);
width = 236;
}
);
unicode = 166;
},
{
glyphname = section;
layers = (
{
hints = (
{
horizontal = 1;
place = (-20,106);
type = Stem;
},
{
horizontal = 1;
place = (608,108);
type = Stem;
},
{
place = (30,113);
type = Stem;
},
{
place = (57,112);
type = Stem;
},
{
place = (69,113);
type = Stem;
},
{
place = (238,113);
type = Stem;
},
{
place = (251,109);
type = Stem;
}
);
layerId = "8E2892BE-3887-47FD-9544-6D763EF7E81E";
shapes = (
{
closed = 1;
nodes = (
(360,470,o),
(182,533,o),
(182,586,cs),
(182,599,o),
(192,608,o),
(207,608,cs),
(222,608,o),
(241,600,o),
(257,580,cs),
(269,565,o),
(284,559,o),
(299,559,cs),
(327,559,o),
(352,583,o),
(352,613,cs),
(352,625,o),
(348,638,o),
(338,650,cs),
(302,693,o),
(252,716,o),
(204,716,cs),
(134,716,o),
(69,672,o),
(69,592,cs),
(69,553,o),
(86,522,o),
(109,494,c),
(76,466,o),
(57,430,o),
(57,388,cs),
(57,268,o),
(238,203,o),
(238,133,cs),
(238,101,o),
(215,86,o),
(191,86,cs),
(167,86,o),
(143,102,o),
(143,133,cs),
(143,143,o),
(148,162,o),
(148,172,cs),
(148,205,o),
(121,223,o),
(94,223,cs),
(48,223,o),
(30,180,o),
(30,131,cs),
(30,32,o),
(112,-20,o),
(194,-20,cs),
(273,-20,o),
(351,29,o),
(351,129,cs),
(351,163,o),
(339,194,o),
(320,221,c),
(346,255,o),
(360,292,o),
(360,330,cs)
);
},
{
closed = 1;
nodes = (
(169,401,o),
(174,413,o),
(185,424,c),
(221,393,o),
(251,364,o),
(251,329,cs),
(251,318,o),
(250,308,o),
(246,300,c),
(206,335,o),
(169,364,o),
(169,389,cs)
);
}
);
width = 390;
}
);
unicode = 167;
},
{
glyphname = dieresis;
layers = (
{
hints = (
{
horizontal = 1;
place = (760,128);
type = Stem;
},
{
place = (30,128);
type = Stem;
},
{
place = (198,128);
type = Stem;
}
);
layerId = "8E2892BE-3887-47FD-9544-6D763EF7E81E";
shapes = (
{
closed = 1;
nodes = (
(129,760,o),
(158,789,o),
(158,824,cs),
(158,859,o),
(129,888,o),
(94,888,cs),
(59,888,o),
(30,859,o),
(30,824,cs),
(30,789,o),
(59,760,o),
(94,760,cs)
);
},
{
closed = 1;
nodes = (
(297,760,o),
(326,789,o),
(326,824,cs),
(326,859,o),
(297,888,o),
(262,888,cs),
(227,888,o),
(198,859,o),
(198,824,cs),
(198,789,o),
(227,760,o),
(262,760,cs)
);
}
);
width = 366;
}
);
unicode = 168;
},
{
glyphname = copyright;
layers = (
{
hints = (
{
horizontal = 1;
place = (19,105);
type = Stem;
},
{
horizontal = 1;
place = (156,101);
type = Stem;
},
{
horizontal = 1;
place = (397,97);
type = Stem;
},
{
horizontal = 1;
place = (525,105);
type = Stem;
},
{
place = (30,113);
type = Stem;
},
{
place = (192,104);
type = Stem;
},
{
place = (351,93);
type = Stem;
},
{
place = (527,113);
type = Stem;
}
);
layerId = "8E2892BE-3887-47FD-9544-6D763EF7E81E";
shapes = (
{
closed = 1;
nodes = (
(146,630,o),
(30,464,o),
(30,305,cs),
(30,159,o),
(123,19,o),
(323,19,cs),
(531,19,o),
(640,187,o),
(640,346,cs),
(640,491,o),
(550,630,o),
(363,630,cs)
);
},
{
closed = 1;
nodes = (
(473,525,o),
(527,436,o),
(527,342,cs),
(527,236,o),
(459,124,o),
(328,124,cs),
(203,124,o),
(143,213,o),
(143,307,cs),
(143,413,o),
(217,525,o),
(359,525,cs)
);
},
{
closed = 1;
nodes = (
(381,268,o),
(361,257,o),
(342,257,cs),
(317,257,o),
(296,279,o),
(296,323,cs),
(296,364,o),
(315,397,o),
(336,397,cs),
(346,397,o),
(351,392,o),
(351,379,cs),
(351,351,o),
(372,336,o),
(393,336,cs),
(418,336,o),
(444,354,o),
(444,391,cs),
(444,451,o),
(399,494,o),
(337,494,cs),
(254,494,o),
(192,416,o),
(192,316,cs),
(192,214,o),
(262,156,o),
(337,156,cs),
(386,156,o),
(436,180,o),
(472,231,cs),
(481,244,o),
(485,257,o),
(485,269,cs),
(485,296,o),
(464,316,o),
(440,316,cs),
(426,316,o),
(411,308,o),
(398,291,cs)
);
}
);
width = 670;
}
);
unicode = 169;
},
{
glyphname = guillemotleft;
layers = (
{
hints = (
{
horizontal = 1;
place = (146,307);
type = Stem;
},
{
place = (20,400);
type = Stem;
}
);
layerId = "8E2892BE-3887-47FD-9544-6D763EF7E81E";
shapes = (
{
closed = 1;
nodes = (
(215,171,o),
(220,185,o),
(220,200,cs),
(220,215,o),
(215,230,o),
(203,244,cs),
(194,255,o),
(171,282,o),
(159,297,cs),
(154,303,o),
(152,305,o),
(152,308,cs),
(152,310,o),
(155,313,o),
(161,319,cs),
(172,330,o),
(189,345,o),
(197,353,cs),
(211,367,o),
(219,385,o),
(219,402,cs),
(219,414,o),
(215,426,o),
(206,436,cs),
(196,447,o),
(182,453,o),
(168,453,cs),
(153,453,o),
(137,446,o),
(123,434,cs),
(83,399,o),
(46,361,o),
(29,333,cs),
(23,323,o),
(20,316,o),
(20,308,cs),
(20,301,o),
(23,294,o),
(28,283,cs),
(42,254,o),
(79,210,o),
(120,169,cs),
(135,154,o),
(152,146,o),
(169,146,cs),
(181,146,o),
(193,150,o),
(203,160,cs)
);
},
{
closed = 1;
nodes = (
(415,171,o),
(420,185,o),
(420,200,cs),
(420,215,o),
(415,230,o),
(403,244,cs),
(394,255,o),
(371,282,o),
(359,297,cs),
(354,303,o),
(352,305,o),
(352,308,cs),
(352,310,o),
(355,313,o),
(361,319,cs),
(372,330,o),
(389,345,o),
(397,353,cs),
(411,367,o),
(419,385,o),
(419,402,cs),
(419,414,o),
(415,426,o),
(406,436,cs),
(396,447,o),
(382,453,o),
(368,453,cs),
(353,453,o),
(337,446,o),
(323,434,cs),
(283,399,o),
(246,361,o),
(229,333,cs),
(223,323,o),
(220,316,o),
(220,308,cs),
(220,301,o),
(223,294,o),
(228,283,cs),
(242,254,o),
(279,210,o),
(320,169,cs),
(335,154,o),
(352,146,o),
(369,146,cs),
(381,146,o),
(393,150,o),
(403,160,cs)
);
}
);
width = 440;
}
);
leftKerningGroup = guillemotleft;
rightKerningGroup = guillemotleft2;
unicode = 171;
},
{
glyphname = logicalnot;
layers = (
{
hints = (
{
horizontal = 1;
place = (284,110);
type = Stem;
},
{
place = (275,114);
type = Stem;
}
);
layerId = "8E2892BE-3887-47FD-9544-6D763EF7E81E";
shapes = (
{
closed = 1;
nodes = (
(389,335,ls),
(389,370,o),
(365,394,o),
(330,394,cs),
(93,394,ls),
(51,394,o),
(30,367,o),
(30,339,cs),
(30,312,o),
(51,284,o),
(93,284,cs),
(265,284,ls),
(272,284,o),
(275,280,o),
(275,274,cs),
(275,254,ls),
(275,212,o),
(304,191,o),
(332,191,cs),
(361,191,o),
(389,212,o),
(389,254,cs)
);
}
);
width = 419;
}
);
unicode = 172;
},
{
glyphname = uni00AD;
layers = (
{
hints = (
{
horizontal = 1;
place = (217,102);
type = Stem;
},
{
place = (100,295);
type = Stem;
}
);
layerId = "8E2892BE-3887-47FD-9544-6D763EF7E81E";
shapes = (
{
closed = 1;
nodes = (
(378,217,o),
(395,242,o),
(395,267,cs),
(395,291,o),
(377,317,o),
(340,317,c),
(278,318,o),
(215,319,o),
(154,319,cs),
(117,319,o),
(100,294,o),
(100,269,cs),
(100,245,o),
(118,219,o),
(155,219,c),
(217,218,o),
(280,217,o),
(341,217,cs)
);
}
);
width = 475;
}
);
unicode = 173;
},
{
glyphname = registered;
layers = (
{
hints = (
{
horizontal = 1;
place = (248,86);
type = Stem;
},
{
horizontal = 1;
place = (439,54);
type = Stem;
},
{
horizontal = 1;
place = (546,61);
type = Stem;
},
{
horizontal = 1;
place = (637,86);
type = Stem;
},
{
place = (30,98);
type = Stem;
},
{
place = (191,70);
type = Stem;
},
{
place = (300,61);
type = Stem;
},
{
place = (410,99);
type = Stem;
}
);
layerId = "8E2892BE-3887-47FD-9544-6D763EF7E81E";
shapes = (
{
closed = 1;
nodes = (
(116,723,o),
(30,597,o),
(30,475,cs),
(30,360,o),
(106,248,o),
(266,248,cs),
(426,248,o),
(509,373,o),
(509,495,cs),
(509,611,o),
(435,723,o),
(280,723,cs)
);
},
{
closed = 1;
nodes = (
(173,334,o),
(128,405,o),
(128,479,cs),
(128,557,o),
(181,637,o),
(280,637,cs),
(368,637,o),
(410,567,o),
(410,494,cs),
(410,415,o),
(361,334,o),
(269,334,cs)
);
},
{
closed = 1;
nodes = (
(361,567,o),
(331,607,o),
(268,607,cs),
(244,607,o),
(215,594,o),
(194,577,c),
(188,413,ls),
(187,385,o),
(205,371,o),
(222,371,cs),
(239,371,o),
(256,384,o),
(257,410,cs),
(258,440,l),
(261,439,o),
(264,439,o),
(267,439,cs),
(272,439,l),
(277,424,o),
(283,408,o),
(294,394,cs),
(305,380,o),
(316,375,o),
(327,375,cs),
(345,375,o),
(359,389,o),
(359,408,cs),
(359,416,o),
(357,425,o),
(351,434,cs),
(346,442,o),
(341,450,o),
(334,464,c),
(352,480,o),
(361,503,o),
(361,525,cs)
);
},
{
closed = 1;
nodes = (
(262,540,l),
(265,544,o),
(271,546,o),
(276,546,cs),
(292,546,o),
(300,534,o),
(300,521,cs),
(300,507,o),
(291,493,o),
(275,493,cs),
(270,493,o),
(265,494,o),
(260,495,c)
);
}
);
width = 539;
}
);
unicode = 174;
},
{
glyphname = macron;
layers = (
{
hints = (
{
horizontal = 1;
place = (772,109);
type = Stem;
},
{
place = (30,267);
type = Stem;
}
);
layerId = "8E2892BE-3887-47FD-9544-6D763EF7E81E";
shapes = (
{
closed = 1;
nodes = (
(234,770,ls),
(276,769,o),
(297,797,o),
(297,825,cs),
(297,853,o),
(276,881,o),
(234,881,c),
(93,883,ls),
(51,884,o),
(30,856,o),
(30,828,cs),
(30,800,o),
(50,772,o),
(93,772,c)
);
}
);
width = 327;
}
);
unicode = 175;
},
{
glyphname = degree;
layers = (
{
hints = (
{
horizontal = 1;
place = (453,95);
type = Stem;
},
{
horizontal = 1;
place = (601,95);
type = Stem;
},
{
place = (20,100);
type = Stem;
},
{
place = (174,98);
type = Stem;
}
);
layerId = "8E2892BE-3887-47FD-9544-6D763EF7E81E";
shapes = (
{
closed = 1;
nodes = (
(224,453,o),
(272,523,o),
(272,588,cs),
(272,644,o),
(236,696,o),
(158,696,cs),
(69,696,o),
(20,626,o),
(20,561,cs),
(20,505,o),
(57,453,o),
(137,453,cs)
);
},
{
closed = 1;
nodes = (
(127,548,o),
(120,558,o),
(120,570,cs),
(120,584,o),
(131,601,o),
(151,601,cs),
(167,601,o),
(174,591,o),
(174,579,cs),
(174,565,o),
(162,548,o),
(143,548,cs)
);
}
);
width = 292;
}
);
unicode = 176;
},
{
glyphname = plusminus;
layers = (
{
hints = (
{
horizontal = 1;
place = (134,100);
type = Stem;
},
{
horizontal = 1;
place = (361,100);
type = Stem;
},
{
place = (136,112);
type = Stem;
}
);
layerId = "8E2892BE-3887-47FD-9544-6D763EF7E81E";
shapes = (
{
closed = 1;
nodes = (
(134,361,l),
(134,332,ls),
(134,292,o),
(162,272,o),
(190,272,cs),
(219,272,o),
(247,292,o),
(247,332,cs),
(247,360,l),
(293,360,ls),
(333,360,o),
(353,385,o),
(353,410,cs),
(353,435,o),
(333,460,o),
(293,460,cs),
(248,460,l),
(248,507,ls),
(248,545,o),
(220,564,o),
(192,564,cs),
(164,564,o),
(136,546,o),
(136,508,c),
(135,461,l),
(87,461,ls),
(49,461,o),
(30,436,o),
(30,411,cs),
(30,386,o),
(49,361,o),
(87,361,cs)
);
},
{
closed = 1;
nodes = (
(87,235,l),
(49,235,o),
(30,210,o),
(30,185,cs),
(30,160,o),
(49,135,o),
(87,135,c),
(293,134,l),
(333,134,o),
(353,159,o),
(353,184,cs),
(353,209,o),
(333,234,o),
(293,234,c)
);
}
);
width = 383;
}
);
unicode = 177;
},
{
glyphname = uni00B2;
layers = (
{
hints = (
{
horizontal = 1;
place = (356,93);
type = Stem;
},
{
horizontal = 1;
place = (356,379);
type = Stem;
},
{
horizontal = 1;
place = (637,98);
type = Stem;
},
{
place = (31,90);
type = Stem;
},
{
place = (146,94);
type = Stem;
}
);
layerId = "8E2892BE-3887-47FD-9544-6D763EF7E81E";
shapes = (
{
closed = 1;
nodes = (
(256,356,o),
(302,414,o),
(302,462,cs),
(302,489,o),
(280,507,o),
(258,507,cs),
(242,507,o),
(227,498,o),
(219,479,cs),
(209,455,o),
(200,449,o),
(190,449,cs),
(184,449,o),
(174,451,o),
(166,454,c),
(200,499,o),
(240,562,o),
(240,619,cs),
(240,687,o),
(196,735,o),
(135,735,cs),
(74,735,o),
(31,689,o),
(31,625,cs),
(31,591,o),
(55,574,o),
(78,574,cs),
(100,574,o),
(121,589,o),
(121,619,cs),
(121,630,o),
(128,637,o),
(134,637,cs),
(140,637,o),
(146,631,o),
(146,619,cs),
(146,569,o),
(114,507,o),
(74,467,cs),
(69,462,o),
(64,459,o),
(55,456,cs),
(28,447,o),
(17,427,o),
(17,407,cs),
(17,381,o),
(36,356,o),
(61,356,cs),
(82,356,o),
(91,371,o),
(112,371,cs),
(135,371,o),
(175,356,o),
(201,356,cs)
);
}
);
width = 315;
}
);
unicode = 178;
},
{
glyphname = uni00B3;
layers = (
{
hints = (
{
horizontal = 1;
place = (356,91);
type = Stem;
},
{
horizontal = 1;
place = (648,89);
type = Stem;
},
{
place = (154,89);
type = Stem;
},
{
place = (167,95);
type = Stem;
}
);
layerId = "8E2892BE-3887-47FD-9544-6D763EF7E81E";
shapes = (
{
closed = 1;
nodes = (
(229,581,o),
(243,613,o),
(243,644,cs),
(243,692,o),
(208,737,o),
(137,737,cs),
(75,737,o),
(19,690,o),
(19,635,cs),
(19,606,o),
(40,590,o),
(63,590,cs),
(82,590,o),
(102,602,o),
(111,630,cs),
(115,643,o),
(124,648,o),
(132,648,cs),
(147,648,o),
(154,637,o),
(154,624,cs),
(154,608,o),
(145,590,o),
(124,584,cs),
(103,578,o),
(93,561,o),
(93,545,cs),
(93,526,o),
(107,507,o),
(133,507,cs),
(156,507,o),
(167,492,o),
(167,477,cs),
(167,458,o),
(154,447,o),
(138,447,cs),
(126,447,o),
(112,454,o),
(100,469,cs),
(89,483,o),
(75,489,o),
(63,489,cs),
(39,489,o),
(17,468,o),
(17,441,cs),
(17,394,o),
(78,356,o),
(136,356,cs),
(220,356,o),
(262,409,o),
(262,462,cs),
(262,500,o),
(242,538,o),
(201,558,c)
);
}
);
width = 280;
}
);
unicode = 179;
},
{
glyphname = acute;
layers = (
{
hints = (
{
horizontal = 1;
place = (751,187);
type = Stem;
},
{
place = (30,183);
type = Stem;
}
);
layerId = "8E2892BE-3887-47FD-9544-6D763EF7E81E";
shapes = (
{
closed = 1;
nodes = (
(52,851,ls),
(37,835,o),
(30,819,o),
(30,804,cs),
(30,774,o),
(54,751,o),
(83,751,cs),
(98,751,o),
(115,757,o),
(130,773,cs),
(192,838,ls),
(207,854,o),
(213,870,o),
(213,885,cs),
(213,915,o),
(190,938,o),
(161,938,cs),
(146,938,o),
(129,931,o),
(113,915,cs)
);
}
);
width = 244;
}
);
unicode = 180;
},
{
glyphname = paragraph;
layers = (
{
hints = (
{
horizontal = 1;
place = (-20,110);
type = Stem;
},
{
horizontal = 1;
place = (567,111);
type = Stem;
},
{
horizontal = 1;
place = (603,116);
type = Stem;
},
{
place = (30,245);
type = Stem;
},
{
place = (317,118);
type = Stem;
}
);
layerId = "8E2892BE-3887-47FD-9544-6D763EF7E81E";
shapes = (
{
closed = 1;
nodes = (
(490,683,o),
(470,678,o),
(457,678,cs),
(403,678,o),
(295,719,o),
(221,719,cs),
(109,719,o),
(30,635,o),
(30,500,cs),
(30,315,o),
(62,243,o),
(154,243,cs),
(251,243,o),
(275,317,o),
(275,584,cs),
(275,597,o),
(281,603,o),
(293,603,cs),
(300,603,o),
(308,602,o),
(317,599,c),
(316,543,o),
(313,440,o),
(308,287,cs),
(304,163,o),
(275,90,o),
(237,90,cs),
(219,90,o),
(202,113,o),
(190,150,cs),
(180,182,o),
(156,195,o),
(133,195,cs),
(103,195,o),
(76,174,o),
(76,139,cs),
(76,73,o),
(140,-20,o),
(234,-20,cs),
(351,-20,o),
(417,88,o),
(428,283,cs),
(432,349,o),
(434,472,o),
(435,569,c),
(445,568,o),
(455,567,o),
(465,567,cs),
(515,567,o),
(553,584,o),
(553,629,cs),
(553,657,o),
(534,683,o),
(501,683,cs)
);
}
);
width = 503;
}
);
unicode = 182;
},
{
glyphname = periodcentered;
layers = (
{
hints = (
{
horizontal = 1;
place = (237,145);
type = Stem;
},
{
place = (90,145);
type = Stem;
}
);
layerId = "8E2892BE-3887-47FD-9544-6D763EF7E81E";
shapes = (
{
closed = 1;
nodes = (
(203,237,o),
(235,269,o),
(235,310,cs),
(235,350,o),
(203,382,o),
(163,382,cs),
(122,382,o),
(90,350,o),
(90,310,cs),
(90,269,o),
(122,237,o),
(163,237,cs)
);
}
);
width = 265;
}
);
unicode = 183;
},
{
glyphname = cedilla;
layers = (
{
hints = (
{
horizontal = 1;
place = (-231,97);
type = Stem;
},
{
horizontal = 1;
place = (-231,260);
type = Stem;
},
{
place = (30,198);
type = Stem;
}
);
layerId = "8E2892BE-3887-47FD-9544-6D763EF7E81E";
shapes = (
{
closed = 1;
nodes = (
(80,-225,o),
(102,-231,o),
(124,-231,cs),
(191,-231,o),
(228,-182,o),
(228,-134,cs),
(228,-110,o),
(219,-86,o),
(199,-69,cs),
(192,-63,o),
(179,-54,o),
(179,-44,cs),
(179,-37,o),
(182,-30,o),
(184,-24,cs),
(186,-19,o),
(187,-13,o),
(187,-9,cs),
(187,15,o),
(166,29,o),
(144,29,cs),
(125,29,o),
(104,18,o),
(93,-7,cs),
(85,-26,o),
(81,-45,o),
(81,-61,cs),
(81,-79,o),
(92,-92,o),
(118,-108,cs),
(128,-114,o),
(131,-119,o),
(131,-123,cs),
(131,-129,o),
(126,-134,o),
(117,-134,cs),
(111,-134,o),
(104,-132,o),
(95,-128,cs),
(86,-124,o),
(78,-122,o),
(71,-122,cs),
(46,-122,o),
(30,-142,o),
(30,-165,cs),
(30,-183,o),
(39,-201,o),
(61,-214,cs)
);
}
);
width = 258;
}
);
unicode = 184;
},
{
glyphname = uni00B9;
layers = (
{
hints = (
{
horizontal = 1;
place = (357,379);
type = Stem;
},
{
place = (10,185);
type = Stem;
},
{
place = (80,115);
type = Stem;
}
);
layerId = "8E2892BE-3887-47FD-9544-6D763EF7E81E";
shapes = (
{
closed = 1;
nodes = (
(152,357,o),
(174,373,o),
(179,410,cs),
(190,489,o),
(195,599,o),
(195,681,cs),
(195,699,o),
(188,713,o),
(179,722,cs),
(170,731,o),
(158,736,o),
(145,736,cs),
(124,736,o),
(102,724,o),
(89,697,cs),
(80,678,o),
(58,654,o),
(35,637,cs),
(17,624,o),
(10,609,o),
(10,594,cs),
(10,569,o),
(29,548,o),
(53,548,cs),
(67,548,o),
(83,557,o),
(97,574,c),
(94,521,o),
(80,447,o),
(80,413,cs),
(80,377,o),
(104,357,o),
(129,357,cs)
);
}
);
width = 212;
}
);
unicode = 185;
},
{
glyphname = guillemotright;
layers = (
{
hints = (
{
horizontal = 1;
place = (146,307);
type = Stem;
},
{
place = (21,400);
type = Stem;
}
);
layerId = "8E2892BE-3887-47FD-9544-6D763EF7E81E";
shapes = (
{
closed = 1;
nodes = (
(48,150,o),
(60,146,o),
(72,146,cs),
(89,146,o),
(106,154,o),
(121,169,cs),
(162,210,o),
(199,254,o),
(213,283,cs),
(218,294,o),
(221,301,o),
(221,308,cs),
(221,316,o),
(218,323,o),
(212,333,cs),
(195,361,o),
(158,399,o),
(118,434,cs),
(104,446,o),
(88,453,o),
(73,453,cs),
(59,453,o),
(45,447,o),
(35,436,cs),
(26,426,o),
(22,414,o),
(22,402,cs),
(22,385,o),
(30,367,o),
(44,353,cs),
(52,345,o),
(69,330,o),
(80,319,cs),
(86,313,o),
(89,310,o),
(89,308,cs),
(89,305,o),
(87,303,o),
(82,297,cs),
(70,282,o),
(47,255,o),
(38,244,cs),
(27,230,o),
(21,215,o),
(21,200,cs),
(21,185,o),
(27,171,o),
(38,160,cs)
);
},
{
closed = 1;
nodes = (
(248,150,o),
(260,146,o),
(272,146,cs),
(289,146,o),
(306,154,o),
(321,169,cs),
(362,210,o),
(398,254,o),
(413,283,cs),
(418,293,o),
(421,301,o),
(421,308,cs),
(421,315,o),
(418,323,o),
(412,333,cs),
(395,361,o),
(358,399,o),
(318,434,cs),
(304,446,o),
(288,453,o),
(273,453,cs),
(259,453,o),
(245,447,o),
(235,436,cs),
(226,426,o),
(222,414,o),
(222,402,cs),
(222,385,o),
(230,367,o),
(244,353,cs),
(252,345,o),
(269,330,o),
(280,319,cs),
(286,313,o),
(289,311,o),
(289,308,cs),
(289,306,o),
(286,304,o),
(282,297,cs),
(272,281,o),
(247,255,o),
(238,244,cs),
(227,230,o),
(221,215,o),
(221,200,cs),
(221,185,o),
(227,171,o),
(238,160,cs)
);
}
);
width = 440;
}
);
leftKerningGroup = guillemotright;
unicode = 187;
},
{
glyphname = onequarter;
layers = (
{
hints = (
{
horizontal = 1;
place = (-16,21);
target = up;
type = BottomGhost;
},
{
horizontal = 1;
place = (-10,21);
target = up;
type = BottomGhost;
},
{
place = (89,115);
type = Stem;
},
{
place = (390,96);
type = Stem;
},
{
place = (508,91);
type = Stem;
}
);
layerId = "8E2892BE-3887-47FD-9544-6D763EF7E81E";
shapes = (
{
closed = 1;
nodes = (
(103,492,o),
(89,418,o),
(89,384,cs),
(89,348,o),
(113,328,o),
(138,328,cs),
(161,328,o),
(183,344,o),
(188,381,cs),
(199,460,o),
(204,570,o),
(204,652,cs),
(204,670,o),
(197,684,o),
(188,693,cs),
(179,702,o),
(167,707,o),
(154,707,cs),
(133,707,o),
(111,695,o),
(98,668,cs),
(89,649,o),
(67,625,o),
(44,608,cs),
(26,595,o),
(19,580,o),
(19,565,cs),
(19,540,o),
(38,519,o),
(62,519,cs),
(76,519,o),
(92,528,o),
(106,545,c)
);
},
{
closed = 1;
nodes = (
(523,674,o),
(503,694,o),
(478,694,cs),
(463,694,o),
(447,687,o),
(432,671,cs),
(328,560,o),
(182,193,o),
(93,80,cs),
(82,66,o),
(77,51,o),
(77,38,cs),
(77,11,o),
(98,-10,o),
(124,-10,cs),
(139,-10,o),
(156,-2,o),
(170,16,cs),
(264,137,o),
(403,487,o),
(505,605,cs),
(518,620,o),
(523,635,o),
(523,648,cs)
);
},
{
closed = 1;
nodes = (
(622,195,o),
(615,198,o),
(609,200,c),
(614,240,o),
(620,262,o),
(620,276,cs),
(620,307,o),
(597,324,o),
(573,324,cs),
(553,324,o),
(533,311,o),
(527,283,cs),
(523,262,o),
(519,239,o),
(516,215,c),
(503,214,o),
(490,212,o),
(476,207,c),
(481,234,o),
(486,268,o),
(486,301,cs),
(486,339,o),
(480,377,o),
(438,377,cs),
(414,377,o),
(390,360,o),
(390,327,cs),
(390,307,o),
(394,272,o),
(394,264,cs),
(394,233,o),
(389,213,o),
(378,198,cs),
(367,183,o),
(362,168,o),
(362,156,cs),
(362,130,o),
(383,112,o),
(413,112,cs),
(428,112,o),
(468,127,o),
(508,129,c),
(506,96,o),
(505,65,o),
(506,37,cs),
(507,2,o),
(530,-16,o),
(553,-16,cs),
(576,-16,o),
(599,2,o),
(599,38,cs),
(599,64,o),
(600,88,o),
(601,109,c),
(609,107,o),
(616,105,o),
(623,105,cs),
(649,105,o),
(666,124,o),
(666,145,cs),
(666,162,o),
(655,181,o),
(629,192,cs)
);
}
);
width = 686;
}
);
leftKerningGroup = onehalf;
unicode = 188;
},
{
glyphname = onehalf;
layers = (
{
hints = (
{
horizontal = 1;
place = (-8,93);
type = Stem;
},
{
horizontal = 1;
place = (-10,21);
target = up;
type = BottomGhost;
},
{
horizontal = 1;
place = (-8,21);
target = up;
type = BottomGhost;
},
{
horizontal = 1;
place = (273,98);
type = Stem;
},
{
place = (88,115);
type = Stem;
},
{
place = (366,90);
type = Stem;
},
{
place = (481,94);
type = Stem;
}
);
layerId = "8E2892BE-3887-47FD-9544-6D763EF7E81E";
shapes = (
{
closed = 1;
nodes = (
(160,326,o),
(182,342,o),
(187,379,cs),
(198,458,o),
(203,568,o),
(203,650,cs),
(203,668,o),
(196,682,o),
(187,691,cs),
(178,700,o),
(166,705,o),
(153,705,cs),
(132,705,o),
(110,693,o),
(97,666,cs),
(88,647,o),
(66,623,o),
(43,606,cs),
(25,593,o),
(18,578,o),
(18,563,cs),
(18,538,o),
(37,517,o),
(61,517,cs),
(75,517,o),
(91,526,o),
(105,543,c),
(102,490,o),
(88,416,o),
(88,382,cs),
(88,346,o),
(112,326,o),
(137,326,cs)
);
},
{
closed = 1;
nodes = (
(261,137,o),
(400,487,o),
(502,605,cs),
(515,620,o),
(520,635,o),
(520,648,cs),
(520,674,o),
(500,694,o),
(475,694,cs),
(460,694,o),
(444,687,o),
(429,671,cs),
(325,560,o),
(179,193,o),
(90,80,cs),
(79,66,o),
(74,51,o),
(74,38,cs),
(74,11,o),
(95,-10,o),
(121,-10,cs),
(136,-10,o),
(153,-2,o),
(167,16,cs)
);
},
{
closed = 1;
nodes = (
(591,-8,o),
(637,50,o),
(637,98,cs),
(637,125,o),
(615,143,o),
(593,143,cs),
(577,143,o),
(562,134,o),
(554,115,cs),
(544,91,o),
(535,85,o),
(525,85,cs),
(519,85,o),
(509,87,o),
(501,90,c),
(535,135,o),
(575,198,o),
(575,255,cs),
(575,323,o),
(531,371,o),
(470,371,cs),
(409,371,o),
(366,325,o),
(366,261,cs),
(366,227,o),
(390,210,o),
(413,210,cs),
(435,210,o),
(456,225,o),
(456,255,cs),
(456,266,o),
(463,273,o),
(469,273,cs),
(475,273,o),
(481,267,o),
(481,255,cs),
(481,205,o),
(449,143,o),
(409,103,cs),
(404,98,o),
(399,95,o),
(390,92,cs),
(363,83,o),
(352,63,o),
(352,43,cs),
(352,17,o),
(371,-8,o),
(396,-8,cs),
(417,-8,o),
(426,7,o),
(447,7,cs),
(470,7,o),
(510,-8,o),
(536,-8,cs)
);
}
);
width = 660;
}
);
leftKerningGroup = onehalf;
unicode = 189;
},
{
glyphname = threequarters;
layers = (
{
hints = (
{
horizontal = 1;
place = (-16,21);
target = up;
type = BottomGhost;
},
{
horizontal = 1;
place = (-10,21);
target = up;
type = BottomGhost;
},
{
horizontal = 1;
place = (320,91);
type = Stem;
},
{
horizontal = 1;
place = (612,89);
type = Stem;
},
{
place = (154,89);
type = Stem;
},
{
place = (167,95);
type = Stem;
},
{
place = (437,96);
type = Stem;
},
{
place = (555,91);
type = Stem;
}
);
layerId = "8E2892BE-3887-47FD-9544-6D763EF7E81E";
shapes = (
{
closed = 1;
nodes = (
(262,464,o),
(242,502,o),
(201,522,c),
(229,545,o),
(243,577,o),
(243,608,cs),
(243,656,o),
(208,701,o),
(137,701,cs),
(75,701,o),
(19,654,o),
(19,599,cs),
(19,570,o),
(40,554,o),
(63,554,cs),
(82,554,o),
(103,566,o),
(111,594,cs),
(115,607,o),
(124,612,o),
(132,612,cs),
(147,612,o),
(154,601,o),
(154,588,cs),
(154,572,o),
(145,554,o),
(124,548,cs),
(103,542,o),
(93,525,o),
(93,509,cs),
(93,490,o),
(107,471,o),
(133,471,cs),
(156,471,o),
(167,456,o),
(167,441,cs),
(167,422,o),
(154,411,o),
(138,411,cs),
(126,411,o),
(112,418,o),
(100,433,cs),
(89,447,o),
(75,453,o),
(63,453,cs),
(39,453,o),
(17,432,o),
(17,405,cs),
(17,358,o),
(78,320,o),
(136,320,cs),
(220,320,o),
(262,373,o),
(262,426,cs)
);
},
{
closed = 1;
nodes = (
(569,674,o),
(549,694,o),
(524,694,cs),
(509,694,o),
(493,687,o),
(478,671,cs),
(374,560,o),
(228,193,o),
(139,80,cs),
(128,66,o),
(123,51,o),
(123,38,cs),
(123,11,o),
(144,-10,o),
(170,-10,cs),
(185,-10,o),
(202,-2,o),
(216,16,cs),
(310,137,o),
(449,487,o),
(551,605,cs),
(564,620,o),
(569,635,o),
(569,648,cs)
);
},
{
closed = 1;
nodes = (
(669,195,o),
(662,198,o),
(656,200,c),
(661,240,o),
(667,262,o),
(667,276,cs),
(667,307,o),
(644,324,o),
(620,324,cs),
(600,324,o),
(580,311,o),
(574,283,cs),
(570,262,o),
(566,239,o),
(563,215,c),
(550,214,o),
(537,212,o),
(523,207,c),
(528,234,o),
(533,268,o),
(533,301,cs),
(533,339,o),
(527,377,o),
(485,377,cs),
(461,377,o),
(437,360,o),
(437,327,cs),
(437,307,o),
(441,272,o),
(441,264,cs),
(441,233,o),
(436,213,o),
(425,198,cs),
(414,183,o),
(409,168,o),
(409,156,cs),
(409,130,o),
(430,112,o),
(460,112,cs),
(475,112,o),
(515,127,o),
(555,129,c),
(553,96,o),
(552,65,o),
(553,37,cs),
(554,2,o),
(577,-16,o),
(600,-16,cs),
(623,-16,o),
(646,2,o),
(646,38,cs),
(646,64,o),
(647,88,o),
(648,109,c),
(656,107,o),
(663,105,o),
(670,105,cs),
(696,105,o),
(713,124,o),
(713,145,cs),
(713,162,o),
(702,181,o),
(676,192,cs)
);
}
);
width = 731;
}
);
unicode = 190;
},
{
glyphname = questiondown;
layers = (
{
hints = (
{
horizontal = 1;
place = (-258,110);
type = Stem;
},
{
horizontal = 1;
place = (355,145);
type = Stem;
},
{
place = (40,121);
type = Stem;
},
{
place = (185,145);
type = Stem;
},
{
place = (198,118);
type = Stem;
},
{
place = (294,120);
type = Stem;
}
);
layerId = "8E2892BE-3887-47FD-9544-6D763EF7E81E";
shapes = (
{
closed = 1;
nodes = (
(217,500,o),
(185,468,o),
(185,427,cs),
(185,387,o),
(217,355,o),
(257,355,cs),
(298,355,o),
(330,387,o),
(330,427,cs),
(330,468,o),
(298,500,o),
(257,500,cs)
);
},
{
closed = 1;
nodes = (
(227,317,o),
(198,294,o),
(198,250,cs),
(198,175,o),
(168,150,o),
(133,113,cs),
(83,61,o),
(40,13,o),
(40,-81,cs),
(40,-183,o),
(121,-258,o),
(229,-258,cs),
(337,-258,o),
(414,-186,o),
(414,-83,cs),
(414,-35,o),
(398,12,o),
(348,12,cs),
(318,12,o),
(289,-8,o),
(289,-44,cs),
(289,-51,o),
(294,-71,o),
(294,-83,cs),
(294,-126,o),
(262,-148,o),
(229,-148,cs),
(195,-148,o),
(161,-124,o),
(161,-75,cs),
(161,-37,o),
(178,-4,o),
(217,32,cs),
(255,67,o),
(316,120,o),
(316,250,cs),
(316,294,o),
(286,317,o),
(257,317,cs)
);
}
);
width = 454;
}
);
unicode = 191;
},
{
glyphname = Agrave;
layers = (
{
anchors = (
{
name = t.uni0302_2;
position = "{650, 710}";
}
);
hints = (
{
horizontal = 1;
place = (-16,107);
type = Stem;
},
{
horizontal = 1;
place = (-12,105);
type = Stem;
},
{
horizontal = 1;
place = (247,106);
type = Stem;
},
{
horizontal = 1;
place = (623,117);
type = Stem;
},
{
place = (548,123);
type = Stem;
}
);
layerId = "8E2892BE-3887-47FD-9544-6D763EF7E81E";
shapes = (
{
closed = 1;
nodes = (
(639,783,ls),
(654,767,o),
(671,761,o),
(686,761,cs),
(714,761,o),
(738,784,o),
(738,814,cs),
(738,829,o),
(732,845,o),
(717,861,cs),
(656,925,ls),
(640,941,o),
(623,948,o),
(608,948,cs),
(579,948,o),
(556,925,o),
(556,896,cs),
(556,881,o),
(562,864,o),
(577,848,cs)
);
},
{
closed = 1;
nodes = (
(798,175,o),
(747,93,o),
(710,93,cs),
(689,93,o),
(671,111,o),
(671,150,cs),
(671,347,o),
(733,598,o),
(733,671,cs),
(733,714,o),
(708,740,o),
(654,740,cs),
(543,740,o),
(493,656,o),
(374,374,cs),
(365,354,l),
(338,353,o),
(310,353,o),
(282,353,cs),
(240,353,o),
(218,327,o),
(218,301,cs),
(218,274,o),
(241,247,o),
(289,247,cs),
(314,247,l),
(258,146,o),
(207,91,o),
(171,91,cs),
(134,91,o),
(118,130,o),
(83,130,cs),
(52,130,o),
(28,106,o),
(28,73,cs),
(28,28,o),
(87,-16,o),
(171,-16,cs),
(277,-16,o),
(362,59,o),
(451,253,c),
(485,255,o),
(519,258,o),
(551,262,c),
(549,237,o),
(548,212,o),
(548,188,cs),
(548,49,o),
(610,-12,o),
(699,-12,cs),
(793,-12,o),
(861,65,o),
(919,236,cs),
(922,245,o),
(924,254,o),
(924,261,cs),
(924,292,o),
(901,309,o),
(878,309,cs),
(859,309,o),
(839,297,o),
(830,271,cs)
);
},
{
closed = 1;
nodes = (
(552,502,o),
(597,623,o),
(610,623,cs),
(621,623,o),
(587,506,o),
(565,371,c),
(543,367,o),
(520,364,o),
(497,362,c)
);
}
);
width = 841;
}
);
leftKerningGroup = A2;
rightKerningGroup = A;
unicode = 192;
},
{
glyphname = Aacute;
layers = (
{
anchors = (
{
name = t.uni0302_2;
position = "{650, 710}";
}
);
hints = (
{
horizontal = 1;
place = (-16,107);
type = Stem;
},
{
horizontal = 1;
place = (-12,105);
type = Stem;
},
{
horizontal = 1;
place = (247,106);
type = Stem;
},
{
horizontal = 1;
place = (623,117);
type = Stem;
},
{
place = (548,123);
type = Stem;
}
);
layerId = "8E2892BE-3887-47FD-9544-6D763EF7E81E";
shapes = (
{
closed = 1;
nodes = (
(778,848,ls),
(793,864,o),
(799,880,o),
(799,895,cs),
(799,925,o),
(776,948,o),
(747,948,cs),
(732,948,o),
(715,941,o),
(699,925,cs),
(638,861,ls),
(623,845,o),
(616,829,o),
(616,814,cs),
(616,784,o),
(640,761,o),
(669,761,cs),
(684,761,o),
(701,767,o),
(716,783,cs)
);
},
{
closed = 1;
nodes = (
(798,175,o),
(747,93,o),
(710,93,cs),
(689,93,o),
(671,111,o),
(671,150,cs),
(671,347,o),
(733,598,o),
(733,671,cs),
(733,714,o),
(708,740,o),
(654,740,cs),
(543,740,o),
(493,656,o),
(374,374,cs),
(365,354,l),
(338,353,o),
(310,353,o),
(282,353,cs),
(240,353,o),
(218,327,o),
(218,301,cs),
(218,274,o),
(241,247,o),
(289,247,cs),
(314,247,l),
(258,146,o),
(207,91,o),
(171,91,cs),
(134,91,o),
(118,130,o),
(83,130,cs),
(52,130,o),
(28,106,o),
(28,73,cs),
(28,28,o),
(87,-16,o),
(171,-16,cs),
(277,-16,o),
(362,59,o),
(451,253,c),
(485,255,o),
(519,258,o),
(551,262,c),
(549,237,o),
(548,212,o),
(548,188,cs),
(548,49,o),
(610,-12,o),
(699,-12,cs),
(793,-12,o),
(861,65,o),
(919,236,cs),
(922,245,o),
(924,254,o),
(924,261,cs),
(924,292,o),
(901,309,o),
(878,309,cs),
(859,309,o),
(839,297,o),
(830,271,cs)
);
},
{
closed = 1;
nodes = (
(552,502,o),
(597,623,o),
(610,623,cs),
(621,623,o),
(587,506,o),
(565,371,c),
(543,367,o),
(520,364,o),
(497,362,c)
);
}
);
width = 841;
}
);
leftKerningGroup = A2;
rightKerningGroup = A;
unicode = 193;
},
{
glyphname = Acircumflex;
layers = (
{
anchors = (
{
name = t.uni0302_2;
position = "{650, 710}";
}
);
hints = (
{
horizontal = 1;
place = (-16,107);
type = Stem;
},
{
horizontal = 1;
place = (-12,105);
type = Stem;
},
{
horizontal = 1;
place = (247,106);
type = Stem;
},
{
horizontal = 1;
place = (623,117);
type = Stem;
},
{
place = (548,123);
type = Stem;
}
);
layerId = "8E2892BE-3887-47FD-9544-6D763EF7E81E";
shapes = (
{
closed = 1;
nodes = (
(657,806,ls),
(662,809,o),
(666,811,o),
(669,811,cs),
(674,811,o),
(678,808,o),
(682,804,cs),
(697,787,ls),
(711,771,o),
(726,765,o),
(740,765,cs),
(768,765,o),
(791,788,o),
(791,816,cs),
(791,829,o),
(786,842,o),
(775,854,cs),
(717,919,ls),
(707,931,o),
(695,937,o),
(682,937,cs),
(673,937,o),
(663,934,o),
(653,927,cs),
(565,867,ls),
(543,852,o),
(534,834,o),
(534,818,cs),
(534,792,o),
(557,769,o),
(585,769,cs),
(596,769,o),
(608,772,o),
(619,780,cs)
);
},
{
closed = 1;
nodes = (
(798,175,o),
(747,93,o),
(710,93,cs),
(689,93,o),
(671,111,o),
(671,150,cs),
(671,347,o),
(733,598,o),
(733,671,cs),
(733,714,o),
(708,740,o),
(654,740,cs),
(543,740,o),
(493,656,o),
(374,374,cs),
(365,354,l),
(338,353,o),
(310,353,o),
(282,353,cs),
(240,353,o),
(218,327,o),
(218,301,cs),
(218,274,o),
(241,247,o),
(289,247,cs),
(314,247,l),
(258,146,o),
(207,91,o),
(171,91,cs),
(134,91,o),
(118,130,o),
(83,130,cs),
(52,130,o),
(28,106,o),
(28,73,cs),
(28,28,o),
(87,-16,o),
(171,-16,cs),
(277,-16,o),
(362,59,o),
(451,253,c),
(485,255,o),
(519,258,o),
(551,262,c),
(549,237,o),
(548,212,o),
(548,188,cs),
(548,49,o),
(610,-12,o),
(699,-12,cs),
(793,-12,o),
(861,65,o),
(919,236,cs),
(922,245,o),
(924,254,o),
(924,261,cs),
(924,292,o),
(901,309,o),
(878,309,cs),
(859,309,o),
(839,297,o),
(830,271,cs)
);
},
{
closed = 1;
nodes = (
(552,502,o),
(597,623,o),
(610,623,cs),
(621,623,o),
(587,506,o),
(565,371,c),
(543,367,o),
(520,364,o),
(497,362,c)
);
}
);
width = 841;
}
);
leftKerningGroup = A2;
rightKerningGroup = A;
unicode = 194;
},
{
glyphname = Atilde;
layers = (
{
anchors = (
{
name = t.uni0302_2;
position = "{650, 710}";
}
);
hints = (
{
horizontal = 1;
place = (-16,107);
type = Stem;
},
{
horizontal = 1;
place = (-12,105);
type = Stem;
},
{
horizontal = 1;
place = (247,106);
type = Stem;
},
{
horizontal = 1;
place = (623,117);
type = Stem;
},
{
horizontal = 1;
place = (775,107);
type = Stem;
},
{
horizontal = 1;
place = (778,133);
type = Stem;
},
{
horizontal = 1;
place = (803,108);
type = Stem;
},
{
place = (548,123);
type = Stem;
}
);
layerId = "8E2892BE-3887-47FD-9544-6D763EF7E81E";
shapes = (
{
closed = 1;
nodes = (
(605,800,o),
(609,803,o),
(615,803,cs),
(627,803,o),
(670,775,o),
(702,775,cs),
(728,775,o),
(754,787,o),
(776,812,cs),
(789,827,o),
(795,842,o),
(795,856,cs),
(795,886,o),
(769,909,o),
(743,909,cs),
(732,909,o),
(720,904,o),
(711,895,cs),
(700,884,o),
(696,882,o),
(691,882,cs),
(679,882,o),
(630,911,o),
(605,911,cs),
(575,911,o),
(545,895,o),
(528,871,cs),
(518,857,o),
(514,844,o),
(514,831,cs),
(514,801,o),
(537,778,o),
(563,778,cs),
(576,778,o),
(588,783,o),
(600,795,cs)
);
},
{
closed = 1;
nodes = (
(798,175,o),
(747,93,o),
(710,93,cs),
(689,93,o),
(671,111,o),
(671,150,cs),
(671,347,o),
(733,598,o),
(733,671,cs),
(733,714,o),
(708,740,o),
(654,740,cs),
(543,740,o),
(493,656,o),
(374,374,cs),
(365,354,l),
(338,353,o),
(310,353,o),
(282,353,cs),
(240,353,o),
(218,327,o),
(218,301,cs),
(218,274,o),
(241,247,o),
(289,247,cs),
(314,247,l),
(258,146,o),
(207,91,o),
(171,91,cs),
(134,91,o),
(118,130,o),
(83,130,cs),
(52,130,o),
(28,106,o),
(28,73,cs),
(28,28,o),
(87,-16,o),
(171,-16,cs),
(277,-16,o),
(362,59,o),
(451,253,c),
(485,255,o),
(519,258,o),
(551,262,c),
(549,237,o),
(548,212,o),
(548,188,cs),
(548,49,o),
(610,-12,o),
(699,-12,cs),
(793,-12,o),
(861,65,o),
(919,236,cs),
(922,245,o),
(924,254,o),
(924,261,cs),
(924,292,o),
(901,309,o),
(878,309,cs),
(859,309,o),
(839,297,o),
(830,271,cs)
);
},
{
closed = 1;
nodes = (
(552,502,o),
(597,623,o),
(610,623,cs),
(621,623,o),
(587,506,o),
(565,371,c),
(543,367,o),
(520,364,o),
(497,362,c)
);
}
);
width = 841;
}
);
leftKerningGroup = A2;
rightKerningGroup = A;
unicode = 195;
},
{
glyphname = Adieresis;
layers = (
{
anchors = (
{
name = t.uni0302_2;
position = "{650, 710}";
}
);
hints = (
{
horizontal = 1;
place = (-16,107);
type = Stem;
},
{
horizontal = 1;
place = (-12,105);
type = Stem;
},
{
horizontal = 1;
place = (247,106);
type = Stem;
},
{
horizontal = 1;
place = (623,117);
type = Stem;
},
{
horizontal = 1;
place = (770,128);
type = Stem;
},
{
place = (515,128);
type = Stem;
},
{
place = (548,123);
type = Stem;
},
{
place = (683,128);
type = Stem;
}
);
layerId = "8E2892BE-3887-47FD-9544-6D763EF7E81E";
shapes = (
{
closed = 1;
nodes = (
(614,770,o),
(643,799,o),
(643,834,cs),
(643,869,o),
(614,898,o),
(579,898,cs),
(544,898,o),
(515,869,o),
(515,834,cs),
(515,799,o),
(544,770,o),
(579,770,cs)
);
},
{
closed = 1;
nodes = (
(782,770,o),
(811,799,o),
(811,834,cs),
(811,869,o),
(782,898,o),
(747,898,cs),
(712,898,o),
(683,869,o),
(683,834,cs),
(683,799,o),
(712,770,o),
(747,770,cs)
);
},
{
closed = 1;
nodes = (
(798,175,o),
(747,93,o),
(710,93,cs),
(689,93,o),
(671,111,o),
(671,150,cs),
(671,347,o),
(733,598,o),
(733,671,cs),
(733,714,o),
(708,740,o),
(654,740,cs),
(543,740,o),
(493,656,o),
(374,374,cs),
(365,354,l),
(338,353,o),
(310,353,o),
(282,353,cs),
(240,353,o),
(218,327,o),
(218,301,cs),
(218,274,o),
(241,247,o),
(289,247,cs),
(314,247,l),
(258,146,o),
(207,91,o),
(171,91,cs),
(134,91,o),
(118,130,o),
(83,130,cs),
(52,130,o),
(28,106,o),
(28,73,cs),
(28,28,o),
(87,-16,o),
(171,-16,cs),
(277,-16,o),
(362,59,o),
(451,253,c),
(485,255,o),
(519,258,o),
(551,262,c),
(549,237,o),
(548,212,o),
(548,188,cs),
(548,49,o),
(610,-12,o),
(699,-12,cs),
(793,-12,o),
(861,65,o),
(919,236,cs),
(922,245,o),
(924,254,o),
(924,261,cs),
(924,292,o),
(901,309,o),
(878,309,cs),
(859,309,o),
(839,297,o),
(830,271,cs)
);
},
{
closed = 1;
nodes = (
(552,502,o),
(597,623,o),
(610,623,cs),
(621,623,o),
(587,506,o),
(565,371,c),
(543,367,o),
(520,364,o),
(497,362,c)
);
}
);
width = 841;
}
);
leftKerningGroup = A2;
rightKerningGroup = A;
unicode = 196;
},
{
glyphname = Aring;
layers = (
{
anchors = (
{
name = t.uni0302_2;
position = "{650, 710}";
}
);
hints = (
{
horizontal = 1;
place = (-16,107);
type = Stem;
},
{
horizontal = 1;
place = (-12,105);
type = Stem;
},
{
horizontal = 1;
place = (247,106);
type = Stem;
},
{
horizontal = 1;
place = (623,117);
type = Stem;
},
{
horizontal = 1;
place = (757,85);
type = Stem;
},
{
horizontal = 1;
place = (886,86);
type = Stem;
},
{
place = (548,123);
type = Stem;
},
{
place = (565,88);
type = Stem;
},
{
place = (696,88);
type = Stem;
}
);
layerId = "8E2892BE-3887-47FD-9544-6D763EF7E81E";
shapes = (
{
closed = 1;
nodes = (
(735,757,o),
(784,805,o),
(784,868,cs),
(784,929,o),
(742,972,o),
(682,972,cs),
(616,972,o),
(565,922,o),
(565,857,cs),
(565,798,o),
(609,757,o),
(671,757,cs)
);
},
{
closed = 1;
nodes = (
(688,886,o),
(696,877,o),
(696,866,cs),
(696,853,o),
(687,842,o),
(673,842,cs),
(661,842,o),
(653,851,o),
(653,862,cs),
(653,876,o),
(663,886,o),
(676,886,cs)
);
},
{
closed = 1;
nodes = (
(798,175,o),
(747,93,o),
(710,93,cs),
(689,93,o),
(671,111,o),
(671,150,cs),
(671,347,o),
(733,598,o),
(733,671,cs),
(733,714,o),
(708,740,o),
(654,740,cs),
(543,740,o),
(493,656,o),
(374,374,cs),
(365,354,l),
(338,353,o),
(310,353,o),
(282,353,cs),
(240,353,o),
(218,327,o),
(218,301,cs),
(218,274,o),
(241,247,o),
(289,247,cs),
(314,247,l),
(258,146,o),
(207,91,o),
(171,91,cs),
(134,91,o),
(118,130,o),
(83,130,cs),
(52,130,o),
(28,106,o),
(28,73,cs),
(28,28,o),
(87,-16,o),
(171,-16,cs),
(277,-16,o),
(362,59,o),
(451,253,c),
(485,255,o),
(519,258,o),
(551,262,c),
(549,237,o),
(548,212,o),
(548,188,cs),
(548,49,o),
(610,-12,o),
(699,-12,cs),
(793,-12,o),
(861,65,o),
(919,236,cs),
(922,245,o),
(924,254,o),
(924,261,cs),
(924,292,o),
(901,309,o),
(878,309,cs),
(859,309,o),
(839,297,o),
(830,271,cs)
);
},
{
closed = 1;
nodes = (
(552,502,o),
(597,623,o),
(610,623,cs),
(621,623,o),
(587,506,o),
(565,371,c),
(543,367,o),
(520,364,o),
(497,362,c)
);
}
);
width = 841;
}
);
leftKerningGroup = A2;
rightKerningGroup = A;
unicode = 197;
},
{
glyphname = AE;
layers = (
{
anchors = (
{
name = t.uni0302_2;
position = "{717, 700}";
}
);
hints = (
{
horizontal = 1;
place = (-20,115);
type = Stem;
},
{
horizontal = 1;
place = (-12,117);
type = Stem;
},
{
horizontal = 1;
place = (215,106);
type = Stem;
},
{
horizontal = 1;
place = (220,108);
type = Stem;
},
{
horizontal = 1;
place = (440,-20);
target = down;
type = TopGhost;
},
{
horizontal = 1;
place = (614,123);
type = Stem;
},
{
horizontal = 1;
place = (630,115);
type = Stem;
},
{
place = (563,157);
type = Stem;
},
{
place = (732,120);
type = Stem;
},
{
place = (992,115);
type = Stem;
}
);
layerId = "8E2892BE-3887-47FD-9544-6D763EF7E81E";
shapes = (
{
closed = 1;
nodes = (
(1014,145,o),
(940,95,o),
(852,95,cs),
(758,95,o),
(720,159,o),
(720,208,cs),
(720,291,o),
(780,354,o),
(913,354,cs),
(952,354,o),
(974,379,o),
(974,405,cs),
(974,426,o),
(959,448,o),
(929,459,cs),
(877,478,o),
(852,506,o),
(852,552,cs),
(852,601,o),
(882,630,o),
(927,630,cs),
(964,630,o),
(992,606,o),
(992,572,cs),
(992,550,o),
(996,530,o),
(1006,516,cs),
(1015,503,o),
(1028,496,o),
(1047,496,cs),
(1077,496,o),
(1100,520,o),
(1105,556,cs),
(1106,564,o),
(1107,573,o),
(1107,581,cs),
(1107,675,o),
(1030,745,o),
(928,745,cs),
(817,745,o),
(732,666,o),
(732,560,cs),
(732,508,o),
(746,472,o),
(777,440,c),
(743,428,o),
(712,413,o),
(682,382,c),
(683,467,o),
(704,629,o),
(704,680,cs),
(704,715,o),
(681,737,o),
(644,737,cs),
(520,737,o),
(453,565,o),
(377,375,cs),
(369,356,o),
(362,338,o),
(354,322,c),
(330,321,o),
(306,321,o),
(282,321,cs),
(240,321,o),
(218,295,o),
(218,269,cs),
(218,242,o),
(241,215,o),
(289,215,cs),
(299,215,l),
(251,137,o),
(206,105,o),
(168,105,cs),
(130,105,o),
(126,147,o),
(81,147,cs),
(51,147,o),
(28,121,o),
(28,89,cs),
(28,33,o),
(93,-12,o),
(168,-12,cs),
(285,-12,o),
(373,90,o),
(438,220,c),
(480,222,o),
(525,226,o),
(565,231,c),
(587,73,o),
(709,-20,o),
(843,-20,cs),
(960,-20,o),
(1081,45,o),
(1146,236,cs),
(1149,246,o),
(1151,255,o),
(1151,263,cs),
(1151,294,o),
(1129,314,o),
(1106,314,cs),
(1087,314,o),
(1067,301,o),
(1057,271,cs)
);
},
{
closed = 1;
nodes = (
(555,538,o),
(581,614,o),
(593,614,cs),
(604,614,o),
(570,504,o),
(563,338,c),
(538,334,o),
(511,330,o),
(484,328,c),
(488,341,o),
(493,353,o),
(497,366,cs)
);
}
);
width = 1068;
}
);
leftKerningGroup = A2;
rightKerningGroup = A;
unicode = 198;
},
{
glyphname = Ccedilla;
layers = (
{
anchors = (
{
name = t.uni0302_2;
position = "{425, 710}";
},
{
name = b.uni0326_1_2;
position = "{349, 10}";
}
);
hints = (
{
horizontal = 1;
place = (-220,97);
type = Stem;
},
{
horizontal = 1;
place = (-14,21);
target = up;
type = BottomGhost;
},
{
horizontal = 1;
place = (-12,21);
target = up;
type = BottomGhost;
},
{
horizontal = 1;
place = (636,103);
type = Stem;
},
{
place = (73,124);
type = Stem;
},
{
place = (453,123);
type = Stem;
}
);
layerId = "8E2892BE-3887-47FD-9544-6D763EF7E81E";
shapes = (
{
closed = 1;
nodes = (
(538,148,o),
(455,87,o),
(361,87,cs),
(274,87,o),
(197,152,o),
(197,279,cs),
(197,461,o),
(307,636,o),
(411,636,cs),
(438,636,o),
(453,621,o),
(453,589,cs),
(453,553,o),
(431,527,o),
(431,497,cs),
(431,461,o),
(459,437,o),
(489,437,cs),
(512,437,o),
(536,450,o),
(551,481,cs),
(567,514,o),
(576,554,o),
(576,591,cs),
(576,675,o),
(511,739,o),
(420,739,cs),
(235,739,o),
(73,526,o),
(73,279,cs),
(73,113,o),
(177,11,o),
(300,-12,c),
(296,-26,o),
(294,-39,o),
(294,-50,cs),
(294,-68,o),
(305,-81,o),
(331,-97,cs),
(341,-103,o),
(344,-108,o),
(344,-112,cs),
(344,-118,o),
(339,-123,o),
(330,-123,cs),
(324,-123,o),
(317,-121,o),
(308,-117,cs),
(299,-113,o),
(291,-111,o),
(284,-111,cs),
(259,-111,o),
(243,-131,o),
(243,-154,cs),
(243,-172,o),
(252,-190,o),
(274,-203,cs),
(293,-214,o),
(315,-220,o),
(337,-220,cs),
(404,-220,o),
(441,-171,o),
(441,-123,cs),
(441,-99,o),
(432,-75,o),
(412,-58,cs),
(405,-52,o),
(392,-43,o),
(392,-33,cs),
(392,-26,o),
(395,-20,o),
(397,-14,c),
(514,1,o),
(616,81,o),
(669,236,cs),
(672,245,o),
(674,254,o),
(674,261,cs),
(674,291,o),
(651,308,o),
(628,308,cs),
(609,308,o),
(589,297,o),
(580,271,cs)
);
}
);
width = 591;
}
);
leftKerningGroup = C;
rightKerningGroup = A;
unicode = 199;
},
{
glyphname = Egrave;
layers = (
{
anchors = (
{
name = t.uni0302_2;
position = "{323, 710}";
}
);
hints = (
{
horizontal = 1;
place = (-25,105);
type = Stem;
},
{
horizontal = 1;
place = (346,104);
type = Stem;
},
{
horizontal = 1;
place = (641,103);
type = Stem;
},
{
place = (79,124);
type = Stem;
},
{
place = (131,124);
type = Stem;
},
{
place = (393,120);
type = Stem;
}
);
layerId = "8E2892BE-3887-47FD-9544-6D763EF7E81E";
shapes = (
{
closed = 1;
nodes = (
(312,783,ls),
(327,767,o),
(344,761,o),
(359,761,cs),
(387,761,o),
(411,784,o),
(411,814,cs),
(411,829,o),
(405,845,o),
(390,861,cs),
(329,925,ls),
(313,941,o),
(296,948,o),
(281,948,cs),
(252,948,o),
(229,925,o),
(229,896,cs),
(229,881,o),
(235,864,o),
(250,848,cs)
);
},
{
closed = 1;
nodes = (
(490,152,o),
(414,80,o),
(326,80,cs),
(244,80,o),
(203,140,o),
(203,203,cs),
(203,272,o),
(253,346,o),
(356,346,cs),
(396,346,o),
(415,372,o),
(415,398,cs),
(415,424,o),
(395,450,o),
(356,450,cs),
(286,450,o),
(255,494,o),
(255,553,cs),
(255,608,o),
(288,641,o),
(333,641,cs),
(369,641,o),
(393,618,o),
(393,580,cs),
(393,563,o),
(391,551,o),
(391,535,cs),
(391,508,o),
(414,487,o),
(448,487,cs),
(480,487,o),
(513,513,o),
(513,580,cs),
(513,690,o),
(426,744,o),
(332,744,cs),
(214,744,o),
(131,670,o),
(131,560,cs),
(131,494,o),
(167,446,o),
(221,408,c),
(141,374,o),
(79,290,o),
(79,201,cs),
(79,67,o),
(171,-25,o),
(318,-25,cs),
(447,-25,o),
(561,63,o),
(619,236,cs),
(622,246,o),
(624,255,o),
(624,263,cs),
(624,295,o),
(602,315,o),
(579,315,cs),
(560,315,o),
(540,302,o),
(530,271,cs)
);
}
);
width = 541;
}
);
leftKerningGroup = E;
rightKerningGroup = A;
unicode = 200;
},
{
glyphname = Eacute;
layers = (
{
anchors = (
{
name = t.uni0302_2;
position = "{323, 710}";
}
);
hints = (
{
horizontal = 1;
place = (-25,105);
type = Stem;
},
{
horizontal = 1;
place = (346,104);
type = Stem;
},
{
horizontal = 1;
place = (641,103);
type = Stem;
},
{
place = (79,124);
type = Stem;
},
{
place = (131,124);
type = Stem;
},
{
place = (393,120);
type = Stem;
}
);
layerId = "8E2892BE-3887-47FD-9544-6D763EF7E81E";
shapes = (
{
closed = 1;
nodes = (
(451,848,ls),
(466,864,o),
(472,880,o),
(472,895,cs),
(472,925,o),
(449,948,o),
(420,948,cs),
(405,948,o),
(388,941,o),
(372,925,cs),
(311,861,ls),
(296,845,o),
(289,829,o),
(289,814,cs),
(289,784,o),
(313,761,o),
(342,761,cs),
(357,761,o),
(374,767,o),
(389,783,cs)
);
},
{
closed = 1;
nodes = (
(490,152,o),
(414,80,o),
(326,80,cs),
(244,80,o),
(203,140,o),
(203,203,cs),
(203,272,o),
(253,346,o),
(356,346,cs),
(396,346,o),
(415,372,o),
(415,398,cs),
(415,424,o),
(395,450,o),
(356,450,cs),
(286,450,o),
(255,494,o),
(255,553,cs),
(255,608,o),
(288,641,o),
(333,641,cs),
(369,641,o),
(393,618,o),
(393,580,cs),
(393,563,o),
(391,551,o),
(391,535,cs),
(391,508,o),
(414,487,o),
(448,487,cs),
(480,487,o),
(513,513,o),
(513,580,cs),
(513,690,o),
(426,744,o),
(332,744,cs),
(214,744,o),
(131,670,o),
(131,560,cs),
(131,494,o),
(167,446,o),
(221,408,c),
(141,374,o),
(79,290,o),
(79,201,cs),
(79,67,o),
(171,-25,o),
(318,-25,cs),
(447,-25,o),
(561,63,o),
(619,236,cs),
(622,246,o),
(624,255,o),
(624,263,cs),
(624,295,o),
(602,315,o),
(579,315,cs),
(560,315,o),
(540,302,o),
(530,271,cs)
);
}
);
width = 541;
}
);
leftKerningGroup = E;
rightKerningGroup = A;
unicode = 201;
},
{
glyphname = Ecircumflex;
layers = (
{
anchors = (
{
name = t.uni0302_2;
position = "{323, 710}";
}
);
hints = (
{
horizontal = 1;
place = (-25,105);
type = Stem;
},
{
horizontal = 1;
place = (346,104);
type = Stem;
},
{
horizontal = 1;
place = (641,103);
type = Stem;
},
{
place = (79,124);
type = Stem;
},
{
place = (131,124);
type = Stem;
},
{
place = (393,120);
type = Stem;
}
);
layerId = "8E2892BE-3887-47FD-9544-6D763EF7E81E";
shapes = (
{
closed = 1;
nodes = (
(330,806,ls),
(335,809,o),
(339,811,o),
(342,811,cs),
(347,811,o),
(351,808,o),
(355,804,cs),
(370,787,ls),
(384,771,o),
(399,765,o),
(413,765,cs),
(441,765,o),
(464,788,o),
(464,816,cs),
(464,829,o),
(459,842,o),
(448,854,cs),
(390,919,ls),
(380,931,o),
(368,937,o),
(355,937,cs),
(346,937,o),
(336,934,o),
(326,927,cs),
(238,867,ls),
(216,852,o),
(207,834,o),
(207,818,cs),
(207,792,o),
(230,769,o),
(258,769,cs),
(269,769,o),
(281,772,o),
(292,780,cs)
);
},
{
closed = 1;
nodes = (
(490,152,o),
(414,80,o),
(326,80,cs),
(244,80,o),
(203,140,o),
(203,203,cs),
(203,272,o),
(253,346,o),
(356,346,cs),
(396,346,o),
(415,372,o),
(415,398,cs),
(415,424,o),
(395,450,o),
(356,450,cs),
(286,450,o),
(255,494,o),
(255,553,cs),
(255,608,o),
(288,641,o),
(333,641,cs),
(369,641,o),
(393,618,o),
(393,580,cs),
(393,563,o),
(391,551,o),
(391,535,cs),
(391,508,o),
(414,487,o),
(448,487,cs),
(480,487,o),
(513,513,o),
(513,580,cs),
(513,690,o),
(426,744,o),
(332,744,cs),
(214,744,o),
(131,670,o),
(131,560,cs),
(131,494,o),
(167,446,o),
(221,408,c),
(141,374,o),
(79,290,o),
(79,201,cs),
(79,67,o),
(171,-25,o),
(318,-25,cs),
(447,-25,o),
(561,63,o),
(619,236,cs),
(622,246,o),
(624,255,o),
(624,263,cs),
(624,295,o),
(602,315,o),
(579,315,cs),
(560,315,o),
(540,302,o),
(530,271,cs)
);
}
);
width = 541;
}
);
leftKerningGroup = E;
rightKerningGroup = A;
unicode = 202;
},
{
glyphname = Edieresis;
layers = (
{
anchors = (
{
name = t.uni0302_2;
position = "{323, 710}";
}
);
hints = (
{
horizontal = 1;
place = (-25,105);
type = Stem;
},
{
horizontal = 1;
place = (346,104);
type = Stem;
},
{
horizontal = 1;
place = (641,103);
type = Stem;
},
{
horizontal = 1;
place = (770,128);
type = Stem;
},
{
place = (79,124);
type = Stem;
},
{
place = (131,124);
type = Stem;
},
{
place = (188,128);
type = Stem;
},
{
place = (356,128);
type = Stem;
},
{
place = (393,120);
type = Stem;
}
);
layerId = "8E2892BE-3887-47FD-9544-6D763EF7E81E";
shapes = (
{
closed = 1;
nodes = (
(287,770,o),
(316,799,o),
(316,834,cs),
(316,869,o),
(287,898,o),
(252,898,cs),
(217,898,o),
(188,869,o),
(188,834,cs),
(188,799,o),
(217,770,o),
(252,770,cs)
);
},
{
closed = 1;
nodes = (
(455,770,o),
(484,799,o),
(484,834,cs),
(484,869,o),
(455,898,o),
(420,898,cs),
(385,898,o),
(356,869,o),
(356,834,cs),
(356,799,o),
(385,770,o),
(420,770,cs)
);
},
{
closed = 1;
nodes = (
(490,152,o),
(414,80,o),
(326,80,cs),
(244,80,o),
(203,140,o),
(203,203,cs),
(203,272,o),
(253,346,o),
(356,346,cs),
(396,346,o),
(415,372,o),
(415,398,cs),
(415,424,o),
(395,450,o),
(356,450,cs),
(286,450,o),
(255,494,o),
(255,553,cs),
(255,608,o),
(288,641,o),
(333,641,cs),
(369,641,o),
(393,618,o),
(393,580,cs),
(393,563,o),
(391,551,o),
(391,535,cs),
(391,508,o),
(414,487,o),
(448,487,cs),
(480,487,o),
(513,513,o),
(513,580,cs),
(513,690,o),
(426,744,o),
(332,744,cs),
(214,744,o),
(131,670,o),
(131,560,cs),
(131,494,o),
(167,446,o),
(221,408,c),
(141,374,o),
(79,290,o),
(79,201,cs),
(79,67,o),
(171,-25,o),
(318,-25,cs),
(447,-25,o),
(561,63,o),
(619,236,cs),
(622,246,o),
(624,255,o),
(624,263,cs),
(624,295,o),
(602,315,o),
(579,315,cs),
(560,315,o),
(540,302,o),
(530,271,cs)
);
}
);
width = 541;
}
);
leftKerningGroup = E;
rightKerningGroup = A;
unicode = 203;
},
{
glyphname = Igrave;
layers = (
{
anchors = (
{
name = t.uni0302_2;
position = "{276, 720}";
},
{
name = b.uni0326_1_2;
position = "{224, 0}";
}
);
hints = (
{
horizontal = 1;
place = (-2,105);
type = Stem;
},
{
horizontal = 1;
place = (651,105);
type = Stem;
},
{
place = (56,121);
type = Stem;
},
{
place = (308,124);
type = Stem;
}
);
layerId = "8E2892BE-3887-47FD-9544-6D763EF7E81E";
shapes = (
{
closed = 1;
nodes = (
(282,935,ls),
(266,951,o),
(249,958,o),
(234,958,cs),
(205,958,o),
(182,935,o),
(182,906,cs),
(182,891,o),
(188,874,o),
(203,858,cs),
(265,793,ls),
(280,777,o),
(297,771,o),
(312,771,cs),
(340,771,o),
(364,794,o),
(364,824,cs),
(364,839,o),
(358,855,o),
(343,871,cs)
);
},
{
closed = 1;
nodes = (
(308,629,o),
(308,610,o),
(308,592,cs),
(308,251,o),
(274,103,o),
(212,103,cs),
(176,103,o),
(168,135,o),
(129,135,cs),
(99,135,o),
(79,115,o),
(79,81,cs),
(79,40,o),
(122,-2,o),
(217,-2,cs),
(367,-2,o),
(432,147,o),
(432,578,cs),
(432,613,o),
(431,653,o),
(430,694,cs),
(429,724,o),
(410,743,o),
(378,748,cs),
(341,754,o),
(298,756,o),
(254,756,cs),
(134,756,o),
(56,685,o),
(56,593,cs),
(56,513,o),
(128,450,o),
(194,450,cs),
(228,450,o),
(248,470,o),
(248,499,cs),
(248,519,o),
(236,531,o),
(223,541,cs),
(203,556,o),
(177,566,o),
(177,594,cs),
(177,626,o),
(203,651,o),
(256,651,cs),
(275,651,o),
(293,650,o),
(308,649,c)
);
}
);
width = 447;
}
);
leftKerningGroup = I2;
rightKerningGroup = I;
unicode = 204;
},
{
glyphname = Iacute;
layers = (
{
anchors = (
{
name = t.uni0302_2;
position = "{276, 720}";
},
{
name = b.uni0326_1_2;
position = "{224, 0}";
}
);
hints = (
{
horizontal = 1;
place = (-2,105);
type = Stem;
},
{
horizontal = 1;
place = (651,105);
type = Stem;
},
{
place = (56,121);
type = Stem;
},
{
place = (308,124);
type = Stem;
}
);
layerId = "8E2892BE-3887-47FD-9544-6D763EF7E81E";
shapes = (
{
closed = 1;
nodes = (
(264,871,ls),
(249,855,o),
(242,839,o),
(242,824,cs),
(242,794,o),
(266,771,o),
(295,771,cs),
(310,771,o),
(327,777,o),
(342,793,cs),
(404,858,ls),
(419,874,o),
(425,890,o),
(425,905,cs),
(425,935,o),
(402,958,o),
(373,958,cs),
(358,958,o),
(341,951,o),
(325,935,cs)
);
},
{
closed = 1;
nodes = (
(308,629,o),
(308,610,o),
(308,592,cs),
(308,251,o),
(274,103,o),
(212,103,cs),
(176,103,o),
(168,135,o),
(129,135,cs),
(99,135,o),
(79,115,o),
(79,81,cs),
(79,40,o),
(122,-2,o),
(217,-2,cs),
(367,-2,o),
(432,147,o),
(432,578,cs),
(432,613,o),
(431,653,o),
(430,694,cs),
(429,724,o),
(410,743,o),
(378,748,cs),
(341,754,o),
(298,756,o),
(254,756,cs),
(134,756,o),
(56,685,o),
(56,593,cs),
(56,513,o),
(128,450,o),
(194,450,cs),
(228,450,o),
(248,470,o),
(248,499,cs),
(248,519,o),
(236,531,o),
(223,541,cs),
(203,556,o),
(177,566,o),
(177,594,cs),
(177,626,o),
(203,651,o),
(256,651,cs),
(275,651,o),
(293,650,o),
(308,649,c)
);
}
);
width = 447;
}
);
leftKerningGroup = I2;
rightKerningGroup = I;
unicode = 205;
},
{
glyphname = Icircumflex;
layers = (
{
anchors = (
{
name = t.uni0302_2;
position = "{276, 720}";
},
{
name = b.uni0326_1_2;
position = "{224, 0}";
}
);
hints = (
{
horizontal = 1;
place = (-2,105);
type = Stem;
},
{
horizontal = 1;
place = (651,105);
type = Stem;
},
{
place = (56,121);
type = Stem;
},
{
place = (308,124);
type = Stem;
}
);
layerId = "8E2892BE-3887-47FD-9544-6D763EF7E81E";
shapes = (
{
closed = 1;
nodes = (
(283,816,ls),
(288,819,o),
(292,821,o),
(295,821,cs),
(300,821,o),
(304,818,o),
(308,814,cs),
(323,797,ls),
(337,781,o),
(352,775,o),
(366,775,cs),
(394,775,o),
(417,798,o),
(417,826,cs),
(417,839,o),
(412,852,o),
(401,864,cs),
(343,929,ls),
(333,941,o),
(321,947,o),
(308,947,cs),
(299,947,o),
(289,944,o),
(279,937,cs),
(191,877,ls),
(169,862,o),
(160,844,o),
(160,828,cs),
(160,802,o),
(183,779,o),
(211,779,cs),
(222,779,o),
(234,782,o),
(245,790,cs)
);
},
{
closed = 1;
nodes = (
(308,629,o),
(308,610,o),
(308,592,cs),
(308,251,o),
(274,103,o),
(212,103,cs),
(176,103,o),
(168,135,o),
(129,135,cs),
(99,135,o),
(79,115,o),
(79,81,cs),
(79,40,o),
(122,-2,o),
(217,-2,cs),
(367,-2,o),
(432,147,o),
(432,578,cs),
(432,613,o),
(431,653,o),
(430,694,cs),
(429,724,o),
(410,743,o),
(378,748,cs),
(341,754,o),
(298,756,o),
(254,756,cs),
(134,756,o),
(56,685,o),
(56,593,cs),
(56,513,o),
(128,450,o),
(194,450,cs),
(228,450,o),
(248,470,o),
(248,499,cs),
(248,519,o),
(236,531,o),
(223,541,cs),
(203,556,o),
(177,566,o),
(177,594,cs),
(177,626,o),
(203,651,o),
(256,651,cs),
(275,651,o),
(293,650,o),
(308,649,c)
);
}
);
width = 447;
}
);
leftKerningGroup = I2;
rightKerningGroup = I;
unicode = 206;
},
{
glyphname = Idieresis;
layers = (
{
anchors = (
{
name = t.uni0302_2;
position = "{276, 720}";
},
{
name = b.uni0326_1_2;
position = "{224, 0}";
}
);
hints = (
{
horizontal = 1;
place = (-2,105);
type = Stem;
},
{
horizontal = 1;
place = (651,105);
type = Stem;
},
{
horizontal = 1;
place = (780,128);
type = Stem;
},
{
place = (56,121);
type = Stem;
},
{
place = (141,128);
type = Stem;
},
{
place = (308,124);
type = Stem;
},
{
place = (309,128);
type = Stem;
}
);
layerId = "8E2892BE-3887-47FD-9544-6D763EF7E81E";
shapes = (
{
closed = 1;
nodes = (
(240,780,o),
(269,809,o),
(269,844,cs),
(269,879,o),
(240,908,o),
(205,908,cs),
(170,908,o),
(141,879,o),
(141,844,cs),
(141,809,o),
(170,780,o),
(205,780,cs)
);
},
{
closed = 1;
nodes = (
(408,780,o),
(437,809,o),
(437,844,cs),
(437,879,o),
(408,908,o),
(373,908,cs),
(338,908,o),
(309,879,o),
(309,844,cs),
(309,809,o),
(338,780,o),
(373,780,cs)
);
},
{
closed = 1;
nodes = (
(308,629,o),
(308,610,o),
(308,592,cs),
(308,251,o),
(274,103,o),
(212,103,cs),
(176,103,o),
(168,135,o),
(129,135,cs),
(99,135,o),
(79,115,o),
(79,81,cs),
(79,40,o),
(122,-2,o),
(217,-2,cs),
(367,-2,o),
(432,147,o),
(432,578,cs),
(432,613,o),
(431,653,o),
(430,694,cs),
(429,724,o),
(410,743,o),
(378,748,cs),
(341,754,o),
(298,756,o),
(254,756,cs),
(134,756,o),
(56,685,o),
(56,593,cs),
(56,513,o),
(128,450,o),
(194,450,cs),
(228,450,o),
(248,470,o),
(248,499,cs),
(248,519,o),
(236,531,o),
(223,541,cs),
(203,556,o),
(177,566,o),
(177,594,cs),
(177,626,o),
(203,651,o),
(256,651,cs),
(275,651,o),
(293,650,o),
(308,649,c)
);
}
);
width = 447;
}
);
leftKerningGroup = I2;
rightKerningGroup = I;
unicode = 207;
},
{
glyphname = Eth;
layers = (
{
anchors = (
{
name = t.uni0302_2;
position = "{460, 710}";
}
);
hints = (
{
horizontal = 1;
place = (-18,115);
type = Stem;
},
{
horizontal = 1;
place = (-15,99);
type = Stem;
},
{
horizontal = 1;
place = (124,94);
type = Stem;
},
{
horizontal = 1;
place = (227,110);
type = Stem;
},
{
horizontal = 1;
place = (372,104);
type = Stem;
},
{
horizontal = 1;
place = (629,115);
type = Stem;
},
{
place = (64,110);
type = Stem;
},
{
place = (141,124);
type = Stem;
},
{
place = (326,125);
type = Stem;
},
{
place = (327,122);
type = Stem;
},
{
place = (690,124);
type = Stem;
}
);
layerId = "8E2892BE-3887-47FD-9544-6D763EF7E81E";
shapes = (
{
closed = 1;
nodes = (
(267,744,o),
(141,657,o),
(141,526,cs),
(141,432,o),
(214,372,o),
(326,372,c),
(327,372,o),
(327,372,o),
(328,372,c),
(325,333,l),
(306,334,o),
(286,335,o),
(265,337,cs),
(219,342,o),
(194,314,o),
(194,285,cs),
(194,262,o),
(211,238,o),
(246,231,cs),
(266,227,o),
(287,224,o),
(307,223,c),
(298,194,l),
(269,208,o),
(239,218,o),
(206,218,cs),
(111,218,o),
(64,159,o),
(64,100,cs),
(64,42,o),
(110,-15,o),
(201,-15,cs),
(258,-15,o),
(306,5,o),
(345,43,c),
(396,12,o),
(457,-18,o),
(524,-18,cs),
(672,-18,o),
(814,121,o),
(814,372,cs),
(814,605,o),
(675,744,o),
(447,744,cs)
);
},
{
closed = 1;
nodes = (
(466,97,o),
(435,112,o),
(403,131,c),
(416,161,o),
(427,196,o),
(435,235,c),
(468,243,o),
(501,255,o),
(533,271,cs),
(555,282,o),
(564,300,o),
(564,319,cs),
(564,346,o),
(544,372,o),
(512,372,cs),
(502,372,o),
(490,369,o),
(478,363,c),
(450,351,l),
(451,365,o),
(452,378,o),
(452,392,c),
(469,398,o),
(485,404,o),
(500,412,cs),
(525,425,o),
(537,446,o),
(537,464,cs),
(537,489,o),
(517,510,o),
(482,510,cs),
(473,510,o),
(463,508,o),
(451,504,c),
(448,535,l),
(443,572,o),
(415,591,o),
(387,591,cs),
(357,591,o),
(327,569,o),
(327,527,cs),
(327,510,o),
(329,494,o),
(329,476,c),
(326,476,ls),
(285,476,o),
(265,495,o),
(265,527,cs),
(265,586,o),
(333,629,o),
(447,629,cs),
(607,629,o),
(690,544,o),
(690,372,cs),
(690,200,o),
(616,97,o),
(498,97,cs)
);
},
{
closed = 1;
nodes = (
(174,114,o),
(184,124,o),
(202,124,cs),
(215,124,o),
(232,117,o),
(250,106,c),
(236,92,o),
(219,84,o),
(202,84,cs),
(184,84,o),
(174,94,o),
(174,104,cs)
);
}
);
width = 812;
}
);
leftKerningGroup = D2;
rightKerningGroup = D;
unicode = 208;
},
{
glyphname = Ntilde;
layers = (
{
anchors = (
{
name = t.uni0302_2;
position = "{561, 710}";
},
{
name = b.uni0326_1_2;
position = "{491, 10}";
}
);
hints = (
{
horizontal = 1;
place = (-11,105);
type = Stem;
},
{
horizontal = 1;
place = (636,103);
type = Stem;
},
{
horizontal = 1;
place = (646,105);
type = Stem;
},
{
horizontal = 1;
place = (775,107);
type = Stem;
},
{
horizontal = 1;
place = (778,133);
type = Stem;
},
{
horizontal = 1;
place = (803,108);
type = Stem;
},
{
place = (605,124);
type = Stem;
},
{
place = (621,124);
type = Stem;
}
);
layerId = "8E2892BE-3887-47FD-9544-6D763EF7E81E";
shapes = (
{
closed = 1;
nodes = (
(516,800,o),
(520,803,o),
(526,803,cs),
(538,803,o),
(581,775,o),
(613,775,cs),
(639,775,o),
(665,787,o),
(687,812,cs),
(700,827,o),
(706,842,o),
(706,856,cs),
(706,886,o),
(680,909,o),
(654,909,cs),
(643,909,o),
(631,904,o),
(622,895,cs),
(611,884,o),
(607,882,o),
(602,882,cs),
(590,882,o),
(541,911,o),
(516,911,cs),
(486,911,o),
(456,895,o),
(439,871,cs),
(429,857,o),
(425,844,o),
(425,831,cs),
(425,801,o),
(448,778,o),
(474,778,cs),
(487,778,o),
(499,783,o),
(511,795,cs)
);
},
{
closed = 1;
nodes = (
(824,178,o),
(784,94,o),
(752,94,cs),
(739,94,o),
(729,104,o),
(729,131,cs),
(729,207,o),
(745,413,o),
(745,501,cs),
(745,666,o),
(680,739,o),
(568,739,cs),
(468,739,o),
(400,660,o),
(347,522,c),
(327,675,o),
(270,751,o),
(165,751,cs),
(111,751,o),
(66,726,o),
(30,674,cs),
(19,658,o),
(13,641,o),
(13,626,cs),
(13,596,o),
(35,579,o),
(59,579,cs),
(75,579,o),
(92,587,o),
(104,603,cs),
(130,638,o),
(142,646,o),
(157,646,cs),
(207,646,o),
(234,551,o),
(234,324,cs),
(234,240,o),
(219,110,o),
(210,59,cs),
(209,55,o),
(209,50,o),
(209,46,cs),
(209,10,o),
(234,-18,o),
(269,-18,cs),
(304,-18,o),
(330,8,o),
(335,47,cs),
(340,85,o),
(346,140,o),
(352,201,cs),
(374,426,o),
(476,636,o),
(562,636,cs),
(606,636,o),
(621,604,o),
(621,532,cs),
(621,449,o),
(605,198,o),
(605,160,cs),
(605,44,o),
(660,-11,o),
(741,-11,cs),
(830,-11,o),
(888,67,o),
(944,236,cs),
(947,246,o),
(949,255,o),
(949,263,cs),
(949,294,o),
(927,312,o),
(904,312,cs),
(885,312,o),
(865,300,o),
(855,271,cs)
);
}
);
width = 866;
}
);
leftKerningGroup = M;
rightKerningGroup = A;
unicode = 209;
},
{
glyphname = Ograve;
layers = (
{
anchors = (
{
name = t.uni0302_2;
position = "{477, 710}";
}
);
hints = (
{
horizontal = 1;
place = (-20,105);
type = Stem;
},
{
horizontal = 1;
place = (71,94);
type = Stem;
},
{
horizontal = 1;
place = (637,103);
type = Stem;
},
{
place = (88,124);
type = Stem;
},
{
place = (262,108);
type = Stem;
},
{
place = (565,124);
type = Stem;
}
);
layerId = "8E2892BE-3887-47FD-9544-6D763EF7E81E";
shapes = (
{
closed = 1;
nodes = (
(466,783,ls),
(481,767,o),
(498,761,o),
(513,761,cs),
(541,761,o),
(565,784,o),
(565,814,cs),
(565,829,o),
(559,845,o),
(544,861,cs),
(483,925,ls),
(467,941,o),
(450,948,o),
(435,948,cs),
(406,948,o),
(383,925,o),
(383,896,cs),
(383,881,o),
(389,864,o),
(404,848,cs)
);
},
{
closed = 1;
nodes = (
(729,211,o),
(690,173,o),
(634,165,c),
(669,238,o),
(689,328,o),
(689,430,cs),
(689,618,o),
(602,740,o),
(475,740,cs),
(438,740,o),
(400,724,o),
(367,695,c),
(358,710,o),
(343,718,o),
(327,718,cs),
(314,718,o),
(300,715,o),
(286,710,cs),
(174,670,o),
(88,496,o),
(88,322,cs),
(88,116,o),
(203,-20,o),
(376,-20,cs),
(453,-20,o),
(521,14,o),
(573,73,c),
(584,72,o),
(595,71,o),
(605,71,cs),
(711,71,o),
(802,126,o),
(839,236,cs),
(842,245,o),
(844,254,o),
(844,262,cs),
(844,292,o),
(822,309,o),
(799,309,cs),
(779,309,o),
(759,297,o),
(750,271,cs)
);
},
{
closed = 1;
nodes = (
(524,637,o),
(565,562,o),
(565,433,cs),
(565,329,o),
(547,246,o),
(517,187,c),
(438,227,o),
(370,317,o),
(370,439,cs),
(370,562,o),
(414,637,o),
(464,637,cs)
);
},
{
closed = 1;
nodes = (
(275,85,o),
(212,169,o),
(212,320,cs),
(212,423,o),
(239,530,o),
(289,582,c),
(272,539,o),
(262,490,o),
(262,436,cs),
(262,271,o),
(347,161,o),
(451,108,c),
(429,93,o),
(404,85,o),
(377,85,cs)
);
}
);
width = 761;
}
);
leftKerningGroup = O;
rightKerningGroup = A;
unicode = 210;
},
{
glyphname = Oacute;
layers = (
{
anchors = (
{
name = t.uni0302_2;
position = "{477, 710}";
}
);
hints = (
{
horizontal = 1;
place = (-20,105);
type = Stem;
},
{
horizontal = 1;
place = (71,94);
type = Stem;
},
{
horizontal = 1;
place = (637,103);
type = Stem;
},
{
place = (88,124);
type = Stem;
},
{
place = (262,108);
type = Stem;
},
{
place = (565,124);
type = Stem;
}
);
layerId = "8E2892BE-3887-47FD-9544-6D763EF7E81E";
shapes = (
{
closed = 1;
nodes = (
(605,848,ls),
(620,864,o),
(626,880,o),
(626,895,cs),
(626,925,o),
(603,948,o),
(574,948,cs),
(559,948,o),
(542,941,o),
(526,925,cs),
(465,861,ls),
(450,845,o),
(443,829,o),
(443,814,cs),
(443,784,o),
(467,761,o),
(496,761,cs),
(511,761,o),
(528,767,o),
(543,783,cs)
);
},
{
closed = 1;
nodes = (
(729,211,o),
(690,173,o),
(634,165,c),
(669,238,o),
(689,328,o),
(689,430,cs),
(689,618,o),
(602,740,o),
(475,740,cs),
(438,740,o),
(400,724,o),
(367,695,c),
(358,710,o),
(343,718,o),
(327,718,cs),
(314,718,o),
(300,715,o),
(286,710,cs),
(174,670,o),
(88,496,o),
(88,322,cs),
(88,116,o),
(203,-20,o),
(376,-20,cs),
(453,-20,o),
(521,14,o),
(573,73,c),
(584,72,o),
(595,71,o),
(605,71,cs),
(711,71,o),
(802,126,o),
(839,236,cs),
(842,245,o),
(844,254,o),
(844,262,cs),
(844,292,o),
(822,309,o),
(799,309,cs),
(779,309,o),
(759,297,o),
(750,271,cs)
);
},
{
closed = 1;
nodes = (
(524,637,o),
(565,562,o),
(565,433,cs),
(565,329,o),
(547,246,o),
(517,187,c),
(438,227,o),
(370,317,o),
(370,439,cs),
(370,562,o),
(414,637,o),
(464,637,cs)
);
},
{
closed = 1;
nodes = (
(275,85,o),
(212,169,o),
(212,320,cs),
(212,423,o),
(239,530,o),
(289,582,c),
(272,539,o),
(262,490,o),
(262,436,cs),
(262,271,o),
(347,161,o),
(451,108,c),
(429,93,o),
(404,85,o),
(377,85,cs)
);
}
);
width = 761;
}
);
leftKerningGroup = O;
rightKerningGroup = A;
unicode = 211;
},
{
glyphname = Ocircumflex;
layers = (
{
anchors = (
{
name = t.uni0302_2;
position = "{477, 710}";
}
);
hints = (
{
horizontal = 1;
place = (-20,105);
type = Stem;
},
{
horizontal = 1;
place = (71,94);
type = Stem;
},
{
horizontal = 1;
place = (637,103);
type = Stem;
},
{
place = (88,124);
type = Stem;
},
{
place = (262,108);
type = Stem;
},
{
place = (565,124);
type = Stem;
}
);
layerId = "8E2892BE-3887-47FD-9544-6D763EF7E81E";
shapes = (
{
closed = 1;
nodes = (
(484,806,ls),
(489,809,o),
(493,811,o),
(496,811,cs),
(501,811,o),
(505,808,o),
(509,804,cs),
(524,787,ls),
(538,771,o),
(553,765,o),
(567,765,cs),
(595,765,o),
(618,788,o),
(618,816,cs),
(618,829,o),
(613,842,o),
(602,854,cs),
(544,919,ls),
(534,931,o),
(522,937,o),
(509,937,cs),
(500,937,o),
(490,934,o),
(480,927,cs),
(392,867,ls),
(370,852,o),
(361,834,o),
(361,818,cs),
(361,792,o),
(384,769,o),
(412,769,cs),
(423,769,o),
(435,772,o),
(446,780,cs)
);
},
{
closed = 1;
nodes = (
(729,211,o),
(690,173,o),
(634,165,c),
(669,238,o),
(689,328,o),
(689,430,cs),
(689,618,o),
(602,740,o),
(475,740,cs),
(438,740,o),
(400,724,o),
(367,695,c),
(358,710,o),
(343,718,o),
(327,718,cs),
(314,718,o),
(300,715,o),
(286,710,cs),
(174,670,o),
(88,496,o),
(88,322,cs),
(88,116,o),
(203,-20,o),
(376,-20,cs),
(453,-20,o),
(521,14,o),
(573,73,c),
(584,72,o),
(595,71,o),
(605,71,cs),
(711,71,o),
(802,126,o),
(839,236,cs),
(842,245,o),
(844,254,o),
(844,262,cs),
(844,292,o),
(822,309,o),
(799,309,cs),
(779,309,o),
(759,297,o),
(750,271,cs)
);
},
{
closed = 1;
nodes = (
(524,637,o),
(565,562,o),
(565,433,cs),
(565,329,o),
(547,246,o),
(517,187,c),
(438,227,o),
(370,317,o),
(370,439,cs),
(370,562,o),
(414,637,o),
(464,637,cs)
);
},
{
closed = 1;
nodes = (
(275,85,o),
(212,169,o),
(212,320,cs),
(212,423,o),
(239,530,o),
(289,582,c),
(272,539,o),
(262,490,o),
(262,436,cs),
(262,271,o),
(347,161,o),
(451,108,c),
(429,93,o),
(404,85,o),
(377,85,cs)
);
}
);
width = 761;
}
);
leftKerningGroup = O;
rightKerningGroup = A;
unicode = 212;
},
{
glyphname = Otilde;
layers = (
{
anchors = (
{
name = t.uni0302_2;
position = "{477, 710}";
}
);
hints = (
{
horizontal = 1;
place = (-20,105);
type = Stem;
},
{
horizontal = 1;
place = (71,94);
type = Stem;
},
{
horizontal = 1;
place = (637,103);
type = Stem;
},
{
horizontal = 1;
place = (775,107);
type = Stem;
},
{
horizontal = 1;
place = (778,133);
type = Stem;
},
{
horizontal = 1;
place = (803,108);
type = Stem;
},
{
place = (88,124);
type = Stem;
},
{
place = (262,108);
type = Stem;
},
{
place = (565,124);
type = Stem;
}
);
layerId = "8E2892BE-3887-47FD-9544-6D763EF7E81E";
shapes = (
{
closed = 1;
nodes = (
(432,800,o),
(436,803,o),
(442,803,cs),
(454,803,o),
(497,775,o),
(529,775,cs),
(555,775,o),
(581,787,o),
(603,812,cs),
(616,827,o),
(622,842,o),
(622,856,cs),
(622,886,o),
(596,909,o),
(570,909,cs),
(559,909,o),
(547,904,o),
(538,895,cs),
(527,884,o),
(523,882,o),
(518,882,cs),
(506,882,o),
(457,911,o),
(432,911,cs),
(402,911,o),
(372,895,o),
(355,871,cs),
(345,857,o),
(341,844,o),
(341,831,cs),
(341,801,o),
(364,778,o),
(390,778,cs),
(403,778,o),
(415,783,o),
(427,795,cs)
);
},
{
closed = 1;
nodes = (
(729,211,o),
(690,173,o),
(634,165,c),
(669,238,o),
(689,328,o),
(689,430,cs),
(689,618,o),
(602,740,o),
(475,740,cs),
(438,740,o),
(400,724,o),
(367,695,c),
(358,710,o),
(343,718,o),
(327,718,cs),
(314,718,o),
(300,715,o),
(286,710,cs),
(174,670,o),
(88,496,o),
(88,322,cs),
(88,116,o),
(203,-20,o),
(376,-20,cs),
(453,-20,o),
(521,14,o),
(573,73,c),
(584,72,o),
(595,71,o),
(605,71,cs),
(711,71,o),
(802,126,o),
(839,236,cs),
(842,245,o),
(844,254,o),
(844,262,cs),
(844,292,o),
(822,309,o),
(799,309,cs),
(779,309,o),
(759,297,o),
(750,271,cs)
);
},
{
closed = 1;
nodes = (
(524,637,o),
(565,562,o),
(565,433,cs),
(565,329,o),
(547,246,o),
(517,187,c),
(438,227,o),
(370,317,o),
(370,439,cs),
(370,562,o),
(414,637,o),
(464,637,cs)
);
},
{
closed = 1;
nodes = (
(275,85,o),
(212,169,o),
(212,320,cs),
(212,423,o),
(239,530,o),
(289,582,c),
(272,539,o),
(262,490,o),
(262,436,cs),
(262,271,o),
(347,161,o),
(451,108,c),
(429,93,o),
(404,85,o),
(377,85,cs)
);
}
);
width = 761;
}
);
leftKerningGroup = O;
rightKerningGroup = A;
unicode = 213;
},
{
glyphname = Odieresis;
layers = (
{
anchors = (
{
name = t.uni0302_2;
position = "{477, 710}";
}
);
hints = (
{
horizontal = 1;
place = (-20,105);
type = Stem;
},
{
horizontal = 1;
place = (71,94);
type = Stem;
},
{
horizontal = 1;
place = (637,103);
type = Stem;
},
{
horizontal = 1;
place = (770,128);
type = Stem;
},
{
place = (88,124);
type = Stem;
},
{
place = (262,108);
type = Stem;
},
{
place = (342,128);
type = Stem;
},
{
place = (510,128);
type = Stem;
},
{
place = (565,124);
type = Stem;
}
);
layerId = "8E2892BE-3887-47FD-9544-6D763EF7E81E";
shapes = (
{
closed = 1;
nodes = (
(441,770,o),
(470,799,o),
(470,834,cs),
(470,869,o),
(441,898,o),
(406,898,cs),
(371,898,o),
(342,869,o),
(342,834,cs),
(342,799,o),
(371,770,o),
(406,770,cs)
);
},
{
closed = 1;
nodes = (
(609,770,o),
(638,799,o),
(638,834,cs),
(638,869,o),
(609,898,o),
(574,898,cs),
(539,898,o),
(510,869,o),
(510,834,cs),
(510,799,o),
(539,770,o),
(574,770,cs)
);
},
{
closed = 1;
nodes = (
(729,211,o),
(690,173,o),
(634,165,c),
(669,238,o),
(689,328,o),
(689,430,cs),
(689,618,o),
(602,740,o),
(475,740,cs),
(438,740,o),
(400,724,o),
(367,695,c),
(358,710,o),
(343,718,o),
(327,718,cs),
(314,718,o),
(300,715,o),
(286,710,cs),
(174,670,o),
(88,496,o),
(88,322,cs),
(88,116,o),
(203,-20,o),
(376,-20,cs),
(453,-20,o),
(521,14,o),
(573,73,c),
(584,72,o),
(595,71,o),
(605,71,cs),
(711,71,o),
(802,126,o),
(839,236,cs),
(842,245,o),
(844,254,o),
(844,262,cs),
(844,292,o),
(822,309,o),
(799,309,cs),
(779,309,o),
(759,297,o),
(750,271,cs)
);
},
{
closed = 1;
nodes = (
(524,637,o),
(565,562,o),
(565,433,cs),
(565,329,o),
(547,246,o),
(517,187,c),
(438,227,o),
(370,317,o),
(370,439,cs),
(370,562,o),
(414,637,o),
(464,637,cs)
);
},
{
closed = 1;
nodes = (
(275,85,o),
(212,169,o),
(212,320,cs),
(212,423,o),
(239,530,o),
(289,582,c),
(272,539,o),
(262,490,o),
(262,436,cs),
(262,271,o),
(347,161,o),
(451,108,c),
(429,93,o),
(404,85,o),
(377,85,cs)
);
}
);
width = 761;
}
);
leftKerningGroup = O;
rightKerningGroup = A;
unicode = 214;
},
{
glyphname = multiply;
layers = (
{
hints = (
{
horizontal = 1;
place = (196,286);
type = Stem;
},
{
place = (30,291);
type = Stem;
}
);
layerId = "8E2892BE-3887-47FD-9544-6D763EF7E81E";
shapes = (
{
closed = 1;
nodes = (
(256,341,l),
(298,383,ls),
(311,396,o),
(317,411,o),
(317,425,cs),
(317,455,o),
(289,482,o),
(259,482,cs),
(245,482,o),
(231,476,o),
(219,464,cs),
(175,420,l),
(135,460,ls),
(122,473,o),
(107,478,o),
(94,478,cs),
(63,478,o),
(37,452,o),
(37,422,cs),
(37,408,o),
(43,393,o),
(56,380,cs),
(96,341,l),
(49,294,ls),
(36,281,o),
(30,266,o),
(30,253,cs),
(30,222,o),
(57,196,o),
(87,196,cs),
(101,196,o),
(115,202,o),
(128,214,c),
(175,261,l),
(223,214,ls),
(235,202,o),
(249,196,o),
(263,196,cs),
(293,196,o),
(321,223,o),
(321,253,cs),
(321,267,o),
(315,282,o),
(302,295,cs)
);
}
);
width = 351;
}
);
unicode = 215;
},
{
glyphname = Oslash;
layers = (
{
anchors = (
{
name = t.uni0302_2;
position = "{381, 700}";
},
{
name = b.uni0326_1_2;
position = "{381, 0}";
}
);
hints = (
{
horizontal = 1;
place = (-20,105);
type = Stem;
},
{
horizontal = 1;
place = (-16,21);
target = up;
type = BottomGhost;
},
{
horizontal = 1;
place = (72,93);
type = Stem;
},
{
horizontal = 1;
place = (637,103);
type = Stem;
},
{
place = (88,124);
type = Stem;
},
{
place = (565,124);
type = Stem;
}
);
layerId = "8E2892BE-3887-47FD-9544-6D763EF7E81E";
shapes = (
{
closed = 1;
nodes = (
(726,204,o),
(692,167,o),
(634,165,c),
(669,238,o),
(689,329,o),
(689,430,cs),
(689,509,o),
(673,577,o),
(642,628,c),
(651,641,o),
(658,653,o),
(665,663,cs),
(674,677,o),
(678,690,o),
(678,702,cs),
(678,732,o),
(655,753,o),
(628,753,cs),
(610,753,o),
(591,744,o),
(576,722,cs),
(566,707,l),
(529,728,o),
(486,740,o),
(435,740,cs),
(218,740,o),
(88,572,o),
(88,322,cs),
(88,236,o),
(108,162,o),
(144,105,c),
(136,95,o),
(129,85,o),
(122,76,cs),
(112,63,o),
(107,49,o),
(107,36,cs),
(107,7,o),
(130,-16,o),
(157,-16,cs),
(173,-16,o),
(190,-8,o),
(205,11,cs),
(209,16,o),
(213,22,o),
(218,27,c),
(262,-3,o),
(315,-20,o),
(376,-20,cs),
(453,-20,o),
(521,14,o),
(574,73,c),
(585,72,o),
(597,72,o),
(608,72,cs),
(704,72,o),
(800,122,o),
(839,236,cs),
(842,245,o),
(844,254,o),
(844,262,cs),
(844,292,o),
(822,310,o),
(799,310,cs),
(780,310,o),
(760,298,o),
(750,271,cs)
);
},
{
closed = 1;
nodes = (
(212,528,o),
(295,637,o),
(434,637,cs),
(462,637,o),
(485,630,o),
(504,616,c),
(425,500,o),
(314,340,o),
(225,215,c),
(216,245,o),
(212,280,o),
(212,320,cs)
);
},
{
closed = 1;
nodes = (
(341,85,o),
(310,96,o),
(284,116,c),
(369,231,o),
(476,384,o),
(559,506,c),
(563,484,o),
(565,460,o),
(565,433,cs),
(565,332,o),
(548,250,o),
(519,191,c),
(507,198,o),
(495,205,o),
(485,214,cs),
(475,223,o),
(464,226,o),
(453,226,cs),
(427,226,o),
(403,203,o),
(403,174,cs),
(403,158,o),
(410,141,o),
(427,125,cs),
(434,118,o),
(442,113,o),
(450,107,c),
(428,93,o),
(403,85,o),
(377,85,cs)
);
}
);
width = 761;
}
);
leftKerningGroup = O;
rightKerningGroup = A;
unicode = 216;
},
